<svg width="8" height="15" viewBox="0 0 8 15" fill="none" xmlns="http://www.w3.org/2000/svg">
<path d="M6.05761 0.00180908C6.29126 0.00135256 6.5177 0.0827275 6.69761 0.231809C6.79887 0.315758 6.88257 0.41886 6.94392 0.535207C7.00527 0.651554 7.04307 0.77886 7.05515 0.909837C7.06722 1.04081 7.05334 1.17289 7.0143 1.29849C6.97525 1.42409 6.91181 1.54076 6.82761 1.64181L2.34761 7.00181L6.66761 12.3718C6.75068 12.4741 6.81271 12.5918 6.85014 12.7181C6.88757 12.8445 6.89966 12.977 6.88573 13.108C6.87179 13.239 6.83209 13.366 6.76892 13.4816C6.70574 13.5973 6.62034 13.6993 6.51761 13.7818C6.41414 13.8728 6.29298 13.9415 6.16172 13.9835C6.03045 14.0255 5.89193 14.0399 5.75484 14.0258C5.61774 14.0117 5.48504 13.9695 5.36506 13.9017C5.24508 13.8339 5.1404 13.742 5.05761 13.6318L0.22761 7.63181C0.0805278 7.45288 0.00012207 7.22843 0.00012207 6.99681C0.00012207 6.76518 0.0805278 6.54074 0.22761 6.36181L5.22761 0.36181C5.32793 0.240792 5.45536 0.145128 5.59957 0.0825796C5.74378 0.0200308 5.9007 -0.00764151 6.05761 0.00180908Z" fill="url(#paint0_linear)"/>
<defs>
<linearGradient id="paint0_linear" x1="0.000122068" y1="4.27947" x2="7.26433" y2="4.60411" gradientUnits="userSpaceOnUse">
<stop stop-color="#E9722E"/>
<stop offset="1" stop-color="#DD1100"/>
</linearGradient>
</defs>
</svg>
