<svg width="26" height="18" viewBox="0 0 26 18" fill="none" xmlns="http://www.w3.org/2000/svg">
<path d="M16.3866 0.57342C16.1724 0.787369 16.0513 1.07727 16.0497 1.38004C16.0482 1.68281 16.1662 1.97394 16.3783 2.19009L21.7216 7.54342H1.38326C1.0878 7.55471 0.808201 7.68002 0.603158 7.89304C0.398114 8.10607 0.283569 8.39024 0.283569 8.68592C0.283569 8.98159 0.398114 9.26577 0.603158 9.4788C0.808201 9.69182 1.0878 9.81713 1.38326 9.82842H21.7166L16.3683 15.1801C16.1582 15.3973 16.0415 15.688 16.0431 15.9901C16.0446 16.2922 16.1643 16.5818 16.3766 16.7968C16.5911 17.0087 16.8809 17.1268 17.1825 17.1252C17.484 17.1237 17.7726 17.0025 17.9849 16.7884L25.2283 9.49675C25.3248 9.38944 25.4026 9.26661 25.4583 9.13342C25.5179 8.99447 25.548 8.84463 25.5466 8.69342C25.5446 8.39338 25.4249 8.10611 25.2133 7.89342L17.9716 0.598421C17.8692 0.4926 17.747 0.408 17.6119 0.349464C17.4768 0.290928 17.3315 0.259602 17.1843 0.25728C17.0371 0.254958 16.8908 0.281687 16.754 0.335933C16.6171 0.39018 16.4922 0.470881 16.3866 0.57342Z" fill="url(#paint0_linear)"/>
<defs>
<linearGradient id="paint0_linear" x1="0.283569" y1="5.40192" x2="25.8791" y2="8.80702" gradientUnits="userSpaceOnUse">
<stop stop-color="#FE7B59"/>
<stop offset="0.9999" stop-color="#FE497A"/>
<stop offset="1" stop-color="#FD169C"/>
</linearGradient>
</defs>
</svg>
