<svg width="17" height="12" viewBox="0 0 17 12" fill="none" xmlns="http://www.w3.org/2000/svg">
<path d="M6.47208 11.7879C6.61179 11.6484 6.69074 11.4593 6.69176 11.2619C6.69277 11.0644 6.61578 10.8746 6.47752 10.7336L2.99303 7.24263L16.256 7.24263C16.4487 7.23527 16.631 7.15355 16.7647 7.01463C16.8984 6.87572 16.9731 6.6904 16.9731 6.49759C16.9731 6.30477 16.8984 6.11945 16.7647 5.98054C16.631 5.84162 16.4487 5.7599 16.256 5.75254L2.99629 5.75254L6.48404 2.26262C6.621 2.121 6.6971 1.9314 6.69609 1.73439C6.69507 1.53737 6.61701 1.34857 6.4786 1.20837C6.33871 1.07017 6.1497 0.993132 5.95307 0.99415C5.75643 0.995169 5.56823 1.07417 5.42978 1.2138L0.706274 5.96883C0.643307 6.03881 0.5926 6.11891 0.556286 6.20576C0.517391 6.29637 0.497774 6.39409 0.498684 6.49269C0.499987 6.68836 0.578041 6.87569 0.716055 7.01439L5.43847 11.7716C5.50523 11.8406 5.58494 11.8958 5.67304 11.9339C5.76114 11.9721 5.8559 11.9925 5.9519 11.994C6.0479 11.9956 6.14326 11.9781 6.23251 11.9428C6.32177 11.9074 6.40318 11.8548 6.47208 11.7879Z" fill="#A3A3A3"/>
</svg>
