<svg width="17" height="12" viewBox="0 0 17 12" fill="none" xmlns="http://www.w3.org/2000/svg">
<path d="M10.5279 0.212111C10.3882 0.351631 10.3093 0.54068 10.3082 0.73812C10.3072 0.935561 10.3842 1.12541 10.5225 1.26637L14.007 4.75737H0.743982C0.551308 4.76473 0.368977 4.84645 0.235265 4.98537C0.101552 5.12428 0.0268555 5.3096 0.0268555 5.50241C0.0268555 5.69523 0.101552 5.88055 0.235265 6.01946C0.368977 6.15838 0.551308 6.2401 0.743982 6.24746H14.0037L10.516 9.73738C10.379 9.879 10.3029 10.0686 10.3039 10.2656C10.3049 10.4626 10.383 10.6514 10.5214 10.7916C10.6613 10.9298 10.8503 11.0069 11.0469 11.0058C11.2436 11.0048 11.4318 10.9258 11.5702 10.7862L16.2937 6.03117C16.3567 5.96119 16.4074 5.88109 16.4437 5.79424C16.4826 5.70363 16.5022 5.60591 16.5013 5.50731C16.5 5.31164 16.422 5.12431 16.2839 4.98561L11.5615 0.228414C11.4948 0.159406 11.4151 0.104237 11.327 0.0660649C11.2389 0.0278923 11.1441 0.00746442 11.0481 0.00595021C10.9521 0.004436 10.8567 0.0218659 10.7675 0.057241C10.6782 0.0926161 10.5968 0.145243 10.5279 0.212111Z" fill="#A0A3BD"/>
</svg>
