<svg width="26" height="18" viewBox="0 0 26 18" fill="none" xmlns="http://www.w3.org/2000/svg">
<path d="M9.16004 0.57342C9.37428 0.787369 9.49535 1.07727 9.49691 1.38004C9.49847 1.68281 9.38039 1.97394 9.16838 2.19009L3.82504 7.54342H24.1634C24.4588 7.55471 24.7384 7.68002 24.9435 7.89304C25.1485 8.10607 25.2631 8.39024 25.2631 8.68592C25.2631 8.98159 25.1485 9.26577 24.9435 9.4788C24.7384 9.69182 24.4588 9.81713 24.1634 9.82842H3.83004L9.17838 15.1801C9.3884 15.3973 9.50511 15.688 9.50355 15.9901C9.50199 16.2922 9.38229 16.5818 9.17004 16.7968C8.95552 17.0087 8.66569 17.1268 8.36415 17.1252C8.06262 17.1237 7.77402 17.0025 7.56171 16.7884L0.318375 9.49675C0.221819 9.38944 0.144061 9.26661 0.0883751 9.13342C0.0287294 8.99447 -0.00135229 8.84463 4.19617e-05 8.69342C0.00204096 8.39338 0.121735 8.10611 0.333374 7.89342L7.57504 0.598421C7.67741 0.4926 7.79964 0.408 7.93474 0.349464C8.06983 0.290928 8.21514 0.259602 8.36236 0.25728C8.50957 0.254958 8.6558 0.281687 8.79268 0.335933C8.92955 0.39018 9.05439 0.470881 9.16004 0.57342Z" fill="#D9DBE9"/>
</svg>
