<svg width="8" height="15" viewBox="0 0 8 15" fill="none" xmlns="http://www.w3.org/2000/svg">
<path d="M1.00184 14.0294C0.768187 14.0299 0.54175 13.9485 0.361838 13.7994C0.26058 13.7155 0.176878 13.6124 0.115526 13.496C0.0541742 13.3797 0.0163779 13.2524 0.00430202 13.1214C-0.00777384 12.9904 0.00610818 12.8584 0.0451527 12.7328C0.0841971 12.6072 0.147636 12.4905 0.231838 12.3894L4.71184 7.02944L0.391839 1.65944C0.308773 1.55715 0.246741 1.43946 0.20931 1.31312C0.171878 1.18678 0.159784 1.05429 0.173723 0.923258C0.187662 0.792229 0.227359 0.665248 0.290533 0.549611C0.353707 0.433974 0.439112 0.331963 0.541839 0.24944C0.645305 0.158404 0.766471 0.0897367 0.897733 0.0477476C1.02899 0.00575857 1.16752 -0.00864513 1.30461 0.00543976C1.44171 0.0195246 1.57441 0.0617939 1.69439 0.129596C1.81437 0.197398 1.91904 0.289268 2.00184 0.399441L6.83184 6.39944C6.97892 6.57837 7.05933 6.80282 7.05933 7.03444C7.05933 7.26607 6.97892 7.49051 6.83184 7.66944L1.83184 13.6694C1.73152 13.7905 1.60409 13.8861 1.45988 13.9487C1.31567 14.0112 1.15874 14.0389 1.00184 14.0294Z" fill="url(#paint0_linear)"/>
<defs>
<linearGradient id="paint0_linear" x1="7.05933" y1="9.75178" x2="-0.204882" y2="9.42714" gradientUnits="userSpaceOnUse">
<stop stop-color="#E9722E"/>
<stop offset="1" stop-color="#DD1100"/>
</linearGradient>
</defs>
</svg>
