<svg width="34" height="35" viewBox="0 0 34 35" fill="none" xmlns="http://www.w3.org/2000/svg">
<path fill-rule="evenodd" clip-rule="evenodd" d="M30.1232 1.35117C27.2157 -0.756316 23.3641 -0.341911 21.281 2.19992C25.6421 3.66784 29.4487 6.43658 32.1885 10.1335C33.8816 7.30796 33.0284 3.46751 30.1232 1.35117Z" fill="#FCFCFC"/>
<path fill-rule="evenodd" clip-rule="evenodd" d="M5.72425 5.26883C7.57249 3.93761 9.61244 2.89522 11.7741 2.17741C9.6888 -0.340042 5.83506 -0.747799 2.92979 1.33974C0.0245224 3.43614 -0.83088 7.23892 0.864413 10.0378C2.23388 8.21155 3.87247 6.60359 5.72425 5.26883Z" fill="#FCFCFC"/>
<path fill-rule="evenodd" clip-rule="evenodd" d="M30.7215 19.0221C30.7215 18.5834 30.6949 18.1512 30.6595 17.7235C30.0567 10.7651 24.6805 5.21159 17.8838 4.50245C17.5824 4.46699 17.2788 4.46477 16.9708 4.45369C16.7891 4.44483 16.6074 4.42267 16.4212 4.42267H16.4124C8.50543 4.42267 2.09877 10.9579 2.09877 19.0221C2.09877 19.0864 2.10763 19.1529 2.10985 19.2171C2.13012 21.1627 2.538 23.0847 3.30966 24.8707C4.08132 26.6568 5.20127 28.2711 6.60404 29.6194C6.14049 29.8603 5.75207 30.2239 5.48123 30.6707C5.21038 31.1174 5.06754 31.6299 5.0683 32.1523C5.0683 33.7235 6.31817 34.9978 7.86055 34.9978C9.33645 34.9978 10.5287 33.8299 10.6306 32.3518C12.1575 33.041 13.8218 33.4753 15.5747 33.5795C15.8539 33.5972 16.1309 33.6238 16.4124 33.6238C16.7337 33.6238 17.0439 33.595 17.3653 33.5751C19.0979 33.4559 20.7932 33.0155 22.3647 32.2765C22.429 33.7922 23.6412 35 25.1415 35C26.6838 35 27.9315 33.7258 27.9315 32.1546C27.9315 30.9956 27.2556 30.005 26.285 29.5595C27.6924 28.1898 28.8104 26.5512 29.5725 24.7411C30.3347 22.9309 30.7254 20.9862 30.7215 19.0221ZM16.5453 29.3956C10.8655 29.3956 6.24725 24.7064 6.24725 18.9446C6.24725 13.1828 10.8655 8.49802 16.5453 8.49802C22.2229 8.49802 26.8434 13.1828 26.8434 18.9446C26.8434 24.7064 22.2229 29.3956 16.5453 29.3956Z" fill="#FCFCFC"/>
<path fill-rule="evenodd" clip-rule="evenodd" d="M15.3775 10.9711H17.5935V19.8353H15.3775V10.9711Z" fill="#FCFCFC"/>
<path fill-rule="evenodd" clip-rule="evenodd" d="M15.3775 17.6193H22.0257V19.8353H15.3775V17.6193Z" fill="#FCFCFC"/>
</svg>
