<svg width="22" height="17" viewBox="0 0 22 17" fill="none" xmlns="http://www.w3.org/2000/svg">
<path d="M10.9999 17C10.8683 17.0008 10.7378 16.9756 10.616 16.9258C10.4941 16.876 10.3833 16.8027 10.2899 16.71L2.51987 8.93002C1.54523 7.94519 0.998535 6.61558 0.998535 5.23002C0.998535 3.84445 1.54523 2.51484 2.51987 1.53002C3.50213 0.550528 4.8327 0.000488281 6.21987 0.000488281C7.60704 0.000488281 8.93761 0.550528 9.91987 1.53002L10.9999 2.61002L12.0799 1.53002C13.0621 0.550528 14.3927 0.000488281 15.7799 0.000488281C17.167 0.000488281 18.4976 0.550528 19.4799 1.53002C20.4545 2.51484 21.0012 3.84445 21.0012 5.23002C21.0012 6.61558 20.4545 7.94519 19.4799 8.93002L11.7099 16.71C11.6164 16.8027 11.5056 16.876 11.3838 16.9258C11.2619 16.9756 11.1315 17.0008 10.9999 17ZM6.21987 2.00002C5.79655 1.9981 5.37705 2.0802 4.98568 2.24155C4.59431 2.40291 4.23884 2.64031 3.93987 2.94002C3.33593 3.54714 2.99691 4.36866 2.99691 5.22502C2.99691 6.08137 3.33593 6.9029 3.93987 7.51002L10.9999 14.58L18.0599 7.51002C18.6638 6.9029 19.0028 6.08137 19.0028 5.22502C19.0028 4.36866 18.6638 3.54714 18.0599 2.94002C17.4435 2.35773 16.6278 2.03331 15.7799 2.03331C14.932 2.03331 14.1162 2.35773 13.4999 2.94002L11.7099 4.74002C11.6169 4.83375 11.5063 4.90814 11.3844 4.95891C11.2626 5.00968 11.1319 5.03581 10.9999 5.03581C10.8679 5.03581 10.7372 5.00968 10.6153 4.95891C10.4934 4.90814 10.3828 4.83375 10.2899 4.74002L8.49987 2.94002C8.2009 2.64031 7.84544 2.40291 7.45406 2.24155C7.06269 2.0802 6.6432 1.9981 6.21987 2.00002Z" fill="#DD1100"/>
</svg>
