<svg width="194" height="140" viewBox="0 0 194 140" fill="none" xmlns="http://www.w3.org/2000/svg">
<g clip-path="url(#clip0)">
<path d="M89.5906 134.845C89.8059 136.532 90.5978 138.076 91.4426 139.563C91.4705 139.613 91.4992 139.663 91.5287 139.714H100.309C100.486 139.668 100.662 139.617 100.836 139.563C101.828 139.261 102.764 138.8 103.608 138.199C106.839 135.872 108.081 131.474 107.52 127.534C107.171 125.085 106.097 122.586 104.004 121.267C102.868 120.575 101.513 120.338 100.209 120.602C100.176 120.609 100.142 120.616 100.108 120.623C99.5658 120.728 99.0515 120.946 98.5993 121.264C98.1472 121.582 97.7674 121.992 97.4851 122.467C96.4877 124.239 97.0816 126.434 97.5719 128.406C98.0608 130.378 98.326 132.739 96.907 134.193C97.115 133.585 97.1572 132.932 97.0294 132.302C96.9015 131.672 96.6082 131.088 96.1796 130.609C95.751 130.13 95.2025 129.773 94.5905 129.576C93.9786 129.379 93.3252 129.349 92.6976 129.488C92.5949 129.51 92.4936 129.535 92.3939 129.565C92.1528 129.636 91.9204 129.733 91.701 129.856C90.0273 130.79 89.3495 132.943 89.5906 134.845Z" fill="#F2F2F2"/>
<path d="M94.7966 139.563C94.5534 139.619 94.3093 139.669 94.0637 139.714H95.3913C95.5651 139.667 95.7381 139.617 95.9096 139.563C96.2867 139.445 96.6579 139.31 97.0234 139.157C98.5057 138.555 99.8218 137.606 100.861 136.39C101.361 135.795 101.769 135.128 102.071 134.413C102.4 133.604 102.609 132.751 102.691 131.882C102.842 130.085 102.721 128.276 102.334 126.515C101.97 124.7 101.382 122.937 100.584 121.266C100.489 121.066 100.389 120.867 100.287 120.669C100.28 120.653 100.269 120.638 100.256 120.627C100.242 120.615 100.226 120.607 100.209 120.603C100.174 120.596 100.138 120.603 100.108 120.623C100.073 120.643 100.047 120.676 100.035 120.715C100.024 120.755 100.027 120.797 100.046 120.833C100.869 122.438 101.492 124.137 101.903 125.892C102.326 127.615 102.512 129.387 102.455 131.159C102.425 132.807 101.911 134.411 100.976 135.769C100.067 136.992 98.8712 137.973 97.4941 138.626C96.6328 139.038 95.728 139.352 94.7966 139.563Z" fill="white"/>
<path d="M91.883 139.714H92.2744C92.3183 139.664 92.3606 139.613 92.4021 139.563C93.2936 138.479 93.8976 137.189 94.1581 135.81C94.4745 134.09 94.2284 132.313 93.4562 130.744C93.2408 130.304 92.9869 129.884 92.6976 129.488C92.5948 129.51 92.4935 129.535 92.3938 129.565C93.4993 131.017 94.0662 132.808 93.9977 134.631C93.9292 136.455 93.2295 138.198 92.0183 139.563C91.9745 139.613 91.9291 139.664 91.883 139.714Z" fill="white"/>
<path d="M191.37 47.0162L151.994 61.2968L134.942 14.2806L174.318 0L191.37 47.0162Z" fill="#F1F1F1"/>
<path d="M191.37 47.0162L151.994 61.2968L134.942 14.2806L174.318 0L191.37 47.0162Z" fill="#F1F1F1"/>
<path d="M174.479 22.8116L151.966 30.9764L152.353 32.0409L174.866 23.876L174.479 22.8116Z" fill="white"/>
<path d="M175.483 25.5792L152.97 33.744L153.356 34.8084L175.869 26.6436L175.483 25.5792Z" fill="white"/>
<path d="M176.487 28.3467L153.974 36.5115L154.36 37.5759L176.873 29.4111L176.487 28.3467Z" fill="white"/>
<path d="M150.386 33.0673C150.794 33.0673 151.125 32.7365 151.125 32.3284C151.125 31.9203 150.794 31.5895 150.386 31.5895C149.978 31.5895 149.647 31.9203 149.647 32.3284C149.647 32.7365 149.978 33.0673 150.386 33.0673Z" fill="white"/>
<path d="M170.155 10.8867L147.642 19.0515L148.028 20.1159L170.541 11.9511L170.155 10.8867Z" fill="white"/>
<path d="M171.158 13.6542L148.645 21.819L149.031 22.8834L171.544 14.7186L171.158 13.6542Z" fill="white"/>
<path d="M172.162 16.4217L149.649 24.5865L150.035 25.651L172.548 17.4862L172.162 16.4217Z" fill="white"/>
<path d="M146.019 21.0266C146.427 21.0266 146.758 20.6957 146.758 20.2876C146.758 19.8795 146.427 19.5487 146.019 19.5487C145.611 19.5487 145.28 19.8795 145.28 20.2876C145.28 20.6957 145.611 21.0266 146.019 21.0266Z" fill="white"/>
<path d="M178.846 34.8525L156.333 43.0173L156.719 44.0817L179.232 35.9169L178.846 34.8525Z" fill="white"/>
<path d="M179.85 37.62L157.337 45.7848L157.723 46.8492L180.236 38.6844L179.85 37.62Z" fill="white"/>
<path d="M180.854 40.3874L158.341 48.5522L158.727 49.6167L181.24 41.4518L180.854 40.3874Z" fill="white"/>
<path d="M154.711 44.9924C155.119 44.9924 155.45 44.6616 155.45 44.2535C155.45 43.8454 155.119 43.5145 154.711 43.5145C154.303 43.5145 153.972 43.8454 153.972 44.2535C153.972 44.6616 154.303 44.9924 154.711 44.9924Z" fill="white"/>
<path d="M193.177 61.2926H151.291V11.2799H193.177V61.2926Z" fill="white"/>
<path d="M193.177 61.2926H151.291V11.2799H193.177V61.2926ZM152.03 60.5537H192.438V12.0188H152.03V60.5537Z" fill="#E5E5E5"/>
<path d="M185.846 40H164.154C163.848 39.9996 163.555 39.878 163.338 39.6616C163.122 39.4453 163 39.1521 163 38.8461V17.1538C163 16.8479 163.122 16.5546 163.338 16.3383C163.555 16.122 163.848 16.0003 164.154 16H185.846C186.152 16.0003 186.445 16.122 186.662 16.3383C186.878 16.5546 187 16.8479 187 17.1538V38.8461C187 39.1521 186.878 39.4453 186.662 39.6616C186.445 39.878 186.152 39.9997 185.846 40ZM164.154 16.4615C163.97 16.4617 163.794 16.5347 163.665 16.6645C163.535 16.7943 163.462 16.9703 163.462 17.1538V38.8461C163.462 39.0297 163.535 39.2057 163.665 39.3355C163.794 39.4653 163.97 39.5382 164.154 39.5384H185.846C186.03 39.5382 186.206 39.4653 186.336 39.3355C186.465 39.2057 186.538 39.0297 186.538 38.8461V17.1539C186.538 16.9703 186.465 16.7943 186.336 16.6645C186.206 16.5347 186.03 16.4617 185.846 16.4615H164.154Z" fill="#E5E5E5"/>
<path d="M181.951 43H160.049C159.771 42.9997 159.504 42.8891 159.307 42.6925C159.111 42.496 159 42.2294 159 41.9514V20.0486C159 19.7706 159.111 19.504 159.307 19.3075C159.504 19.1109 159.771 19.0003 160.049 19H181.952C182.229 19.0003 182.496 19.1109 182.693 19.3075C182.889 19.504 183 19.7706 183 20.0486V41.9514C183 42.2294 182.889 42.496 182.693 42.6925C182.496 42.8891 182.229 42.9997 181.951 43Z" fill="#262338"/>
<path d="M186.884 46.5989H157.584V47.7311H186.884V46.5989Z" fill="#F1F1F1"/>
<path d="M186.884 49.551H157.584V50.6833H186.884V49.551Z" fill="#F1F1F1"/>
<path d="M186.884 52.5032H157.584V53.6354H186.884V52.5032Z" fill="#F1F1F1"/>
<path d="M56.428 136.775H59.5094L60.9756 124.889L56.4274 124.889L56.428 136.775Z" fill="#FFB8B8"/>
<path d="M55.6419 135.769L61.7106 135.769H61.7108C62.7365 135.769 63.7202 136.176 64.4455 136.902C65.1707 137.627 65.5782 138.611 65.5783 139.636V139.762L55.6421 139.762L55.6419 135.769Z" fill="#2F2E41"/>
<path d="M34.8462 134.665L37.8375 135.405L42.1162 124.219L37.7015 123.127L34.8462 134.665Z" fill="#FFB8B8"/>
<path d="M34.3249 133.499L40.2159 134.957L40.2162 134.957C41.2118 135.204 42.0687 135.835 42.5985 136.714C43.1283 137.592 43.2875 138.645 43.0412 139.64L43.011 139.762L33.3657 137.375L34.3249 133.499Z" fill="#2F2E41"/>
<path d="M46.2459 86.3459L43.5362 101.77C43.5362 101.77 42.494 103.646 42.9109 104.48C43.3278 105.314 43.5362 105.314 42.9109 105.73C42.2856 106.147 41.4518 105.73 41.6603 106.773C41.7852 107.391 41.8549 108.018 41.8687 108.649L36.0325 128.658C36.0325 128.658 32.2807 130.326 34.9903 131.368C37.7 132.41 40.4096 133.244 41.0349 132.202C41.6602 131.16 41.0349 129.909 41.0349 129.909L50.623 106.981C50.623 106.981 52.082 104.897 52.082 103.646C52.082 102.395 56.8761 93.4328 56.8761 93.4328C56.8761 93.4328 57.0845 102.395 57.2929 103.021C57.5014 103.646 56.8761 104.897 56.8761 105.73C56.8761 106.564 56.4592 106.564 56.8761 106.981C57.2929 107.398 57.2929 112.192 57.2929 112.192C57.2929 112.192 54.7917 130.743 56.2508 130.951C57.7098 131.16 61.8785 130.743 61.8785 129.909C61.8968 129.692 61.8462 129.474 61.734 129.287C61.6217 129.1 61.4536 128.953 61.2532 128.867L63.9629 113.026C63.8492 112.393 63.9216 111.742 64.1713 111.15C64.5882 110.316 64.5882 110.316 64.5882 109.899C64.5882 109.482 64.3798 109.274 64.5882 109.065C64.7243 108.885 64.7976 108.666 64.7966 108.44C64.7966 108.44 64.3797 107.19 64.5882 106.981C64.7966 106.773 69.3822 91.14 67.9232 89.264C66.4641 87.3881 46.2459 86.3459 46.2459 86.3459Z" fill="#2F2E41"/>
<path d="M55.5679 53.0609C58.5609 53.0609 60.9872 50.6346 60.9872 47.6416C60.9872 44.6486 58.5609 42.2223 55.5679 42.2223C52.5749 42.2223 50.1486 44.6486 50.1486 47.6416C50.1486 50.6346 52.5749 53.0609 55.5679 53.0609Z" fill="#FFB8B8"/>
<path d="M51.739 51.5661C52.0176 51.3793 52.0284 50.9517 51.935 50.6047C51.8009 50.272 51.7171 49.9212 51.6864 49.5637C51.7263 48.5967 53.0582 48.2088 53.1343 47.2465C53.1811 46.6547 52.7218 46.0003 52.9868 45.4879C53.1542 45.1643 53.5434 45.0564 53.8979 44.9942C55.2735 44.7566 56.6811 44.7755 58.0498 45.05L58.2495 44.5255L59.2638 45.1947C59.3192 44.8692 59.7698 44.8366 60.0643 44.9928C60.3588 45.149 60.6137 45.4188 60.935 45.4709C61.4472 45.5539 61.852 44.9993 61.825 44.4656C61.7487 43.9257 61.5063 43.4229 61.1314 43.0269C60.2784 41.9703 59.2435 41.0745 58.0756 40.3817L58.3571 39.8745L57.7543 40.1166L57.6882 39.51L57.1009 39.84L57.0926 39.2937C56.4638 40.0157 55.3689 39.9908 54.4077 40.0559C52.8009 40.1303 51.2572 40.7042 49.9921 41.6976C49.3605 42.2133 48.8432 42.8548 48.4732 43.5814C48.1032 44.308 47.8887 45.1036 47.8431 45.9177C47.7886 47.1927 48.2281 48.7444 49.1695 49.6899C50.0252 50.5492 51.2929 50.0277 51.739 51.5661Z" fill="#2F2E41"/>
<path d="M68.8656 100.222C68.5904 99.9635 68.3752 99.6483 68.235 99.298C68.0949 98.9478 68.0333 98.571 68.0545 98.1944C68.0757 97.8177 68.1792 97.4503 68.3578 97.118C68.5363 96.7857 68.7856 96.4965 69.088 96.271L67.6425 90.554L70.9025 88.8282L72.8304 96.9304C73.1756 97.4635 73.3133 98.1048 73.2174 98.7326C73.1215 99.3605 72.7985 99.9314 72.3098 100.337C71.8211 100.743 71.2006 100.955 70.5658 100.934C69.931 100.913 69.326 100.659 68.8656 100.222V100.222Z" fill="#FFB8B8"/>
<path fill-rule="evenodd" clip-rule="evenodd" d="M178.104 31.0009L181 27.9109L176.748 27.0293L177.181 22.9106L173.196 24.574L171 21L168.805 24.5736L164.821 22.909L165.253 27.0277L161.001 27.9088L163.896 30.9997L161 34.0895L165.252 34.9711L164.819 39.0896L168.804 37.426L171 41L173.195 37.4264L177.179 39.0908L176.747 34.9721L180.999 34.0912L178.104 31.0009ZM179.509 33.3253L177.001 32.5093L175.336 30.4521L177.55 31.2343L179.509 33.3253ZM172.789 36.9993L171.289 39.4421V36.8519L172.848 34.6878L172.789 36.9993ZM170.161 26.8721L167.58 25.9991L166.035 24.0159L168.742 25.1469L170.161 26.8721ZM173.259 25.1474L175.966 24.0171L174.42 25.999L171.84 26.8719L173.259 25.1474ZM176.156 27.1461L174.81 28.9614L174.886 26.3237L176.454 24.313L176.156 27.1461ZM171 36.2815L169.194 33.7753L171 31.4446L172.806 33.7753L171 36.2815ZM167.788 29.663L167.7 26.6223L170.712 27.6407V30.6L167.788 29.663ZM171.289 27.6407L174.3 26.6223L174.212 29.6632L171.289 30.6V27.6407ZM165.845 27.1449L165.548 24.3125L167.114 26.3235L167.19 28.9607L165.845 27.1449ZM170.533 31.122L168.728 33.4519L165.661 32.5919L167.608 30.1849L170.533 31.122ZM169.152 34.6875L170.712 36.8519V39.4426L169.21 36.9989L169.152 34.6875ZM171.467 31.122L174.392 30.1849L176.339 32.5919L173.272 33.452L171.467 31.122ZM179.912 28.2472L177.634 30.6786L174.947 29.7291L176.561 27.5522L179.912 28.2472ZM171 22.0881L172.729 24.9013L171 27.0019L169.273 24.9011L171 22.0881ZM162.089 28.245L165.44 27.5508L167.053 29.7288L164.367 30.6769L162.089 28.245ZM164.45 31.2329L166.664 30.4516L165 32.509L162.49 33.3239L164.45 31.2329ZM162.617 33.8628L165.182 33.03L167.853 33.7788L165.551 34.4713L162.617 33.8628ZM165.833 34.962L168.561 34.1412L168.63 36.8988L165.492 38.2094L165.833 34.962ZM173.368 36.8995L173.439 34.1413L176.166 34.9631L176.507 38.2106L173.368 36.8995ZM176.448 34.4723L174.147 33.779L176.819 33.03L179.383 33.8644L176.448 34.4723Z" fill="#DD1100"/>
<path d="M60.1528 92.823C53.5653 92.8235 47.5016 89.842 47.4197 89.8011L47.3517 89.7671L46.7989 76.5003C46.6386 76.0315 43.482 66.7807 42.9474 63.8404C42.4057 60.8614 50.2561 58.247 51.2094 57.9412L51.4258 55.5448L60.2231 54.5968L61.3381 57.6632L64.4942 58.8466C64.852 58.9809 65.1481 59.2417 65.3264 59.5798C65.5047 59.9178 65.5529 60.3094 65.4617 60.6806L63.7076 67.8139L67.158 91.4145L67.0694 91.4544C64.8871 92.3962 62.5293 92.8628 60.1528 92.823Z" fill="#DD1100"/>
<path d="M68.0176 94.3038L64.9646 81.7355L61.6556 66.5691L63.3353 59.0101H64.7714C64.7977 59.0101 67.4073 59.0492 67.9691 62.4202C68.5133 65.6852 70.1544 76.0765 70.1709 76.181L72.9444 93.9318L68.0176 94.3038Z" fill="#DD1100"/>
<path d="M109.366 140H0.286314C0.210383 140 0.137557 139.97 0.0838656 139.916C0.0301742 139.862 1.52588e-05 139.79 1.52588e-05 139.714C1.52588e-05 139.638 0.0301742 139.565 0.0838656 139.511C0.137557 139.458 0.210383 139.427 0.286314 139.427H109.366C109.442 139.427 109.515 139.458 109.568 139.511C109.622 139.565 109.652 139.638 109.652 139.714C109.652 139.79 109.622 139.862 109.568 139.916C109.515 139.97 109.442 140 109.366 140Z" fill="#CBCBCB"/>
<path d="M62.5975 111.194L34.5377 92.9231L57.0122 58.4081L85.0721 76.6794L62.5975 111.194Z" fill="white"/>
<path d="M62.5975 111.194L34.5377 92.9231L57.0122 58.4081L85.0721 76.6794L62.5975 111.194ZM35.3797 92.7452L62.4196 110.352L84.2301 76.8573L57.1901 59.2501L35.3797 92.7452Z" fill="#E5E5E5"/>
<path d="M54.4672 77.8796L53.9584 78.661L69.6388 88.8714L70.1476 88.09L54.4672 77.8796Z" fill="#DD1100"/>
<path d="M53.1444 79.9116L52.6355 80.693L68.3159 90.9034L68.8247 90.122L53.1444 79.9116Z" fill="#DD1100"/>
<path d="M51.8214 81.9428L51.3126 82.7242L66.993 92.9346L67.5018 92.1532L51.8214 81.9428Z" fill="#DD1100"/>
<path d="M52.7946 78.1184C53.1307 78.1184 53.4032 77.846 53.4032 77.5099C53.4032 77.1738 53.1307 76.9014 52.7946 76.9014C52.4585 76.9014 52.1861 77.1738 52.1861 77.5099C52.1861 77.846 52.4585 78.1184 52.7946 78.1184Z" fill="#DD1100"/>
<path d="M60.1676 69.1253L59.6588 69.9067L75.3392 80.1171L75.848 79.3357L60.1676 69.1253Z" fill="#E5E5E5"/>
<path d="M58.8447 71.157L58.3359 71.9384L74.0163 82.1487L74.5251 81.3673L58.8447 71.157Z" fill="#E5E5E5"/>
<path d="M57.5219 73.1889L57.013 73.9703L72.6934 84.1808L73.2023 83.3994L57.5219 73.1889Z" fill="#E5E5E5"/>
<path d="M58.5503 69.2791C58.8864 69.2791 59.1589 69.0066 59.1589 68.6706C59.1589 68.3345 58.8864 68.062 58.5503 68.062C58.2142 68.062 57.9418 68.3345 57.9418 68.6706C57.9418 69.0066 58.2142 69.2791 58.5503 69.2791Z" fill="#E5E5E5"/>
<path d="M48.7115 86.7188L48.2027 87.5002L63.8831 97.7106L64.3919 96.9292L48.7115 86.7188Z" fill="#E5E5E5"/>
<path d="M47.3886 88.7505L46.8798 89.5319L62.5602 99.7422L63.069 98.9608L47.3886 88.7505Z" fill="#E5E5E5"/>
<path d="M46.0657 90.7821L45.5569 91.5635L61.2373 101.774L61.7461 100.992L46.0657 90.7821Z" fill="#E5E5E5"/>
<path d="M47.0943 86.8727C47.4304 86.8727 47.7028 86.6003 47.7028 86.2642C47.7028 85.9281 47.4304 85.6556 47.0943 85.6556C46.7582 85.6556 46.4857 85.9281 46.4857 86.2642C46.4857 86.6003 46.7582 86.8727 47.0943 86.8727Z" fill="#E5E5E5"/>
<path d="M54.954 92.1799C54.9361 91.803 54.8359 91.4347 54.6603 91.1008C54.4847 90.7669 54.238 90.4756 53.9376 90.2473C53.6372 90.0191 53.2905 89.8595 52.9218 89.7798C52.553 89.7 52.1713 89.7021 51.8035 89.7859L48.3909 84.9767L44.9626 86.3377L49.8772 93.0615C50.0588 93.6701 50.4574 94.1909 50.9974 94.5253C51.5375 94.8597 52.1814 94.9843 52.8072 94.8757C53.4329 94.767 53.9971 94.4325 54.3928 93.9357C54.7885 93.4388 54.9881 92.8141 54.954 92.1799Z" fill="#FFB8B8"/>
<path d="M48.3031 91.8234L37.9774 78.4279L41.8463 66.2684C42.1299 63.2113 44.0428 62.3577 44.1242 62.3228L44.2484 62.2695L47.6151 71.2477L45.1432 77.8396L51.2105 88.044L48.3031 91.8234Z" fill="#DD1100"/>
<path d="M114.349 89.0388H112.631V89.6114H114.349V89.0388Z" fill="#CBCBCB"/>
<path d="M162.715 89.6114H159.26V89.0388H162.715V89.6114ZM155.805 89.6114H152.351V89.0388H155.805L155.805 89.6114ZM148.896 89.6114H145.441V89.0388H148.896V89.6114ZM141.987 89.6114H138.532V89.0388H141.987V89.6114ZM135.077 89.6114H131.623V89.0388H135.077V89.6114ZM128.168 89.6114H124.713V89.0388H128.168V89.6114ZM121.259 89.6114H117.804V89.0388H121.259V89.6114Z" fill="#CBCBCB"/>
<path d="M168.173 89.6115H166.169V89.0389H167.601V87.6074H168.173V89.6115Z" fill="#CBCBCB"/>
<path d="M168.173 84.1318H167.601V85.8696H168.173V84.1318Z" fill="#CBCBCB"/>
<path d="M168.173 80.676H167.601V82.3938H168.173V80.676Z" fill="#CBCBCB"/>
</g>
<defs>
<clipPath id="clip0">
<rect width="193.177" height="140" fill="white"/>
</clipPath>
</defs>
</svg>
