<svg width="208" height="140" viewBox="0 0 208 140" fill="none" xmlns="http://www.w3.org/2000/svg">
<g clip-path="url(#clip0)">
<path d="M134.667 32C138.349 32 141.333 29.0153 141.333 25.3334C141.333 21.6515 138.349 18.6667 134.667 18.6667C130.985 18.6667 128 21.6515 128 25.3334C128 29.0153 130.985 32 134.667 32Z" fill="#F2F2F2"/>
<path d="M169.333 85.3333C171.542 85.3333 173.333 83.5425 173.333 81.3333C173.333 79.1242 171.542 77.3333 169.333 77.3333C167.124 77.3333 165.333 79.1242 165.333 81.3333C165.333 83.5425 167.124 85.3333 169.333 85.3333Z" fill="#F2F2F2"/>
<path d="M161.659 74.5406L39.8246 0L-3.23356e-06 65.0923L121.834 139.633L161.659 74.5406Z" fill="#F2F2F2"/>
<g clip-path="url(#clip1)">
<path d="M114.205 65.5856C116.21 64.5361 118.657 66.9709 117.592 68.9819C116.973 70.6211 114.627 71.057 113.429 69.8075C112.159 68.6083 112.573 66.2381 114.205 65.5856ZM92.6375 67.9194C93.8555 67.4161 95.3975 68.5363 95.2733 69.8689C95.4025 71.3156 93.6403 72.3805 92.3987 71.6929C90.7538 71.0534 90.9419 68.3728 92.6375 67.9194ZM136.809 71.7335C134.906 71.5026 134.605 68.4984 136.437 67.8935C137.859 67.1977 139.163 68.5026 139.371 69.8551C139.073 71.0099 138.109 72.0674 136.809 71.7335ZM97.5447 77.1338C99.5812 75.8409 102.487 77.7664 102.174 80.1408C102.068 82.5383 98.8958 83.9272 97.1059 82.3065C95.3754 81.0334 95.6376 78.1128 97.5447 77.1338ZM128.632 78.5057C129.541 76.1553 133.222 76.0842 134.256 78.3723C135.278 80.1528 134.021 82.3577 132.2 82.9631C129.788 83.4151 127.496 80.7974 128.632 78.5057ZM111.607 82.8296C111.588 80.8094 113.421 79.3041 115.333 79.1665C116.602 79.4218 117.985 79.9644 118.529 81.2495C119.543 83.0222 118.643 85.4631 116.81 86.2767C115.972 86.7481 114.981 86.5713 114.068 86.5163C112.673 85.8288 111.498 84.4804 111.607 82.8296ZM79.5339 85.7734C81.3941 84.6254 83.9039 86.7204 83.1996 88.7489C82.8119 90.5036 80.4622 91.2175 79.119 90.0973C77.6852 89.0477 77.9124 86.5242 79.5339 85.7734ZM148.407 85.7697C149.986 84.5395 152.59 85.9507 152.402 87.951C152.508 89.775 150.256 91.1506 148.689 90.2113C146.964 89.4328 146.788 86.768 148.407 85.7697ZM120.627 89.4014C123.232 88.4622 126.325 89.5861 127.81 91.9171C129.768 94.7666 128.726 99.1062 125.687 100.741C122.538 102.675 117.941 101.036 116.778 97.5062C115.458 94.3464 117.381 90.3919 120.627 89.4014ZM105.346 89.7122C108.232 88.3444 112.117 89.4919 113.511 92.456C115.152 95.341 113.883 99.3584 110.95 100.848C108.013 102.522 103.869 101.253 102.448 98.1555C100.854 95.16 102.269 91.0915 105.346 89.7122ZM90.0449 94.9633C90.2643 93.0964 92.0188 91.8815 93.7888 91.7559C95.696 91.9868 97.2195 93.4737 97.427 95.4112C97.3019 97.3294 95.8253 99.2041 93.8003 99.1926C91.5726 99.3851 89.6194 97.1604 90.0449 94.9633ZM135.239 92.1618C137.526 90.8255 140.702 92.7709 140.6 95.4085C140.757 98.203 137.242 100.172 134.965 98.5332C132.599 97.1682 132.784 93.3241 135.239 92.1618ZM99.1271 102.011C101.802 101.272 104.861 102.538 106.172 105.006C107.61 107.49 107.022 110.942 104.79 112.764C101.928 115.436 96.6482 114.363 95.1247 110.716C93.3739 107.372 95.5005 102.891 99.1271 102.011ZM128.111 101.997C130.712 101.251 133.767 102.257 135.164 104.635C137.013 107.355 136.13 111.411 133.379 113.165C130.496 115.2 126.032 114.131 124.446 110.948C122.523 107.655 124.458 103.002 128.111 101.997ZM81.9227 105.1C84.2333 104.223 86.7945 106.783 85.8584 109.082C85.2867 111.177 82.3454 111.951 80.826 110.407C79.0481 108.957 79.7064 105.729 81.9227 105.1ZM144.552 108.437C144.485 106.516 145.886 104.814 147.849 104.707C149.431 104.959 150.97 106.24 150.845 107.97C150.99 110.254 148.248 111.806 146.31 110.733C145.401 110.269 144.935 109.334 144.552 108.437ZM70.5616 106.228C71.9517 105.619 73.6712 106.829 73.3538 108.378C73.2793 110.133 70.6987 110.808 69.7506 109.342C68.913 108.323 69.4144 106.753 70.5616 106.228ZM158.211 106.193C159.19 105.494 160.761 105.997 161.148 107.145C161.806 108.398 160.6 110.116 159.194 109.904C157.221 110.085 156.583 107.066 158.211 106.193ZM106.678 114.616C110.335 113.661 114.268 116.723 114.291 120.504C114.529 124.325 110.657 127.713 106.912 126.83C104.018 126.363 101.747 123.564 101.841 120.628C101.833 117.82 103.944 115.21 106.678 114.616ZM121.164 114.608C124.877 113.567 128.926 116.684 128.867 120.552C129.063 124.302 125.311 127.576 121.645 126.832C118.195 126.384 115.649 122.579 116.613 119.218C117.099 116.979 118.963 115.157 121.164 114.608ZM93.2332 116.936C95.8023 116.496 98.2108 119.373 97.1689 121.822C96.409 124.431 92.626 125.139 90.9534 123.007C88.9915 120.96 90.4561 117.218 93.2332 116.936ZM135.716 117.051C138.007 116.087 140.819 118.077 140.643 120.573C140.735 123.32 137.263 125.215 135.023 123.611C132.486 122.171 132.948 117.934 135.716 117.051ZM147.591 129.007C146.694 127.328 148.323 125.103 150.18 125.414C151.104 125.398 151.75 126.129 152.342 126.743C152.463 127.737 152.667 128.924 151.845 129.69C150.728 131.109 148.198 130.705 147.591 129.007ZM79.5261 125.881C81.2612 124.722 83.7581 126.451 83.368 128.488C83.1605 130.288 80.9006 131.318 79.412 130.296C77.8144 129.368 77.8733 126.727 79.5261 125.881ZM113.805 129.651C116.077 128.645 118.971 130.63 118.755 133.142C118.924 135.917 115.344 137.839 113.124 136.172C110.657 134.741 111.068 130.531 113.805 129.651ZM97.9284 133.369C99.8631 132.347 102.459 134.112 102.283 136.286C102.342 138.071 100.607 139.592 98.8525 139.328C97.3994 139.296 96.4518 137.989 95.9858 136.745C96.0097 135.39 96.5654 133.881 97.9284 133.369ZM130.089 133.401C132.078 132.166 134.906 133.939 134.718 136.264C134.769 138.693 131.573 140.249 129.721 138.653C127.927 137.402 128.146 134.395 130.089 133.401ZM135.682 147.28C134.796 145.936 135.838 144.316 137.275 144.01C138.431 144.246 139.653 145.118 139.41 146.463C139.241 148.282 136.59 148.841 135.682 147.28ZM91.2864 146.113C91.6388 145.047 92.4926 143.988 93.7419 144.265C95.5631 144.395 96.1036 147.151 94.5097 148C93.0763 148.97 91.4134 147.641 91.2864 146.113ZM112.704 147.335C113.053 145.759 115.085 144.992 116.425 145.829C117.31 146.211 117.569 147.205 117.796 148.05C117.674 148.49 117.566 148.931 117.459 149.371C116.911 150.023 116.206 150.676 115.293 150.652C113.597 150.852 112.067 148.927 112.704 147.335Z" fill="#3F3D56"/>
</g>
<path d="M177.563 105.852C179.005 105.852 180.173 104.683 180.173 103.242C180.173 101.801 179.005 100.633 177.563 100.633C176.122 100.633 174.954 101.801 174.954 103.242C174.954 104.683 176.122 105.852 177.563 105.852Z" fill="#FF6584"/>
<path d="M198.135 131.648V101.936" stroke="#3F3D56" stroke-width="2" stroke-miterlimit="10"/>
<path d="M198.135 106.138C200.455 106.138 202.336 104.257 202.336 101.936C202.336 99.6159 200.455 97.7347 198.135 97.7347C195.814 97.7347 193.933 99.6159 193.933 101.936C193.933 104.257 195.814 106.138 198.135 106.138Z" fill="#3F3D56"/>
<path d="M189.86 118.572C183.791 127.879 185.454 139.716 185.454 139.716C185.454 139.716 196.956 136.464 203.025 127.157C209.094 117.85 207.431 106.012 207.431 106.012C207.431 106.012 195.929 109.265 189.86 118.572Z" fill="#3F3D56"/>
<path d="M185.421 139.608C185.421 139.608 185.274 139.585 185.002 139.53C184.785 139.486 184.486 139.423 184.122 139.336C180.862 138.568 172.195 135.97 166.529 129.139C159.437 120.585 159.736 108.635 159.736 108.635C159.736 108.635 170.579 110.397 177.725 118.078C178.034 118.409 178.335 118.751 178.628 119.105C184.799 126.547 185.374 136.561 185.42 139.036C185.426 139.407 185.421 139.608 185.421 139.608Z" fill="#DD1100"/>
<path d="M181.048 118.572C187.117 127.879 185.454 139.716 185.454 139.716C185.454 139.716 173.951 136.464 167.882 127.157C161.813 117.85 163.476 106.012 163.476 106.012C163.476 106.012 174.979 109.265 181.048 118.572Z" stroke="#3F3D56" stroke-width="2" stroke-miterlimit="10"/>
<path opacity="0.1" d="M185.42 139.036C185.259 139.23 185.118 139.395 185.002 139.53C184.744 139.824 184.598 139.978 184.598 139.978C184.598 139.978 184.42 139.754 184.121 139.336C182.482 137.051 177.209 128.925 177.616 119.539C177.638 119.047 177.674 118.56 177.725 118.079C178.034 118.409 178.335 118.751 178.628 119.105C184.799 126.547 185.374 136.561 185.42 139.036Z" fill="black"/>
<path d="M194.419 120.218C193.939 131.318 185.699 139.978 185.699 139.978C185.699 139.978 178.236 130.64 178.716 119.539C179.195 108.438 187.436 99.7787 187.436 99.7787C187.436 99.7787 194.898 109.117 194.419 120.218Z" fill="#DD1100"/>
<path d="M185.699 139.663L187.51 100.231" stroke="#3F3D56" stroke-width="2" stroke-miterlimit="10"/>
<path d="M12.786 139.707H201.004" stroke="#3F3D56" stroke-width="2" stroke-miterlimit="10"/>
<path d="M52.761 91.618C58.0111 91.618 62.2673 87.3619 62.2673 82.1117C62.2673 76.8616 58.0111 72.6055 52.761 72.6055C47.5108 72.6055 43.2547 76.8616 43.2547 82.1117C43.2547 87.3619 47.5108 91.618 52.761 91.618Z" fill="#DD1100"/>
<path d="M36.6028 113.991C41.8529 113.991 46.109 109.735 46.109 104.485C46.109 99.2345 41.8529 94.9784 36.6028 94.9784C31.3526 94.9784 27.0965 99.2345 27.0965 104.485C27.0965 109.735 31.3526 113.991 36.6028 113.991Z" fill="#DD1100"/>
<path d="M16.7157 131.858C21.9659 131.858 26.222 127.602 26.222 122.352C26.222 117.102 21.9659 112.846 16.7157 112.846C11.4656 112.846 7.20946 117.102 7.20946 122.352C7.20946 127.602 11.4656 131.858 16.7157 131.858Z" fill="#DD1100"/>
<path d="M16.7073 139.544V122.3" stroke="#3F3D56" stroke-width="2" stroke-miterlimit="10"/>
<path d="M16.7073 124.738C18.0541 124.738 19.1458 123.646 19.1458 122.3C19.1458 120.953 18.0541 119.861 16.7073 119.861C15.3605 119.861 14.2687 120.953 14.2687 122.3C14.2687 123.646 15.3605 124.738 16.7073 124.738Z" fill="#3F3D56"/>
<path d="M16.7073 132.927C16.7073 132.927 16.3589 125.435 9.21746 126.306L16.7073 132.927Z" fill="#3F3D56"/>
<path d="M52.7669 139.665V82.1467" stroke="#3F3D56" stroke-width="2" stroke-miterlimit="10"/>
<path d="M52.7669 84.5579C54.1137 84.5579 55.2055 83.4661 55.2055 82.1194C55.2055 80.7726 54.1137 79.6808 52.7669 79.6808C51.4202 79.6808 50.3284 80.7726 50.3284 82.1194C50.3284 83.4661 51.4202 84.5579 52.7669 84.5579Z" fill="#3F3D56"/>
<path d="M45.2771 126.172C46.6239 126.172 47.7157 125.081 47.7157 123.734C47.7157 122.387 46.6239 121.295 45.2771 121.295C43.9304 121.295 42.8386 122.387 42.8386 123.734C42.8386 125.081 43.9304 126.172 45.2771 126.172Z" fill="#3F3D56"/>
<path d="M52.7669 94.5756C52.7669 94.5756 52.4186 87.083 45.2771 87.9539L52.7669 94.5756Z" fill="#3F3D56"/>
<path d="M52.7669 115.816C52.7669 115.816 52.4186 108.324 45.2771 109.195L52.7669 115.816Z" fill="#3F3D56"/>
<path d="M52.7669 138.994C52.7669 138.994 54.3346 124.431 45.2771 123.734" stroke="#3F3D56" stroke-width="2" stroke-miterlimit="10"/>
<path d="M60.2578 126.172C61.6046 126.172 62.6964 125.081 62.6964 123.734C62.6964 122.387 61.6046 121.295 60.2578 121.295C58.9111 121.295 57.8193 122.387 57.8193 123.734C57.8193 125.081 58.9111 126.172 60.2578 126.172Z" fill="#3F3D56"/>
<path d="M52.768 138.994C52.768 138.994 51.2004 124.431 60.2578 123.734" stroke="#3F3D56" stroke-width="2" stroke-miterlimit="10"/>
<path d="M60.4064 103.298C61.7532 103.298 62.8449 102.206 62.8449 100.859C62.8449 99.5127 61.7532 98.4209 60.4064 98.4209C59.0596 98.4209 57.9678 99.5127 57.9678 100.859C57.9678 102.206 59.0596 103.298 60.4064 103.298Z" fill="#3F3D56"/>
<path d="M52.9165 115.343C52.9165 115.343 51.3489 101.556 60.4064 100.859" stroke="#3F3D56" stroke-width="2" stroke-miterlimit="10"/>
<path d="M36.6114 139.584V104.474" stroke="#3F3D56" stroke-width="2" stroke-miterlimit="10"/>
<path d="M36.6114 106.912C37.9582 106.912 39.05 105.821 39.05 104.474C39.05 103.127 37.9582 102.035 36.6114 102.035C35.2647 102.035 34.1729 103.127 34.1729 104.474C34.1729 105.821 35.2647 106.912 36.6114 106.912Z" fill="#3F3D56"/>
<path d="M36.6114 114.405C36.6114 114.405 36.2631 106.913 29.1216 107.784L36.6114 114.405Z" fill="#3F3D56"/>
<path d="M36.6114 138.913C36.6114 138.913 38.1791 124.505 29.1216 123.808" stroke="#3F3D56" stroke-width="2" stroke-miterlimit="10"/>
<path d="M29.1216 126.247C30.4684 126.247 31.5602 125.155 31.5602 123.808C31.5602 122.461 30.4684 121.37 29.1216 121.37C27.7748 121.37 26.6831 122.461 26.6831 123.808C26.6831 125.155 27.7748 126.247 29.1216 126.247Z" fill="#3F3D56"/>
<path opacity="0.1" d="M128.148 111.45C123.04 113.773 116.461 113.608 116.461 113.608H109.342V112.249C112.243 111.439 116.254 110.939 120.688 110.939C123.184 110.93 125.677 111.101 128.148 111.45Z" fill="black"/>
<path opacity="0.1" d="M136.706 115.388C136.706 117.847 129.534 119.838 120.688 119.838C111.843 119.838 104.67 117.847 104.67 115.388C104.67 114.162 106.454 113.052 109.342 112.249V113.608H116.461C116.461 113.608 123.04 113.773 128.148 111.45C133.236 112.194 136.706 113.677 136.706 115.388Z" fill="black"/>
<path d="M122.734 87.6835H115.919V94.5112H122.734V87.6835Z" fill="#2F2E41"/>
<path d="M118.453 92.5119C118.453 92.5119 119.017 94.4863 118.03 94.6274C117.417 94.7229 116.837 94.9647 116.338 95.3325L118.171 97.7301H121.556L123.671 95.6146C123.671 95.6146 120.851 93.4991 121.415 92.2298C121.979 90.9605 118.453 92.5119 118.453 92.5119Z" fill="#FFB9B9"/>
<path opacity="0.1" d="M118.453 92.5119C118.453 92.5119 119.017 94.4863 118.03 94.6274C117.417 94.7229 116.837 94.9647 116.338 95.3325L118.171 97.7301H121.556L123.671 95.6146C123.671 95.6146 120.851 93.4991 121.415 92.2298C121.979 90.9605 118.453 92.5119 118.453 92.5119Z" fill="black"/>
<path d="M119.299 117.052L122.543 118.18L124.8 118.321L124.659 116.346L120.005 114.97L119.299 117.052Z" fill="#FFB9B9"/>
<path d="M123.46 116.629C123.46 116.629 123.46 118.603 123.742 118.603C124.024 118.603 127.832 118.18 128.96 118.603C130.088 119.026 131.781 117.475 130.935 116.629C130.088 115.782 128.708 114.513 127.847 114.795C126.986 115.077 123.46 115.782 123.46 115.782L123.46 116.629Z" fill="#2F2E41"/>
<path d="M113.094 114.795C113.094 114.795 111.401 118.18 112.53 118.462C113.658 118.744 114.927 118.321 115.068 118.18C115.209 118.039 117.184 117.475 117.466 117.757C117.748 118.039 117.748 116.629 117.748 116.629L113.094 114.795Z" fill="#2F2E41"/>
<path d="M114.504 110.141C114.504 110.141 111.825 113.808 113.799 114.795C115.773 115.782 125.223 115.782 125.928 114.795C126.633 113.808 126.915 110.705 125.928 110.423C124.941 110.141 114.504 110.141 114.504 110.141Z" fill="#2F2E41"/>
<path opacity="0.2" d="M114.504 110.141C114.504 110.141 111.825 113.808 113.799 114.795C115.773 115.782 125.223 115.782 125.928 114.795C126.633 113.808 126.915 110.705 125.928 110.423C124.941 110.141 114.504 110.141 114.504 110.141Z" fill="black"/>
<path d="M119.581 93.499C121.373 93.499 122.825 92.0468 122.825 90.2553C122.825 88.4638 121.373 87.0115 119.581 87.0115C117.79 87.0115 116.338 88.4638 116.338 90.2553C116.338 92.0468 117.79 93.499 119.581 93.499Z" fill="#FFB9B9"/>
<path d="M114.504 95.3325L117.325 94.7684C117.325 94.7684 118.03 97.0249 120.287 96.6018C122.543 96.1787 123.107 94.7684 123.107 94.7684C123.107 94.7684 124.8 95.4735 124.941 95.4735C125.082 95.4735 126.915 96.1787 126.915 96.6018C126.915 97.0249 124.8 101.256 124.8 101.256L125.082 108.872L114.645 108.59L115.35 101.115L114.504 95.3325Z" fill="#DD1100"/>
<path d="M112.953 98.9994C112.953 98.9994 112.107 106.474 112.671 107.038C113.235 107.602 115.491 109.154 115.491 109.154V107.461L114.363 105.346L115.491 100.41L112.953 98.9994Z" fill="#FFB9B9"/>
<path d="M127.55 98.7878C127.55 98.7878 127.056 106.474 127.056 106.756C127.056 107.038 125.787 108.026 125.364 108.026C124.941 108.026 124.659 107.32 124.659 107.32L125.646 106.192L124.941 100.41L127.55 98.7878Z" fill="#FFB9B9"/>
<path d="M126.21 109.577C126.21 109.577 132.556 106.051 132.697 109.577C132.839 113.103 129.454 114.513 129.454 114.513C129.454 114.513 120.71 117.135 120.357 116.177C120.005 115.218 119.299 113.667 119.863 113.526C120.428 113.385 121.133 113.103 121.415 113.385C121.697 113.667 125.223 111.269 125.223 111.269L126.21 109.577Z" fill="#2F2E41"/>
<path opacity="0.2" d="M129.172 109.154C129.172 109.154 127.902 109.718 127.479 110.141C127.056 110.564 125.223 111.269 125.223 111.269" stroke="black" stroke-width="2" stroke-miterlimit="10"/>
<path d="M115.35 95.6145L114.504 95.3324C114.504 95.3324 111.402 98.5762 112.389 99.4224C113.376 100.269 113.94 100.551 114.222 100.833C114.504 101.115 115.915 101.256 115.915 101.256L115.35 95.6145Z" fill="#DD1100"/>
<path d="M125.646 96.3197L126.915 96.6018C126.915 96.6018 127.902 98.7173 128.184 98.9993C128.467 99.2814 127.761 99.1404 127.338 99.7045C126.915 100.269 126.492 101.256 125.646 101.256C124.8 101.256 123.671 99.8455 123.671 99.8455L125.646 96.3197Z" fill="#DD1100"/>
<path d="M114.786 110.846C114.786 110.846 109.427 107.038 107.594 109.859C105.76 112.68 115.491 116.488 116.902 117.052C118.312 117.616 119.581 118.18 119.581 118.18C119.581 118.18 120.851 115.077 120.851 114.513C120.851 113.949 119.864 113.949 119.581 113.949C119.299 113.949 118.03 113.667 117.748 113.244C117.466 112.821 114.786 110.846 114.786 110.846Z" fill="#2F2E41"/>
<path opacity="0.2" d="M111.825 109.859C111.825 109.859 113.235 110.987 114.504 111.269C115.773 111.551 116.197 112.257 116.197 112.257" stroke="black" stroke-width="2" stroke-miterlimit="10"/>
<path d="M113.813 104.556L113.926 110.528C113.93 110.725 114.011 110.913 114.153 111.05C114.294 111.187 114.485 111.263 114.682 111.261L125.794 111.136C125.984 111.134 126.165 111.06 126.302 110.929C126.439 110.799 126.521 110.621 126.532 110.432L126.87 104.585C126.875 104.484 126.86 104.382 126.826 104.286C126.791 104.19 126.737 104.103 126.667 104.029C126.597 103.955 126.513 103.896 126.419 103.856C126.326 103.815 126.225 103.795 126.123 103.795H114.561C114.461 103.795 114.363 103.814 114.271 103.853C114.18 103.891 114.097 103.948 114.027 104.019C113.958 104.089 113.903 104.174 113.866 104.266C113.829 104.358 113.812 104.457 113.813 104.556Z" fill="#575A89"/>
<path d="M112.528 95.368C112.831 94.7001 113.237 94.0734 113.431 93.3662C113.664 92.5186 113.573 91.6218 113.545 90.7434C113.501 89.9665 113.568 89.1873 113.742 88.429C113.919 87.6671 114.317 86.9743 114.886 86.4373C116.364 85.1179 119.069 85.0231 120.874 85.5724C121.585 85.7889 122.343 86.2013 122.519 86.9238C122.546 87.0328 122.558 87.1452 122.588 87.2535C122.736 87.7914 123.286 88.1318 123.484 88.6531C123.741 89.3273 123.345 90.0606 123.293 90.7802C123.233 91.6204 123.646 92.4142 124.053 93.1516C124.295 93.59 124.547 94.057 124.523 94.5572C124.503 94.8307 124.42 95.096 124.28 95.332C124.02 95.7599 123.657 96.1149 123.222 96.3638C122.788 96.6126 122.298 96.7471 121.798 96.7547C121.473 96.7807 121.147 96.704 120.868 96.5352C120.428 96.2319 120.299 95.6213 120.39 95.0944C120.482 94.5676 120.75 94.0911 120.959 93.5991C121.023 93.4482 121.081 93.2946 121.135 93.1396C121.785 92.7769 122.285 92.1962 122.549 91.5002C122.812 90.8042 122.821 90.0376 122.573 89.3357C122.326 88.6338 121.839 88.0418 121.198 87.6643C120.557 87.2868 119.803 87.148 119.069 87.2725C118.335 87.3969 117.669 87.7766 117.188 88.3444C116.707 88.9123 116.443 89.6318 116.441 90.3759C116.439 91.1201 116.7 91.8409 117.178 92.4112C117.656 92.9815 118.32 93.3645 119.053 93.4927C119.211 94.2886 119.139 95.1131 118.846 95.8698C118.58 96.4854 118.245 97.0692 117.848 97.6102C117.686 97.8875 117.47 98.1295 117.212 98.3218C117.042 98.4223 116.86 98.5001 116.67 98.5532C115.874 98.8094 115.035 99.0155 114.206 98.9003C113.377 98.785 112.556 98.2851 112.274 97.4974C112.027 96.8072 112.225 96.0359 112.528 95.368Z" fill="#2F2E41"/>
<path d="M119.424 90.3846C121.325 90.3846 122.867 89.5112 122.867 88.4339C122.867 87.3565 121.325 86.4832 119.424 86.4832C117.523 86.4832 115.982 87.3565 115.982 88.4339C115.982 89.5112 117.523 90.3846 119.424 90.3846Z" fill="#2F2E41"/>
<path d="M14.6712 100.009C16.8828 100.009 18.6757 98.2162 18.6757 96.0045C18.6757 93.7929 16.8828 92 14.6712 92C12.4596 92 10.6667 93.7929 10.6667 96.0045C10.6667 98.2162 12.4596 100.009 14.6712 100.009Z" fill="#F2F2F2"/>
<g clip-path="url(#clip2)">
<path d="M134.568 21.3568C134.743 21.2584 134.956 21.4867 134.863 21.6752C134.809 21.8289 134.605 21.8697 134.501 21.7526C134.391 21.6402 134.427 21.418 134.568 21.3568ZM132.693 21.5756C132.799 21.5284 132.933 21.6334 132.922 21.7584C132.934 21.894 132.78 21.9938 132.672 21.9294C132.529 21.8694 132.546 21.6181 132.693 21.5756ZM136.534 21.9332C136.369 21.9115 136.342 21.6299 136.502 21.5732C136.625 21.5079 136.739 21.6303 136.757 21.7571C136.731 21.8653 136.647 21.9645 136.534 21.9332ZM133.12 22.4394C133.297 22.3182 133.55 22.4988 133.522 22.7213C133.513 22.9461 133.237 23.0763 133.082 22.9244C132.931 22.805 132.954 22.5312 133.12 22.4394ZM135.823 22.5681C135.902 22.3477 136.222 22.341 136.312 22.5555C136.401 22.7225 136.292 22.9292 136.133 22.9859C135.924 23.0283 135.724 22.7829 135.823 22.5681ZM134.343 22.9734C134.341 22.784 134.5 22.6429 134.667 22.63C134.777 22.6539 134.897 22.7048 134.945 22.8253C135.033 22.9915 134.954 23.2203 134.795 23.2966C134.722 23.3408 134.636 23.3242 134.557 23.3191C134.435 23.2546 134.333 23.1282 134.343 22.9734ZM131.554 23.2494C131.715 23.1418 131.934 23.3382 131.872 23.5284C131.839 23.6929 131.634 23.7598 131.518 23.6548C131.393 23.5564 131.413 23.3198 131.554 23.2494ZM137.543 23.2491C137.68 23.1337 137.906 23.266 137.89 23.4536C137.899 23.6246 137.703 23.7535 137.567 23.6655C137.417 23.5925 137.402 23.3426 137.543 23.2491ZM135.127 23.5895C135.353 23.5015 135.622 23.6068 135.752 23.8254C135.922 24.0925 135.831 24.4994 135.567 24.6526C135.293 24.8339 134.893 24.6803 134.792 24.3494C134.677 24.0531 134.845 23.6824 135.127 23.5895ZM133.798 23.6187C134.049 23.4904 134.387 23.598 134.508 23.8759C134.651 24.1464 134.541 24.523 134.285 24.6626C134.03 24.8196 133.67 24.7006 133.546 24.4102C133.408 24.1294 133.531 23.748 133.798 23.6187ZM132.468 24.111C132.487 23.9359 132.639 23.822 132.793 23.8103C132.959 23.8319 133.092 23.9713 133.11 24.153C133.099 24.3328 132.97 24.5085 132.794 24.5075C132.6 24.5255 132.431 24.3169 132.468 24.111ZM136.398 23.8483C136.596 23.723 136.873 23.9054 136.864 24.1527C136.877 24.4147 136.572 24.5993 136.374 24.4456C136.168 24.3177 136.184 23.9573 136.398 23.8483ZM133.257 24.7717C133.49 24.7024 133.756 24.8211 133.87 25.0525C133.995 25.2854 133.944 25.6089 133.75 25.7797C133.501 26.0303 133.042 25.9297 132.909 25.5878C132.757 25.2743 132.942 24.8542 133.257 24.7717ZM135.778 24.7704C136.004 24.7004 136.27 24.7947 136.391 25.0177C136.552 25.2726 136.475 25.6529 136.236 25.8173C135.985 26.0082 135.597 25.908 135.459 25.6095C135.292 25.3008 135.46 24.8646 135.778 24.7704ZM131.761 25.0613C131.962 24.9791 132.185 25.219 132.104 25.4346C132.054 25.631 131.798 25.7036 131.666 25.5588C131.511 25.4228 131.569 25.1203 131.761 25.0613ZM137.207 25.3742C137.202 25.194 137.323 25.0344 137.494 25.0245C137.632 25.0481 137.765 25.1682 137.755 25.3303C137.767 25.5444 137.529 25.69 137.36 25.5894C137.281 25.5459 137.241 25.4582 137.207 25.3742ZM130.773 25.1671C130.894 25.11 131.044 25.2233 131.016 25.3686C131.01 25.5331 130.785 25.5964 130.703 25.4589C130.63 25.3635 130.674 25.2163 130.773 25.1671ZM138.395 25.1638C138.48 25.0982 138.617 25.1453 138.651 25.2529C138.708 25.3705 138.603 25.5315 138.481 25.5117C138.309 25.5286 138.254 25.2455 138.395 25.1638ZM133.914 25.9534C134.232 25.8639 134.574 26.151 134.576 26.5054C134.597 26.8636 134.26 27.1812 133.934 27.0985C133.683 27.0546 133.485 26.7923 133.493 26.517C133.493 26.2538 133.676 26.0091 133.914 25.9534ZM135.174 25.9527C135.496 25.855 135.849 26.1472 135.843 26.5099C135.861 26.8614 135.534 27.1684 135.215 27.0986C134.915 27.0566 134.694 26.6999 134.778 26.3849C134.82 26.1749 134.982 26.0042 135.174 25.9527ZM132.745 26.1709C132.968 26.1296 133.178 26.3994 133.087 26.6289C133.021 26.8736 132.692 26.9399 132.547 26.7401C132.376 26.5482 132.503 26.1974 132.745 26.1709ZM136.439 26.1817C136.638 26.0913 136.883 26.2778 136.867 26.5118C136.875 26.7694 136.574 26.947 136.379 26.7967C136.158 26.6617 136.198 26.2645 136.439 26.1817ZM137.472 27.3025C137.394 27.1452 137.535 26.9366 137.697 26.9657C137.777 26.9642 137.833 27.0328 137.885 27.0903C137.895 27.1835 137.913 27.2948 137.842 27.3666C137.744 27.4997 137.524 27.4617 137.472 27.3025ZM131.553 27.0095C131.704 26.9008 131.921 27.0629 131.887 27.2539C131.869 27.4227 131.672 27.5192 131.543 27.4234C131.404 27.3364 131.409 27.0888 131.553 27.0095ZM134.534 27.3629C134.731 27.2686 134.983 27.4547 134.964 27.6902C134.979 27.9504 134.668 28.1305 134.474 27.9743C134.26 27.8401 134.296 27.4455 134.534 27.3629ZM133.153 27.7115C133.321 27.6157 133.547 27.7812 133.532 27.9849C133.537 28.1523 133.386 28.2949 133.234 28.2701C133.107 28.2672 133.025 28.1446 132.984 28.028C132.986 27.901 133.035 27.7594 133.153 27.7115ZM135.95 27.7145C136.123 27.5987 136.369 27.7649 136.352 27.9829C136.357 28.2106 136.079 28.3565 135.918 28.2069C135.762 28.0896 135.781 27.8077 135.95 27.7145ZM136.436 29.0156C136.359 28.8896 136.45 28.7378 136.575 28.7091C136.675 28.7312 136.781 28.8129 136.76 28.939C136.746 29.1096 136.515 29.162 136.436 29.0156ZM132.576 28.9062C132.606 28.8063 132.68 28.7071 132.789 28.733C132.947 28.7452 132.994 29.0035 132.856 29.0831C132.731 29.1741 132.587 29.0495 132.576 28.9062ZM134.438 29.0208C134.468 28.873 134.645 28.8012 134.762 28.8797C134.839 28.9154 134.861 29.0086 134.881 29.0878C134.87 29.1291 134.861 29.1704 134.851 29.2116C134.804 29.2728 134.743 29.334 134.663 29.3318C134.516 29.3505 134.383 29.17 134.438 29.0208Z" fill="#DD1100"/>
</g>
<g clip-path="url(#clip3)">
<path d="M169.268 78.6823C169.384 78.6167 169.526 78.7689 169.464 78.8946C169.428 78.997 169.292 79.0242 169.223 78.9462C169.149 78.8712 169.173 78.7231 169.268 78.6823ZM168.018 78.8281C168.088 78.7967 168.178 78.8667 168.17 78.95C168.178 79.0404 168.076 79.107 168.004 79.064C167.908 79.024 167.919 78.8565 168.018 78.8281ZM170.578 79.0665C170.468 79.0521 170.45 78.8643 170.557 78.8265C170.639 78.783 170.715 78.8646 170.727 78.9491C170.71 79.0213 170.654 79.0874 170.578 79.0665ZM168.302 79.404C168.42 79.3232 168.589 79.4436 168.57 79.592C168.564 79.7418 168.38 79.8286 168.277 79.7273C168.176 79.6478 168.192 79.4652 168.302 79.404ZM170.104 79.4898C170.157 79.3429 170.37 79.3384 170.43 79.4814C170.49 79.5927 170.417 79.7305 170.311 79.7684C170.171 79.7966 170.038 79.633 170.104 79.4898ZM169.117 79.76C169.116 79.6338 169.222 79.5397 169.333 79.5311C169.407 79.547 169.487 79.581 169.519 79.6613C169.577 79.7721 169.525 79.9246 169.419 79.9755C169.37 80.0049 169.313 79.9939 169.26 79.9905C169.179 79.9475 169.111 79.8632 169.117 79.76ZM167.258 79.944C167.366 79.8723 167.511 80.0032 167.47 80.13C167.448 80.2397 167.312 80.2843 167.234 80.2143C167.151 80.1487 167.164 79.9909 167.258 79.944ZM171.251 79.9438C171.342 79.8669 171.493 79.9551 171.482 80.0801C171.488 80.1941 171.358 80.2801 171.267 80.2214C171.167 80.1727 171.157 80.0062 171.251 79.9438ZM169.64 80.1708C169.791 80.1121 169.971 80.1823 170.057 80.328C170.17 80.5061 170.11 80.7773 169.934 80.8795C169.751 81.0004 169.484 80.8979 169.417 80.6773C169.341 80.4798 169.452 80.2327 169.64 80.1708ZM168.754 80.1902C168.922 80.1047 169.147 80.1764 169.228 80.3617C169.323 80.542 169.249 80.7931 169.079 80.8862C168.909 80.9908 168.669 80.9115 168.586 80.7179C168.494 80.5307 168.576 80.2764 168.754 80.1902ZM167.867 80.5184C167.88 80.4017 167.982 80.3258 168.084 80.3179C168.195 80.3324 168.283 80.4253 168.295 80.5464C168.288 80.6663 168.202 80.7834 168.085 80.7827C167.956 80.7948 167.843 80.6557 167.867 80.5184ZM170.487 80.3433C170.62 80.2598 170.804 80.3814 170.798 80.5462C170.807 80.7209 170.603 80.844 170.471 80.7415C170.334 80.6562 170.345 80.4159 170.487 80.3433ZM168.394 80.9589C168.549 80.9127 168.726 80.9918 168.802 81.1461C168.886 81.3013 168.851 81.517 168.722 81.6309C168.556 81.798 168.25 81.7309 168.162 81.5029C168.06 81.2939 168.184 81.0139 168.394 80.9589ZM170.074 80.958C170.225 80.9113 170.402 80.9742 170.483 81.1229C170.59 81.2928 170.539 81.5464 170.379 81.656C170.212 81.7832 169.953 81.7164 169.862 81.5174C169.75 81.3116 169.862 81.0208 170.074 80.958ZM167.396 81.152C167.53 81.0971 167.679 81.2571 167.625 81.4008C167.591 81.5317 167.421 81.5801 167.333 81.4836C167.23 81.393 167.268 81.1913 167.396 81.152ZM171.027 81.3605C171.023 81.2404 171.104 81.134 171.218 81.1274C171.31 81.1431 171.399 81.2232 171.392 81.3313C171.4 81.474 171.241 81.5711 171.129 81.504C171.076 81.475 171.049 81.4165 171.027 81.3605ZM166.738 81.2225C166.818 81.1844 166.918 81.26 166.9 81.3568C166.895 81.4665 166.746 81.5087 166.691 81.417C166.642 81.3534 166.671 81.2553 166.738 81.2225ZM171.819 81.2203C171.876 81.1765 171.967 81.208 171.989 81.2797C172.027 81.3581 171.957 81.4654 171.876 81.4522C171.762 81.4635 171.725 81.2748 171.819 81.2203ZM168.832 81.7467C169.044 81.687 169.272 81.8784 169.273 82.1147C169.287 82.3535 169.062 82.5652 168.845 82.5101C168.677 82.4808 168.546 82.3059 168.551 82.1224C168.551 81.9469 168.673 81.7838 168.832 81.7467ZM169.671 81.7462C169.887 81.6811 170.121 81.8759 170.118 82.1177C170.129 82.352 169.912 82.5567 169.699 82.5102C169.499 82.4822 169.352 82.2444 169.407 82.0343C169.436 81.8943 169.544 81.7805 169.671 81.7462ZM168.052 81.8917C168.201 81.8642 168.341 82.044 168.28 82.197C168.236 82.3601 168.017 82.4044 167.92 82.2711C167.806 82.1432 167.891 81.9093 168.052 81.8917ZM170.515 81.8988C170.648 81.8386 170.811 81.963 170.801 82.119C170.806 82.2907 170.605 82.4091 170.475 82.3089C170.328 82.2189 170.354 81.9541 170.515 81.8988ZM171.203 82.6461C171.151 82.5412 171.246 82.4021 171.353 82.4216C171.407 82.4206 171.444 82.4663 171.479 82.5046C171.486 82.5668 171.498 82.6409 171.45 82.6888C171.385 82.7775 171.238 82.7522 171.203 82.6461ZM167.258 82.4508C167.358 82.3783 167.503 82.4864 167.48 82.6137C167.468 82.7262 167.337 82.7905 167.251 82.7267C167.158 82.6687 167.162 82.5036 167.258 82.4508ZM169.245 82.6864C169.376 82.6235 169.544 82.7476 169.532 82.9045C169.541 83.078 169.334 83.1981 169.205 83.0939C169.062 83.0045 169.086 82.7414 169.245 82.6864ZM168.324 82.9188C168.436 82.8549 168.587 82.9652 168.577 83.101C168.58 83.2126 168.48 83.3076 168.378 83.2912C168.294 83.2892 168.239 83.2075 168.212 83.1298C168.213 83.0451 168.245 82.9507 168.324 82.9188ZM170.189 82.9207C170.304 82.8436 170.468 82.9544 170.457 83.0997C170.46 83.2515 170.275 83.3487 170.167 83.249C170.063 83.1708 170.076 82.9829 170.189 82.9207ZM170.513 83.7882C170.462 83.7042 170.522 83.6029 170.605 83.5838C170.672 83.5985 170.743 83.653 170.729 83.7371C170.719 83.8508 170.566 83.8857 170.513 83.7882ZM167.939 83.7152C167.96 83.6486 168.009 83.5825 168.082 83.5998C168.187 83.6079 168.219 83.7801 168.126 83.8332C168.043 83.8938 167.947 83.8108 167.939 83.7152ZM169.181 83.7916C169.201 83.6931 169.319 83.6452 169.397 83.6975C169.448 83.7214 169.463 83.7835 169.476 83.8363C169.469 83.8638 169.463 83.8913 169.457 83.9188C169.425 83.9596 169.384 84.0004 169.331 83.9989C169.233 84.0114 169.144 83.8911 169.181 83.7916Z" fill="#DD1100"/>
</g>
<g clip-path="url(#clip4)">
<path d="M14.6012 93.3489C14.7174 93.2833 14.8593 93.4355 14.7976 93.5612C14.7617 93.6636 14.6257 93.6909 14.5562 93.6128C14.4826 93.5378 14.5066 93.3897 14.6012 93.3489ZM13.3509 93.4948C13.4215 93.4633 13.5109 93.5333 13.5037 93.6166C13.5112 93.707 13.4091 93.7736 13.3371 93.7306C13.2417 93.6906 13.2526 93.5231 13.3509 93.4948ZM15.9116 93.7332C15.8013 93.7187 15.7838 93.531 15.8901 93.4932C15.9725 93.4497 16.0481 93.5312 16.0601 93.6158C16.0428 93.6879 15.987 93.754 15.9116 93.7332ZM13.6354 94.0707C13.7535 93.9899 13.9219 94.1102 13.9038 94.2586C13.8976 94.4085 13.7137 94.4953 13.61 94.394C13.5097 94.3144 13.5249 94.1319 13.6354 94.0707ZM15.4376 94.1564C15.4902 94.0095 15.7037 94.0051 15.7636 94.1481C15.8229 94.2594 15.75 94.3972 15.6444 94.435C15.5046 94.4633 15.3717 94.2996 15.4376 94.1564ZM14.4506 94.4267C14.4495 94.3004 14.5558 94.2063 14.6666 94.1977C14.7402 94.2137 14.8203 94.2476 14.8519 94.3279C14.9107 94.4387 14.8585 94.5913 14.7522 94.6421C14.7037 94.6716 14.6462 94.6605 14.5933 94.6571C14.5124 94.6141 14.4443 94.5298 14.4506 94.4267ZM12.5913 94.6106C12.6991 94.5389 12.8446 94.6698 12.8038 94.7966C12.7813 94.9063 12.6451 94.9509 12.5673 94.8809C12.4841 94.8153 12.4973 94.6576 12.5913 94.6106ZM16.584 94.6104C16.6755 94.5335 16.8265 94.6217 16.8155 94.7467C16.8217 94.8607 16.6911 94.9467 16.6003 94.888C16.5003 94.8394 16.4901 94.6728 16.584 94.6104ZM14.9735 94.8374C15.1245 94.7787 15.3038 94.8489 15.3899 94.9946C15.5034 95.1727 15.443 95.4439 15.2669 95.5461C15.0843 95.667 14.8178 95.5646 14.7504 95.3439C14.6738 95.1465 14.7853 94.8993 14.9735 94.8374ZM14.0877 94.8568C14.255 94.7713 14.4802 94.8431 14.561 95.0283C14.6561 95.2086 14.5826 95.4597 14.4125 95.5528C14.2423 95.6575 14.0021 95.5781 13.9197 95.3845C13.8273 95.1973 13.9093 94.943 14.0877 94.8568ZM13.2006 95.185C13.2134 95.0683 13.3151 94.9924 13.4177 94.9846C13.5282 94.999 13.6166 95.0919 13.6286 95.213C13.6213 95.3329 13.5357 95.4501 13.4183 95.4493C13.2892 95.4614 13.176 95.3223 13.2006 95.185ZM15.8206 95.0099C15.9532 94.9264 16.1373 95.048 16.1314 95.2128C16.1405 95.3875 15.9367 95.5106 15.8047 95.4081C15.6675 95.3228 15.6782 95.0826 15.8206 95.0099ZM13.7271 95.6255C13.8822 95.5793 14.0595 95.6584 14.1356 95.8127C14.2189 95.968 14.1848 96.1837 14.0554 96.2975C13.8895 96.4646 13.5834 96.3975 13.4951 96.1695C13.3936 95.9606 13.5169 95.6805 13.7271 95.6255ZM15.4074 95.6246C15.5581 95.578 15.7352 95.6409 15.8163 95.7895C15.9234 95.9595 15.8723 96.213 15.7127 96.3226C15.5457 96.4498 15.2868 96.383 15.1949 96.1841C15.0834 95.9783 15.1956 95.6874 15.4074 95.6246ZM12.7298 95.8186C12.8637 95.7637 13.0122 95.9237 12.9579 96.0674C12.9248 96.1984 12.7543 96.2468 12.6662 96.1502C12.5631 96.0596 12.6013 95.8579 12.7298 95.8186ZM16.3605 96.0272C16.3566 95.907 16.4378 95.8007 16.5516 95.794C16.6433 95.8098 16.7325 95.8898 16.7253 95.9979C16.7337 96.1407 16.5747 96.2377 16.4624 96.1706C16.4097 96.1416 16.3827 96.0832 16.3605 96.0272ZM12.0712 95.8891C12.1518 95.851 12.2514 95.9266 12.233 96.0235C12.2287 96.1331 12.0791 96.1753 12.0242 96.0837C11.9756 96.02 12.0047 95.9219 12.0712 95.8891ZM17.1523 95.8869C17.2091 95.8432 17.3001 95.8746 17.3226 95.9463C17.3607 96.0247 17.2908 96.1321 17.2093 96.1188C17.0949 96.1301 17.0579 95.9414 17.1523 95.8869ZM14.1649 96.4133C14.3769 96.3536 14.6049 96.545 14.6062 96.7813C14.62 97.0201 14.3955 97.2319 14.1785 97.1767C14.0107 97.1475 13.879 96.9726 13.8845 96.7891C13.884 96.6136 14.0064 96.4504 14.1649 96.4133ZM15.0046 96.4128C15.2199 96.3477 15.4546 96.5425 15.4512 96.7843C15.4626 97.0187 15.2451 97.2233 15.0325 97.1768C14.8325 97.1488 14.685 96.911 14.7408 96.7009C14.769 96.561 14.877 96.4472 15.0046 96.4128ZM13.3855 96.5583C13.5344 96.5308 13.674 96.7106 13.6136 96.8637C13.5696 97.0267 13.3503 97.071 13.2533 96.9378C13.1396 96.8098 13.2245 96.576 13.3855 96.5583ZM15.8483 96.5655C15.9811 96.5053 16.1441 96.6296 16.1339 96.7856C16.1392 96.9573 15.9379 97.0757 15.8081 96.9755C15.661 96.8855 15.6878 96.6207 15.8483 96.5655ZM16.5366 97.3127C16.4846 97.2078 16.5791 97.0688 16.6867 97.0882C16.7403 97.0872 16.7778 97.1329 16.8121 97.1712C16.8191 97.2334 16.8309 97.3076 16.7832 97.3555C16.7185 97.4442 16.5718 97.4188 16.5366 97.3127ZM12.5909 97.1174C12.6914 97.0449 12.8362 97.153 12.8136 97.2803C12.8015 97.3928 12.6705 97.4572 12.5842 97.3933C12.4916 97.3353 12.495 97.1702 12.5909 97.1174ZM14.5781 97.353C14.7097 97.2901 14.8775 97.4142 14.865 97.5712C14.8748 97.7446 14.6673 97.8647 14.5385 97.7606C14.3955 97.6711 14.4194 97.408 14.5781 97.353ZM13.6577 97.5854C13.7698 97.5215 13.9203 97.6318 13.9101 97.7677C13.9135 97.8792 13.8129 97.9743 13.7112 97.9578C13.627 97.9558 13.5721 97.8741 13.545 97.7964C13.5464 97.7117 13.5786 97.6173 13.6577 97.5854ZM15.522 97.5874C15.6374 97.5102 15.8013 97.621 15.7904 97.7663C15.7933 97.9181 15.6081 98.0154 15.5007 97.9156C15.3967 97.8375 15.4094 97.6495 15.522 97.5874ZM15.8462 98.4548C15.7949 98.3708 15.8553 98.2696 15.9386 98.2504C16.0056 98.2652 16.0765 98.3197 16.0624 98.4037C16.0526 98.5175 15.8989 98.5523 15.8462 98.4548ZM13.2726 98.3818C13.293 98.3153 13.3425 98.2491 13.415 98.2664C13.5205 98.2745 13.5519 98.4467 13.4595 98.4998C13.3764 98.5604 13.28 98.4774 13.2726 98.3818ZM14.5142 98.4582C14.5345 98.3597 14.6523 98.3118 14.7299 98.3642C14.7812 98.388 14.7962 98.4501 14.8094 98.5029C14.8023 98.5304 14.7961 98.558 14.7899 98.5855C14.7581 98.6263 14.7172 98.667 14.6643 98.6656C14.566 98.678 14.4773 98.5577 14.5142 98.4582Z" fill="#DD1100"/>
</g>
</g>
<defs>
<clipPath id="clip0">
<rect width="207.64" height="140" fill="white"/>
</clipPath>
<clipPath id="clip1">
<rect width="92" height="85.3333" fill="white" transform="translate(69.3333 65.3333)"/>
</clipPath>
<clipPath id="clip2">
<rect width="8" height="8" fill="white" transform="translate(130.667 21.3333)"/>
</clipPath>
<clipPath id="clip3">
<rect width="5.33336" height="5.33333" fill="white" transform="translate(166.667 78.6667)"/>
</clipPath>
<clipPath id="clip4">
<rect width="5.33333" height="5.33334" fill="white" transform="translate(12 93.3333)"/>
</clipPath>
</defs>
</svg>
