<svg width="263" height="140" viewBox="0 0 263 140" fill="none" xmlns="http://www.w3.org/2000/svg">
<g clip-path="url(#clip0)">
<path d="M260.967 139.638H114.709C114.259 139.638 113.827 139.458 113.508 139.138C113.189 138.819 113.01 138.385 113.01 137.933V1.70498C113.01 1.25297 113.189 0.819646 113.508 0.500029C113.827 0.180411 114.259 0.000591577 114.709 0H260.967C261.417 0.000591577 261.849 0.180411 262.168 0.500029C262.487 0.819646 262.666 1.25297 262.667 1.70498V137.933C262.666 138.385 262.487 138.818 262.168 139.138C261.85 139.458 261.417 139.637 260.967 139.638V139.638ZM114.709 0.680649C114.439 0.681239 114.18 0.789113 113.99 0.980665C113.799 1.17222 113.691 1.43185 113.69 1.70274V137.933C113.691 138.204 113.799 138.464 113.99 138.655C114.18 138.847 114.439 138.954 114.709 138.955H260.967C261.237 138.955 261.496 138.847 261.687 138.655C261.878 138.464 261.985 138.204 261.986 137.933V1.70498C261.985 1.43408 261.878 1.17445 261.687 0.982902C261.496 0.79135 261.237 0.683476 260.967 0.682886L114.709 0.680649Z" fill="#E6E6E6"/>
<path d="M183.819 35.3994C183.513 35.3994 183.219 35.5213 183.003 35.7384C182.786 35.9555 182.665 36.2499 182.665 36.5569C182.665 36.8639 182.786 37.1583 183.003 37.3754C183.219 37.5925 183.513 37.7144 183.819 37.7144H247.146C247.452 37.7144 247.746 37.5925 247.962 37.3754C248.178 37.1583 248.3 36.8639 248.3 36.5569C248.3 36.2499 248.178 35.9555 247.962 35.7384C247.746 35.5213 247.452 35.3994 247.146 35.3994H183.819Z" fill="#E6E6E6"/>
<path d="M183.819 42.3451C183.513 42.3451 183.219 42.4671 183.003 42.6842C182.786 42.9012 182.665 43.1957 182.665 43.5027C182.665 43.8096 182.786 44.1041 183.003 44.3211C183.219 44.5382 183.513 44.6602 183.819 44.6602H216.149C216.455 44.6602 216.748 44.5382 216.965 44.3211C217.181 44.1041 217.303 43.8096 217.303 43.5027C217.303 43.1957 217.181 42.9012 216.965 42.6842C216.748 42.4671 216.455 42.3451 216.149 42.3451H183.819Z" fill="#E6E6E6"/>
<path d="M128.469 75.9637C128.162 75.9637 127.869 76.0856 127.653 76.3027C127.436 76.5198 127.314 76.8142 127.314 77.1212C127.314 77.4282 127.436 77.7226 127.653 77.9397C127.869 78.1568 128.162 78.2787 128.469 78.2787H247.208C247.514 78.2787 247.807 78.1568 248.024 77.9397C248.24 77.7226 248.362 77.4282 248.362 77.1212C248.362 76.8142 248.24 76.5198 248.024 76.3027C247.807 76.0856 247.514 75.9637 247.208 75.9637H128.469Z" fill="#E6E6E6"/>
<path d="M128.469 82.9094C128.162 82.9094 127.869 83.0314 127.653 83.2485C127.436 83.4655 127.314 83.76 127.314 84.067C127.314 84.3739 127.436 84.6684 127.653 84.8854C127.869 85.1025 128.162 85.2245 128.469 85.2245H216.21C216.516 85.2245 216.81 85.1025 217.026 84.8854C217.243 84.6684 217.364 84.3739 217.364 84.067C217.364 83.76 217.243 83.4655 217.026 83.2485C216.81 83.0314 216.516 82.9094 216.21 82.9094H128.469Z" fill="#E6E6E6"/>
<path d="M128.469 89.6981C128.162 89.6981 127.869 89.82 127.653 90.0371C127.436 90.2542 127.314 90.5486 127.314 90.8556C127.314 91.1626 127.436 91.457 127.653 91.6741C127.869 91.8911 128.162 92.0131 128.469 92.0131H247.208C247.514 92.0131 247.807 91.8911 248.024 91.6741C248.24 91.457 248.362 91.1626 248.362 90.8556C248.362 90.5486 248.24 90.2542 248.024 90.0371C247.807 89.82 247.514 89.6981 247.208 89.6981H128.469Z" fill="#E6E6E6"/>
<path d="M128.469 96.6438C128.162 96.6438 127.869 96.7658 127.653 96.9828C127.436 97.1999 127.314 97.4943 127.314 97.8013C127.314 98.1083 127.436 98.4028 127.653 98.6198C127.869 98.8369 128.162 98.9588 128.469 98.9588H216.21C216.516 98.9588 216.81 98.8369 217.026 98.6198C217.243 98.4028 217.364 98.1083 217.364 97.8013C217.364 97.4943 217.243 97.1999 217.026 96.9828C216.81 96.7658 216.516 96.6438 216.21 96.6438H128.469Z" fill="#E6E6E6"/>
<path d="M167.814 59.7871H76.0129C75.5622 59.7866 75.1301 59.6068 74.8115 59.2872C74.4928 58.9676 74.3135 58.5342 74.313 58.0822V17.6753C74.3135 17.2233 74.4928 16.7899 74.8115 16.4703C75.1301 16.1507 75.5622 15.9709 76.0129 15.9704H167.814C168.265 15.9709 168.697 16.1507 169.016 16.4703C169.334 16.7899 169.514 17.2233 169.514 17.6753V58.0822C169.514 58.5342 169.334 58.9676 169.016 59.2872C168.697 59.6068 168.265 59.7866 167.814 59.7871Z" fill="#DD1100"/>
<path d="M246.473 123.668H211.676C211.225 123.667 210.793 123.488 210.475 123.168C210.156 122.848 209.977 122.415 209.976 121.963V116.371C209.977 115.919 210.156 115.486 210.475 115.166C210.793 114.846 211.225 114.667 211.676 114.666H246.473C246.924 114.667 247.356 114.846 247.675 115.166C247.994 115.486 248.173 115.919 248.173 116.371V121.963C248.173 122.415 247.994 122.848 247.675 123.168C247.356 123.488 246.924 123.667 246.473 123.668Z" fill="#DD1100"/>
<path d="M40.2644 68.3874C38.7649 67.2646 38.3247 65.1664 39.2815 63.701C39.3765 63.5575 39.484 63.4227 39.6027 63.2982L39.6985 33.4468L44.1227 34.2753L44.317 63.6349C45.325 64.8075 45.5285 66.5165 44.7121 67.7669C43.7554 69.2324 41.7641 69.5102 40.2644 68.3874Z" fill="#FFB8B8"/>
<path d="M63.2722 135.204L67.8331 135.204L70.0031 117.559L63.2715 117.56L63.2722 135.204Z" fill="#FFB8B8"/>
<path d="M62.1088 133.71L71.091 133.71H71.0914C72.6095 133.71 74.0654 134.315 75.1389 135.392C76.2124 136.468 76.8155 137.929 76.8156 139.451V139.638L62.109 139.638L62.1088 133.71Z" fill="#2F2E41"/>
<path d="M20.8609 135.204L25.4221 135.204L27.5918 117.559L20.8602 117.56L20.8609 135.204Z" fill="#FFB8B8"/>
<path d="M19.6976 133.71L28.6798 133.71H28.6802C30.1983 133.71 31.6542 134.315 32.7277 135.392C33.8012 136.468 34.4043 137.929 34.4044 139.451V139.638L19.6978 139.638L19.6976 133.71Z" fill="#2F2E41"/>
<path d="M63.006 130.276L62.6237 127.975C62.2311 127.838 61.8974 127.569 61.6783 127.214C61.2678 126.564 61.2024 125.648 61.4838 124.493L58.4064 98.4269L42.34 81.708L32.033 106.642L27.9528 126.373V129.224L19.8065 130.273L20.1772 127.586C19.8656 127.452 19.6059 127.22 19.4375 126.925C18.9695 126.144 18.9759 124.933 19.4565 123.326L19.4773 123.256L19.4507 123.016C19.4321 122.848 19.5545 106.731 24.3314 98.7463L29.1155 74.5029C28.9913 74.1615 28.3779 72.1736 29.5028 68.8146C30.613 65.4997 33.7178 60.1593 42.205 53.5434L42.2341 53.5208L42.2703 53.5131C42.3643 53.4936 51.7251 51.6271 56.5663 57.9767L56.599 58.0196V58.0737C56.599 58.4662 56.5906 67.6015 55.8704 69.6285L67.3581 90.814C67.5818 91.0517 69.5901 93.3778 68.8768 99.4936L70.7325 120.34C70.9449 120.747 72.8658 124.576 70.7486 126.092L71.1282 128.724L63.006 130.276Z" fill="#2F2E41"/>
<path d="M43.7883 42.6723C41.6313 42.6723 38.7649 41.9076 37.0102 38.3831L36.9757 38.3138L41.2985 29.1233C41.8585 27.9326 42.8609 27.0091 44.0912 26.5502C45.3216 26.0914 46.6821 26.1337 47.8817 26.6681C49.0813 27.2025 50.0248 28.1866 50.5102 29.4098C50.9956 30.633 50.9844 31.9982 50.4791 33.2132L46.7418 42.1991L46.6767 42.2233C45.7433 42.5239 44.7686 42.6755 43.7883 42.6723Z" fill="#DD1100"/>
<path d="M55.7625 60.8937L42.135 54.4395L44.0082 31.5186L47.4232 27.3323L48.0848 27.1902C51.1251 26.5374 54.2843 26.7129 57.2341 27.6985L57.299 27.7202L62.9084 39.7223C62.9436 39.7822 66.9889 46.9455 61.3967 50.7223L55.7625 60.8937Z" fill="#DD1100"/>
<path d="M74.497 53.5891C74.3344 53.657 74.1774 53.7378 74.0274 53.8305L59.6674 47.2423L59.299 43.4124L53.4635 43.2146L53.4588 50.0582C53.4584 50.611 53.6368 51.1491 53.9673 51.5916C54.2977 52.0341 54.7624 52.3571 55.2915 52.5122L72.5354 57.5668C72.7126 58.224 73.0849 58.8115 73.6031 59.2512C74.1213 59.6909 74.7606 59.962 75.4361 60.0284C76.1116 60.0948 76.7913 59.9533 77.3847 59.6228C77.9781 59.2923 78.4571 58.7885 78.758 58.1783C79.0589 57.5681 79.1675 56.8805 79.0693 56.2069C78.971 55.5333 78.6706 54.9057 78.2081 54.4075C77.7455 53.9093 77.1427 53.5641 76.4798 53.4179C75.8169 53.2717 75.1253 53.3314 74.4971 53.5891L74.497 53.5891Z" fill="#FFB8B8"/>
<path d="M56.9323 45.0469C55.296 45.0469 53.4493 44.4794 51.6768 42.7016L51.6222 42.6469L52.8199 32.5563C52.975 31.249 53.6341 30.0545 54.6562 29.2284C55.6783 28.4023 56.9821 28.0102 58.2888 28.136C59.5954 28.2618 60.8011 28.8955 61.6478 29.9015C62.4945 30.9076 62.915 32.206 62.8194 33.5191L62.1124 43.2294L62.0583 43.2729C62.0236 43.3008 59.8018 45.0469 56.9323 45.0469Z" fill="#DD1100"/>
<path d="M61.3113 19.3477C63.7318 14.9065 62.1045 9.33812 57.6765 6.91036C53.2485 4.48259 47.6966 6.11478 45.276 10.556C42.8554 14.9971 44.4828 20.5655 48.9108 22.9933C53.3388 25.421 58.8907 23.7888 61.3113 19.3477Z" fill="#FFB8B8"/>
<path d="M62.5932 10.096C62.1397 7.45107 60.0228 5.25845 57.5009 4.36132C54.9789 3.46419 52.135 3.75595 49.6654 4.78906C49.2542 4.96189 48.8521 5.15581 48.4606 5.37006C47.558 3.64437 45.3449 2.6435 43.3208 2.75152C40.8755 2.88202 38.6671 4.17974 36.5433 5.40279C34.4196 6.62584 32.1406 7.84272 29.6923 7.78576C25.2679 7.68289 21.9764 3.56883 17.722 2.34619C15.8281 1.80194 13.8129 1.85699 11.9513 2.50385C10.0898 3.1507 8.47253 4.35785 7.32026 5.96059C6.16799 7.56334 5.5368 9.48362 5.51282 11.4594C5.48885 13.4352 6.07323 15.3704 7.18627 17.0008C9.00154 13.738 13.2645 12.636 16.9635 13.0802C20.6623 13.5244 24.1096 15.1505 27.7333 16.0167C31.3572 16.8829 35.5541 16.8458 38.361 14.3893C39.9532 12.9959 40.8881 11.0044 42.2742 9.40478C43.2118 8.32279 44.5466 7.40919 45.9105 7.19414C44.5671 8.40752 43.5415 9.93331 42.9239 11.6374C41.8302 14.7538 42.4149 18.4956 44.6836 20.8909C47.1157 23.4589 50.933 24.1433 54.4642 24.1018L54.5381 24.0265C53.4569 22.4034 52.6037 20.1527 53.794 18.6084C54.9691 17.0839 57.2867 17.3085 59.0862 16.634C61.5927 15.6944 63.0464 12.741 62.5932 10.096Z" fill="#2F2E41"/>
<path d="M87.2575 140H0.318458C0.233998 140 0.152996 139.966 0.093274 139.906C0.0335515 139.847 0 139.765 0 139.681C0 139.596 0.0335515 139.515 0.093274 139.455C0.152996 139.395 0.233998 139.361 0.318458 139.361H87.2575C87.342 139.361 87.423 139.395 87.4827 139.455C87.5424 139.515 87.576 139.596 87.576 139.681C87.576 139.765 87.5424 139.847 87.4827 139.906C87.423 139.966 87.342 140 87.2575 140Z" fill="#CCCCCC"/>
<path d="M117.794 30.1421C117.396 30.1434 117.073 30.6627 117.074 31.3019C117.075 31.9394 117.397 32.4559 117.794 32.4572H151.828C152.227 32.4559 152.549 31.9366 152.548 31.2974C152.548 30.6599 152.225 30.1434 151.828 30.1421H117.794Z" fill="white"/>
<path d="M117.794 36.8496C117.396 36.8509 117.073 37.3701 117.074 38.0094C117.075 38.6469 117.397 39.1634 117.794 39.1646H151.828C152.227 39.1634 152.549 38.6441 152.548 38.0048C152.548 37.3673 152.225 36.8509 151.828 36.8496H117.794Z" fill="white"/>
<path d="M117.794 43.476C117.396 43.4773 117.073 43.9965 117.074 44.6358C117.075 45.2733 117.397 45.7898 117.794 45.791H132.439C132.838 45.7897 133.16 45.2705 133.16 44.6312C133.159 43.9937 132.837 43.4772 132.439 43.476H117.794Z" fill="white"/>
<path d="M100.514 47.1415C105.615 47.1415 109.749 42.9944 109.749 37.8788C109.749 32.7631 105.615 28.6161 100.514 28.6161C95.4136 28.6161 91.2789 32.7631 91.2789 37.8788C91.2789 42.9944 95.4136 47.1415 100.514 47.1415Z" fill="white"/>
</g>
<defs>
<clipPath id="clip0">
<rect width="262.667" height="140" fill="white"/>
</clipPath>
</defs>
</svg>
