<svg width="180" height="140" viewBox="0 0 180 140" fill="none" xmlns="http://www.w3.org/2000/svg">
<g clip-path="url(#clip0)">
<path d="M158.272 130.199C158.259 130.141 156.992 124.36 159.578 119.558C162.164 114.757 167.683 112.639 167.739 112.618L167.991 112.524L168.05 112.787C168.063 112.845 169.33 118.626 166.744 123.428C164.158 128.229 158.639 130.347 158.583 130.368L158.331 130.462L158.272 130.199ZM167.645 113.166C166.539 113.642 162.176 115.727 159.992 119.782C157.808 123.838 158.467 128.634 158.677 129.82C159.782 129.345 164.144 127.264 166.33 123.204C168.514 119.149 167.855 114.353 167.645 113.166Z" fill="#3F3D56"/>
<path d="M164.768 121.743C160.121 124.543 158.332 130.103 158.332 130.103C158.332 130.103 164.076 131.125 168.722 128.325C173.369 125.526 175.158 119.966 175.158 119.966C175.158 119.966 169.414 118.944 164.768 121.743Z" fill="#D0CDE1"/>
<path d="M63.8132 104.899C63.2607 104.899 62.7025 104.89 62.1546 104.873L62.167 104.475C62.9538 104.499 63.7566 104.506 64.547 104.495L64.5524 104.894C64.3064 104.897 64.06 104.899 63.8132 104.899ZM66.9489 104.807L66.9256 104.409C67.7135 104.362 68.5115 104.297 69.2974 104.214L69.339 104.611C68.547 104.694 67.743 104.76 66.9489 104.807ZM59.7603 104.745C58.9658 104.684 58.1629 104.604 57.3739 104.507L57.4225 104.111C58.2055 104.207 59.0021 104.286 59.7906 104.347L59.7603 104.745ZM71.7174 104.306L71.6577 103.912C72.4405 103.793 73.2293 103.655 74.0017 103.501L74.0793 103.892C73.3009 104.047 72.5062 104.186 71.7174 104.306ZM55.0012 104.16C54.2164 104.027 53.4241 103.874 52.6466 103.705L52.7311 103.315C53.5027 103.483 54.2888 103.635 55.0677 103.767L55.0012 104.16ZM76.4201 103.37L76.3244 102.983C77.0928 102.793 77.8656 102.582 78.6211 102.358L78.7343 102.74C77.9729 102.966 77.1944 103.178 76.4201 103.37ZM50.3155 103.141C49.5456 102.936 48.7709 102.711 48.0128 102.471L48.1328 102.09C48.8852 102.329 49.654 102.552 50.4178 102.756L50.3155 103.141ZM81.017 102.004L80.8863 101.628C81.632 101.368 82.3819 101.087 83.1157 100.793L83.2636 101.164C82.5243 101.46 81.7685 101.743 81.017 102.004ZM45.7375 101.692C44.9898 101.417 44.2374 101.12 43.5014 100.809L43.6561 100.442C44.3864 100.75 45.1329 101.044 45.875 101.318L45.7375 101.692ZM85.464 100.223L85.2991 99.8595C86.0152 99.5337 86.735 99.1859 87.4385 98.8258L87.6197 99.181C86.9108 99.5438 86.1856 99.8942 85.464 100.223ZM89.7256 98.0411L89.5284 97.6948C90.2152 97.3024 90.9007 96.8899 91.5657 96.4687L91.7785 96.8056C91.1084 97.2301 90.4178 97.6459 89.7256 98.0411ZM93.7731 95.477L93.5452 95.1502C94.1919 94.6978 94.8372 94.2239 95.4632 93.7421L95.706 94.0584C95.0752 94.5439 94.4249 95.0212 93.7731 95.477ZM33.0653 94.9153C32.4224 94.4477 31.7802 93.9579 31.1564 93.4591L31.4049 93.1475C32.024 93.6424 32.6613 94.1285 33.2993 94.5924L33.0653 94.9153ZM97.5725 92.5529L97.3157 92.2479C97.9184 91.7387 98.5182 91.208 99.0988 90.6704L99.3691 90.9633C98.7843 91.505 98.1798 92.0398 97.5725 92.5529ZM29.3162 91.9176C28.7174 91.3926 28.1226 90.8465 27.5482 90.2944L27.824 90.0065C28.3941 90.5546 28.9843 91.0966 29.5785 91.6177L29.3162 91.9176ZM101.092 89.2929L100.809 89.0129C101.364 88.4491 101.914 87.8656 102.442 87.2788L102.738 87.5456C102.206 88.1371 101.652 88.7248 101.092 89.2929ZM25.8564 88.5926C25.3071 88.0142 24.7646 87.4163 24.2439 86.8157L24.5448 86.5543C25.0614 87.1505 25.5998 87.7437 26.145 88.3176L25.8564 88.5926ZM104.303 85.7249L103.995 85.4717C104.497 84.86 104.991 84.2288 105.464 83.5952L105.783 83.834C105.306 84.4724 104.808 85.1087 104.303 85.7249ZM22.7142 84.9677C22.2208 84.3435 21.7351 83.699 21.2704 83.0523L21.5936 82.8193C22.0548 83.461 22.5369 84.1006 23.0265 84.7203L22.7142 84.9677ZM107.176 81.8771L106.847 81.6531C107.291 80.9982 107.726 80.3241 108.14 79.6493L108.479 79.8581C108.062 80.538 107.624 81.2173 107.176 81.8771ZM19.9158 81.0735C19.4818 80.4073 19.057 79.7218 18.6531 79.0354L18.9962 78.8329C19.3971 79.5139 19.8186 80.1944 20.2493 80.8554L19.9158 81.0735ZM109.688 77.7808L109.34 77.588C109.722 76.8951 110.094 76.1835 110.444 75.4728L110.802 75.6497C110.448 76.3656 110.074 77.0826 109.688 77.7808H109.688ZM111.816 73.469L111.451 73.3089C111.768 72.5831 112.073 71.8397 112.357 71.0996L112.729 71.2426C112.443 71.9885 112.135 72.7375 111.816 73.469H111.816ZM15.4436 72.6084C15.1383 71.8745 14.8458 71.1238 14.5745 70.3767L14.9489 70.2404C15.2181 70.9818 15.5083 71.7267 15.8112 72.4549L15.4436 72.6084ZM113.538 68.9756L113.16 68.8502C113.408 68.1002 113.643 67.3336 113.857 66.5716L114.24 66.6795C114.025 67.4474 113.788 68.22 113.538 68.9756ZM13.8073 68.1016C13.5703 67.3414 13.3476 66.565 13.1454 65.7933L13.5307 65.6921C13.7313 66.4578 13.9524 67.2285 14.1875 67.9828L13.8073 68.1016ZM114.836 64.3533L114.448 64.263C114.627 63.4943 114.79 62.7092 114.933 61.93L115.325 62.0021C115.18 62.7875 115.016 63.5784 114.836 64.3533ZM12.5908 63.4571C12.4247 62.6781 12.2743 61.8844 12.144 61.0978L12.5369 61.0324C12.6663 61.8131 12.8155 62.6007 12.9803 63.3737L12.5908 63.4571ZM115.704 59.6313L115.309 59.5772C115.417 58.796 115.507 57.9995 115.578 57.2096L115.975 57.2454C115.903 58.0415 115.812 58.8441 115.704 59.6313ZM11.8058 58.7207C11.7119 57.9311 11.6347 57.127 11.5765 56.3306L11.9738 56.3014C12.0315 57.0919 12.1081 57.8898 12.2014 58.6735L11.8058 58.7207ZM116.137 54.8499L115.739 54.832C115.775 54.0417 115.793 53.2401 115.793 52.4496H116.191C116.191 53.2461 116.173 54.0538 116.137 54.8499ZM11.4558 53.9322C11.4422 53.4432 11.4353 52.9443 11.4352 52.4496C11.4352 52.1426 11.4378 51.8363 11.4431 51.5305L11.8414 51.5375C11.8361 51.841 11.8335 52.145 11.8335 52.4496C11.8336 52.9406 11.8405 53.4358 11.8539 53.9213L11.4558 53.9322ZM11.9359 49.1564L11.5384 49.1315C11.5881 48.3345 11.6567 47.5296 11.7422 46.739L12.1382 46.7819C12.0533 47.5666 11.9853 48.3654 11.9359 49.1564H11.9359ZM115.536 46.723C115.456 45.9367 115.347 45.5533 115.231 44.7704L115.625 44.7122C115.742 45.501 115.841 46.1032 115.922 46.8955L115.536 46.723ZM12.4483 44.4194L12.0546 44.3584C12.1767 43.5694 12.3185 42.7741 12.4761 41.9944L12.8664 42.0735C12.7101 42.8472 12.5694 43.6365 12.4483 44.4194H12.4483ZM114.829 42.422C114.677 41.6439 114.506 40.8607 114.32 40.0942L114.707 39.9999C114.894 40.7723 115.067 41.5616 115.22 42.3455L114.829 42.422ZM13.3918 39.7494L13.0054 39.6524C13.1988 38.8799 13.413 38.101 13.6422 37.3372L14.0235 37.4519C13.7963 38.2099 13.5837 38.9828 13.3918 39.7494ZM113.703 37.7923C113.481 37.0329 113.239 36.2689 112.982 35.5215L113.359 35.3918C113.617 36.145 113.862 36.9149 114.086 37.6801L113.703 37.7923ZM14.7629 35.1798L14.3871 35.0475C14.6518 34.2935 14.9376 33.5359 15.2366 32.7958L15.6059 32.9454C15.3092 33.6798 15.0256 34.4316 14.7629 35.1798ZM112.157 33.2863C111.866 32.5522 111.555 31.8156 111.232 31.0966L111.595 30.9329C111.921 31.6573 112.234 32.3997 112.527 33.1392L112.157 33.2863ZM16.5506 30.753L16.1887 30.5865C16.5214 29.861 16.8754 29.1335 17.2411 28.4242L17.595 28.6071C17.2321 29.3111 16.8808 30.033 16.5506 30.753ZM110.207 28.951C109.851 28.2469 109.473 27.5413 109.085 26.8541L109.431 26.6576C109.823 27.3502 110.203 28.0611 110.563 28.7707L110.207 28.951ZM18.7368 26.5121L18.3916 26.3131C18.7889 25.6222 19.2079 24.9306 19.6371 24.2578L19.9727 24.4724C19.5469 25.1402 19.131 25.8265 18.7368 26.5121ZM107.867 24.81C107.446 24.1391 107.006 23.4707 106.557 22.8233L106.885 22.596C107.336 23.2484 107.781 23.9218 108.205 24.5979L107.867 24.81ZM21.3005 22.4919L20.9749 22.2621C21.4341 21.61 21.9142 20.96 22.4022 20.3302L22.7169 20.5746C22.2327 21.1997 21.7561 21.8448 21.3005 22.4919ZM105.158 20.8981C104.678 20.2685 104.178 19.6427 103.672 19.038L103.977 18.7818C104.487 19.3912 104.991 20.0217 105.475 20.656L105.158 20.8981ZM24.2188 18.7245L23.9156 18.4659C24.4309 17.8598 24.968 17.2566 25.5119 16.6729L25.803 16.9449C25.2633 17.5242 24.7303 18.123 24.2188 18.7245ZM102.103 17.2471C101.568 16.6639 101.013 16.0859 100.453 15.5293L100.734 15.2463C101.298 15.8073 101.857 16.3896 102.396 16.9772L102.103 17.2471ZM27.466 15.2401L27.1875 14.9549C27.757 14.397 28.3464 13.8453 28.9391 13.3154L29.2044 13.613C28.6162 14.1388 28.0313 14.6863 27.466 15.2401V15.2401ZM98.7275 13.888C98.1411 13.3554 97.5357 12.8302 96.9281 12.3268L97.1821 12.0195C97.7942 12.5267 98.4043 13.0559 98.9951 13.5926L98.7275 13.888ZM31.0146 12.0668L30.7631 11.7576C31.3792 11.2552 32.0158 10.7598 32.6555 10.2849L32.8928 10.6053C32.2579 11.0766 31.626 11.5683 31.0146 12.0668H31.0146ZM34.8348 9.23153L34.6125 8.90064C35.2719 8.4564 35.9506 8.02142 36.6301 7.60747L36.837 7.94829C36.1628 8.35903 35.4892 8.7908 34.8349 9.23153H34.8348ZM38.8952 6.75834L38.704 6.40837C39.4015 6.02616 40.1168 5.65535 40.8297 5.30606L41.0048 5.66441C40.2972 6.01097 39.5875 6.37896 38.8952 6.75834ZM86.9655 5.83423C86.2567 5.48066 85.5307 5.13906 84.8076 4.81898L84.9686 4.45421C85.6974 4.77672 86.429 5.12095 87.1432 5.47725L86.9655 5.83423ZM43.1615 4.66873L43.0032 4.30278C43.7321 3.98641 44.4778 3.68298 45.2194 3.40088L45.3608 3.77383C44.6248 4.0537 43.8849 4.35479 43.1615 4.66873ZM82.6046 3.90403C81.8671 3.61765 81.1123 3.3444 80.361 3.092L80.4878 2.71379C81.2448 2.96824 82.0054 3.24352 82.7486 3.53224L82.6046 3.90403ZM47.6044 2.97934L47.4803 2.60034C48.2372 2.35184 49.0095 2.11784 49.7756 1.90507L49.8821 2.28932C49.1219 2.50053 48.3555 2.73269 47.6044 2.97934H47.6044ZM78.0879 2.38631C77.3282 2.16945 76.5533 1.96749 75.7849 1.78608L75.8763 1.39794C76.6508 1.58071 77.4315 1.78423 78.1972 2.00264L78.0879 2.38631ZM52.1893 1.70516L52.1006 1.31633C52.8766 1.13881 53.6671 0.977069 54.4501 0.835679L54.5208 1.22811C53.7438 1.36853 52.9594 1.529 52.1893 1.70516ZM73.4567 1.29296C72.6811 1.14718 71.8911 1.01748 71.1085 0.907446L71.1637 0.512483C71.9523 0.623397 72.7486 0.754076 73.5302 0.900921L73.4567 1.29296ZM56.8719 0.858952L56.8192 0.463601C57.6077 0.358239 58.4095 0.269626 59.2025 0.200489L59.2371 0.597787C58.4502 0.666534 57.6545 0.75436 56.8719 0.858952ZM68.7448 0.630116C67.9603 0.556108 67.1617 0.499046 66.3711 0.460777L66.3906 0.0623106C67.187 0.10097 67.9916 0.158422 68.7822 0.233022L68.7448 0.630116ZM61.6122 0.444807L61.5954 0.0463499C62.3275 0.0157736 63.0736 0.00019544 63.8132 0L63.9935 0.000290609L63.9923 0.399147L63.8132 0.398856C63.0792 0.399042 62.3386 0.414522 61.6122 0.444807Z" fill="#3F3D56"/>
<path d="M179.639 130.085H33.6573V130.484H179.639V130.085Z" fill="#3F3D56"/>
<path d="M119.097 63.0243L121.089 93.9357C121.089 93.9357 125.869 106.101 125.669 117.668C125.669 117.668 123.877 122.254 125.271 123.052C126.665 123.85 127.462 124.448 126.665 125.046C125.869 125.645 125.271 127.041 125.869 127.44C126.466 127.838 126.665 128.437 126.466 128.437H120.491C120.491 128.437 121.686 125.445 119.894 124.648C118.102 123.85 119.097 121.856 119.097 121.856L105.754 82.7677L95.1986 118.665C95.1986 118.665 96.991 119.861 95.5969 120.46C94.2028 121.058 93.6054 119.861 94.2028 121.058C94.8003 122.254 94.0037 122.853 94.0037 123.052C94.0037 123.252 88.029 122.454 88.029 122.454C88.029 122.454 91.0163 119.861 89.6223 119.263C88.2282 118.665 87.6307 118.066 88.029 117.668C88.4273 117.269 90.0206 113.48 90.0206 113.48C90.0206 113.48 90.8172 99.1208 91.0163 98.5225C91.2155 97.9243 91.0163 95.1323 91.0163 93.7363C91.0163 92.3403 90.8172 86.7563 91.4147 85.3603C92.0121 83.9643 92.6096 66.8135 95.7961 64.8192C98.9826 62.8249 119.097 63.0243 119.097 63.0243Z" fill="#2F2E41"/>
<path d="M93.8046 122.055C93.8046 122.055 97.7877 130.232 94.9995 131.229C92.2113 132.226 88.6265 131.428 87.8299 132.625C87.0333 133.821 78.2704 135.217 78.0712 132.226C77.8721 129.234 87.6307 123.65 87.6307 123.65L88.9019 121.601L93.8046 122.055Z" fill="#2F2E41"/>
<path d="M126.068 128.038C126.068 128.038 130.051 136.214 127.263 137.212C124.475 138.209 120.89 137.411 120.093 138.608C119.297 139.804 110.534 141.2 110.334 138.209C110.135 135.217 119.894 129.633 119.894 129.633L121.165 127.584L126.068 128.038Z" fill="#2F2E41"/>
<path d="M107.646 25.4322C111.276 25.4322 114.218 22.4857 114.218 18.851C114.218 15.2164 111.276 12.2699 107.646 12.2699C104.016 12.2699 101.074 15.2164 101.074 18.851C101.074 22.4857 104.016 25.4322 107.646 25.4322Z" fill="#A0616A"/>
<path d="M112.127 22.3409L111.33 28.1244L105.356 32.7112L103.762 30.5175V22.9392L112.127 22.3409Z" fill="#A0616A"/>
<path d="M102.767 29.7198C102.767 29.7198 108.94 30.3181 112.127 28.1244L118.5 65.8163C118.5 65.8163 95.9952 67.6112 94.9995 66.4146V54.6483L98.9826 35.5032L102.767 29.7198Z" fill="#3F3D56"/>
<path d="M111.578 26.3223L113.72 28.1243C113.72 28.1243 122.483 29.5203 121.886 31.9135L119.496 60.2323L120.292 69.8048C120.292 69.8048 113.521 68.0099 108.343 69.8048C103.165 71.5997 107.279 31.2348 107.279 31.2348C107.279 31.2348 112.026 26.9133 111.578 26.3223Z" fill="#D0CDE1"/>
<path d="M103.762 28.5051C103.762 28.5051 97.3894 33.11 96.5927 36.1015C95.7961 39.0929 93.2071 70.6025 93.2071 70.6025C93.2071 70.6025 94.402 70.0042 94.9995 71.0014C95.597 71.9985 104.758 30.0825 103.762 28.5051Z" fill="#D0CDE1"/>
<path d="M101.077 18.5642C101.077 18.5642 100.365 17.4956 100.639 16.3447C100.803 15.6913 100.867 15.017 100.831 14.3443C100.831 14.3443 101.405 12.481 101.98 11.4397C102.555 10.3985 102.281 9.96004 104.087 9.63122C105.893 9.3024 105.154 6.94584 109.916 9.49422C110.076 9.71881 110.3 9.89073 110.558 9.98826C110.816 10.0858 111.097 10.1046 111.366 10.0422C112.351 9.85043 112.707 11.2205 112.707 11.2205C112.707 11.2205 113.364 10.8369 113.61 11.3849C113.856 11.933 115.612 11.056 115.612 14.7553C115.612 18.4545 113.614 21.7589 113.614 21.7589C113.614 21.7589 113.76 15.5363 110.504 14.9061C107.248 14.2758 103.745 12.4399 102.897 14.7965C102.439 16.1191 101.828 17.3836 101.077 18.5642Z" fill="#2F2E41"/>
<path d="M113.685 20.0438C114.04 20.0438 114.327 19.6598 114.327 19.1862C114.327 18.7126 114.04 18.3286 113.685 18.3286C113.33 18.3286 113.043 18.7126 113.043 19.1862C113.043 19.6598 113.33 20.0438 113.685 20.0438Z" fill="#A0616A"/>
<path d="M86.6927 80.8581C85.1168 79.9092 83.2167 79.9816 82.4943 80.0541C82.7694 80.7266 83.5948 82.4421 85.1707 83.3915C86.7504 84.3429 88.6481 84.2682 89.3693 84.1962C89.0944 83.5239 88.2689 81.8078 86.6927 80.8581Z" fill="#D0CDE1"/>
<path d="M94.098 99.6888H84.2485C83.6608 99.6888 83.0971 99.9226 82.6815 100.339C82.2659 100.755 82.0324 101.319 82.0324 101.908C82.0324 102.497 82.2659 103.061 82.6815 103.477C83.0971 103.893 83.6608 104.127 84.2485 104.127H94.098C94.6854 104.127 95.2485 103.893 95.6636 103.476C96.0788 103.06 96.312 102.496 96.312 101.908C96.312 101.32 96.0788 100.756 95.6636 100.34C95.2485 99.9234 94.6854 99.6894 94.098 99.6888Z" fill="#D0CDE1"/>
<path d="M138.7 76.2644H83.4768C82.8345 76.2644 82.1983 76.3911 81.6049 76.6373C81.0114 76.8834 80.4721 77.2443 80.0178 77.6991C79.5636 78.154 79.2033 78.694 78.9574 79.2883C78.7116 79.8826 78.5851 80.5196 78.5851 81.1629V108.105C78.5851 109.404 79.1005 110.65 80.0178 111.569C80.9352 112.488 82.1795 113.004 83.4768 113.004H138.7C139.342 113.004 139.978 112.877 140.572 112.631C141.165 112.385 141.704 112.024 142.159 111.569C142.613 111.114 142.973 110.574 143.219 109.98C143.465 109.386 143.591 108.749 143.591 108.105V81.1629C143.591 80.5196 143.465 79.8826 143.219 79.2883C142.973 78.694 142.613 78.154 142.159 77.6991C141.704 77.2443 141.165 76.8834 140.572 76.6373C139.978 76.3911 139.342 76.2644 138.7 76.2644ZM82.1105 79.6059C82.2196 79.5862 84.8054 79.1455 86.9466 80.4357C89.0877 81.7256 89.9104 84.22 89.9443 84.3255L90.0308 84.5944L89.753 84.6438C89.3566 84.7057 88.9558 84.7352 88.5546 84.7319C87.5822 84.7319 86.1731 84.5708 84.9168 83.8138C82.7757 82.5241 81.9531 80.0297 81.9192 79.9242L81.8327 79.6553L82.1105 79.6059ZM94.098 104.62H84.2485C83.5302 104.62 82.8412 104.335 82.3333 103.826C81.8253 103.317 81.5399 102.627 81.5399 101.908C81.5399 101.189 81.8253 100.499 82.3333 99.9901C82.8412 99.4814 83.5302 99.1957 84.2485 99.1957H94.098C94.8163 99.1957 95.5053 99.4814 96.0132 99.9901C96.5212 100.499 96.8066 101.189 96.8066 101.908C96.8066 102.627 96.5212 103.317 96.0132 103.826C95.5053 104.335 94.8163 104.62 94.098 104.62ZM138.913 104.127C138.911 104.911 138.599 105.662 138.045 106.217C137.491 106.771 136.741 107.084 135.958 107.086H128.571C127.788 107.084 127.038 106.771 126.484 106.217C125.931 105.662 125.618 104.911 125.616 104.127V99.6888C125.618 98.9048 125.931 98.1535 126.484 97.5991C127.038 97.0447 127.788 96.7322 128.571 96.7299H135.958C136.741 96.7322 137.491 97.0447 138.045 97.5991C138.599 98.1535 138.911 98.9048 138.913 99.6888L138.913 104.127Z" fill="#D0CDE1"/>
<path d="M130.91 103.264H127.709C127.481 103.264 127.261 103.355 127.1 103.517C126.938 103.679 126.847 103.898 126.847 104.127C126.847 104.356 126.938 104.576 127.1 104.737C127.261 104.899 127.481 104.99 127.709 104.99H130.91C131.139 104.99 131.358 104.899 131.52 104.737C131.681 104.576 131.772 104.356 131.772 104.127C131.772 103.898 131.681 103.679 131.52 103.517C131.358 103.355 131.139 103.264 130.91 103.264ZM130.91 104.497H127.709C127.661 104.497 127.613 104.488 127.568 104.469C127.523 104.451 127.482 104.423 127.447 104.389C127.413 104.355 127.386 104.314 127.367 104.269C127.349 104.224 127.339 104.176 127.339 104.127C127.339 104.079 127.349 104.03 127.367 103.985C127.386 103.94 127.413 103.9 127.447 103.865C127.482 103.831 127.523 103.804 127.568 103.785C127.613 103.767 127.661 103.757 127.709 103.757H130.91C130.959 103.757 131.007 103.767 131.052 103.785C131.097 103.804 131.138 103.831 131.172 103.865C131.206 103.9 131.234 103.94 131.252 103.985C131.271 104.03 131.28 104.079 131.28 104.127C131.28 104.176 131.271 104.224 131.252 104.269C131.234 104.314 131.206 104.355 131.172 104.389C131.138 104.423 131.097 104.451 131.052 104.469C131.007 104.488 130.959 104.497 130.91 104.497Z" fill="#D0CDE1"/>
<path d="M136.82 103.264H133.619C133.506 103.264 133.393 103.286 133.289 103.329C133.184 103.373 133.089 103.436 133.009 103.516C132.928 103.597 132.865 103.692 132.821 103.797C132.778 103.901 132.756 104.014 132.756 104.127C132.756 104.241 132.778 104.353 132.821 104.458C132.865 104.563 132.928 104.658 133.009 104.738C133.089 104.818 133.184 104.882 133.289 104.925C133.393 104.968 133.506 104.99 133.619 104.99H136.82C137.049 104.99 137.268 104.899 137.429 104.737C137.591 104.576 137.682 104.356 137.682 104.127C137.682 103.898 137.591 103.679 137.429 103.517C137.268 103.355 137.049 103.264 136.82 103.264ZM136.82 104.497H133.619C133.57 104.497 133.522 104.488 133.477 104.469C133.432 104.451 133.392 104.423 133.357 104.389C133.323 104.355 133.295 104.314 133.277 104.269C133.258 104.224 133.249 104.176 133.249 104.127C133.249 104.079 133.258 104.03 133.277 103.985C133.295 103.941 133.323 103.9 133.357 103.865C133.392 103.831 133.432 103.804 133.477 103.785C133.522 103.767 133.57 103.757 133.619 103.757H136.82C136.918 103.758 137.011 103.797 137.081 103.866C137.15 103.935 137.188 104.029 137.188 104.127C137.188 104.225 137.15 104.319 137.081 104.388C137.011 104.458 136.918 104.497 136.82 104.497Z" fill="#D0CDE1"/>
<path d="M130.91 101.045H127.709C127.481 101.045 127.261 101.136 127.1 101.298C126.938 101.46 126.847 101.679 126.847 101.908C126.847 102.137 126.938 102.356 127.1 102.518C127.261 102.68 127.481 102.771 127.709 102.771H130.91C131.024 102.771 131.136 102.749 131.24 102.706C131.345 102.662 131.44 102.599 131.521 102.519C131.601 102.438 131.664 102.343 131.708 102.239C131.751 102.134 131.773 102.021 131.773 101.908C131.773 101.794 131.751 101.682 131.708 101.577C131.664 101.473 131.601 101.377 131.521 101.297C131.44 101.217 131.345 101.154 131.24 101.11C131.136 101.067 131.024 101.045 130.91 101.045ZM130.91 102.278H127.709C127.611 102.278 127.517 102.239 127.448 102.169C127.379 102.1 127.34 102.006 127.34 101.908C127.34 101.81 127.379 101.716 127.448 101.646C127.517 101.577 127.611 101.538 127.709 101.538H130.91C131.008 101.538 131.102 101.577 131.171 101.646C131.241 101.716 131.28 101.81 131.28 101.908C131.28 102.006 131.241 102.1 131.171 102.169C131.102 102.239 131.008 102.278 130.91 102.278Z" fill="#D0CDE1"/>
<path d="M136.82 101.045H133.619C133.506 101.045 133.393 101.067 133.289 101.11C133.184 101.154 133.089 101.217 133.009 101.297C132.928 101.377 132.865 101.473 132.821 101.577C132.778 101.682 132.756 101.794 132.756 101.908C132.756 102.021 132.778 102.134 132.821 102.239C132.865 102.343 132.928 102.438 133.009 102.519C133.089 102.599 133.184 102.662 133.289 102.706C133.393 102.749 133.506 102.771 133.619 102.771H136.82C137.049 102.771 137.268 102.68 137.429 102.518C137.591 102.356 137.682 102.137 137.682 101.908C137.682 101.679 137.591 101.46 137.429 101.298C137.268 101.136 137.049 101.045 136.82 101.045ZM136.82 102.278H133.619C133.521 102.278 133.427 102.239 133.358 102.169C133.288 102.1 133.25 102.006 133.25 101.908C133.25 101.81 133.288 101.716 133.358 101.646C133.427 101.577 133.521 101.538 133.619 101.538H136.82C136.918 101.538 137.012 101.577 137.081 101.646C137.15 101.716 137.189 101.81 137.189 101.908C137.189 102.006 137.15 102.1 137.081 102.169C137.012 102.239 136.918 102.278 136.82 102.278Z" fill="#D0CDE1"/>
<path d="M130.91 98.8258H127.709C127.481 98.8258 127.261 98.9167 127.1 99.0786C126.938 99.2404 126.847 99.4599 126.847 99.6888C126.847 99.9177 126.938 100.137 127.1 100.299C127.261 100.461 127.481 100.552 127.709 100.552H130.91C131.139 100.552 131.358 100.461 131.52 100.299C131.681 100.137 131.772 99.9177 131.772 99.6888C131.772 99.4599 131.681 99.2404 131.52 99.0786C131.358 98.9167 131.139 98.8258 130.91 98.8258ZM130.91 100.059H127.709C127.611 100.059 127.517 100.02 127.448 99.9503C127.379 99.881 127.34 99.7869 127.34 99.6888C127.34 99.5907 127.379 99.4966 127.448 99.4273C127.517 99.3579 127.611 99.3189 127.709 99.3189H130.91C131.008 99.3189 131.102 99.3579 131.171 99.4273C131.241 99.4966 131.28 99.5907 131.28 99.6888C131.28 99.7869 131.241 99.881 131.171 99.9503C131.102 100.02 131.008 100.059 130.91 100.059Z" fill="#D0CDE1"/>
<path d="M136.82 98.8258H133.619C133.506 98.8256 133.393 98.8478 133.289 98.8911C133.184 98.9344 133.089 98.998 133.009 99.0781C132.928 99.1583 132.865 99.2535 132.821 99.3583C132.778 99.463 132.756 99.5754 132.756 99.6888C132.756 99.8023 132.778 99.9146 132.821 100.019C132.865 100.124 132.928 100.219 133.009 100.3C133.089 100.38 133.184 100.443 133.289 100.486C133.393 100.53 133.506 100.552 133.619 100.552H136.82C137.048 100.551 137.267 100.46 137.429 100.299C137.59 100.137 137.68 99.9175 137.68 99.6888C137.68 99.4602 137.59 99.2408 137.429 99.079C137.267 98.9172 137.048 98.8262 136.82 98.8258ZM136.82 100.059H133.619C133.521 100.059 133.427 100.02 133.358 99.9503C133.288 99.881 133.25 99.7869 133.25 99.6888C133.25 99.5907 133.288 99.4966 133.358 99.4273C133.427 99.3579 133.521 99.3189 133.619 99.3189H136.82C136.918 99.3189 137.012 99.3579 137.081 99.4273C137.15 99.4966 137.189 99.5907 137.189 99.6888C137.189 99.7869 137.15 99.881 137.081 99.9503C137.012 100.02 136.918 100.059 136.82 100.059Z" fill="#D0CDE1"/>
<path d="M121.288 70.2037L119.86 74.8687C119.86 74.8687 119.496 83.5654 114.716 82.3689C109.936 81.1723 116.11 71.0015 116.11 71.0015L117.504 68.8077L121.288 70.2037Z" fill="#A0616A"/>
<path d="M94.2028 70.2037L92.7752 74.8687C92.7752 74.8687 92.4104 83.5654 87.6307 82.3689C82.851 81.1723 89.0248 71.0015 89.0248 71.0015L90.4189 68.8077L94.2028 70.2037Z" fill="#A0616A"/>
<path d="M120.292 30.5175C120.292 30.5175 123.479 29.7198 124.475 35.1044C125.47 40.4889 126.665 55.8449 126.665 55.8449L121.886 71.9986C121.886 71.9986 117.106 69.406 116.11 69.8048L119.871 55.7809L116.707 41.4861C116.707 41.4861 119.496 30.5175 120.292 30.5175Z" fill="#D0CDE1"/>
<path opacity="0.15" d="M115.659 41.7588L119.841 55.7188L115.659 69.8782L118.049 55.7188L115.659 41.7588Z" fill="black"/>
<path d="M96.5927 41.4861L89.4231 69.8049C89.4231 69.8049 93.205 71.0547 94.5991 72.0519L96.5927 41.4861Z" fill="#D0CDE1"/>
<path d="M21.3818 112.654C32.3809 112.654 41.2974 103.725 41.2974 92.711C41.2974 81.6969 32.3809 72.7682 21.3818 72.7682C10.3828 72.7682 1.46625 81.6969 1.46625 92.711C1.46625 103.725 10.3828 112.654 21.3818 112.654Z" fill="#3F3D56"/>
<path opacity="0.1" d="M21.1274 110.302C30.5866 110.302 38.2548 102.623 38.2548 93.1508C38.2548 83.6787 30.5866 76 21.1274 76C11.6682 76 4 83.6787 4 93.1508C4 102.623 11.6682 110.302 21.1274 110.302Z" fill="black"/>
<path d="M21.0062 80.0789C21.5874 79.7509 22.2969 80.5118 21.9881 81.1402C21.8087 81.6525 21.1287 81.7887 20.7814 81.3983C20.4134 81.0235 20.5334 80.2828 21.0062 80.0789ZM14.7548 80.8082C15.1079 80.6509 15.5549 81.001 15.5188 81.4174C15.5563 81.8695 15.0455 82.2023 14.6856 81.9874C14.2088 81.7876 14.2634 80.9499 14.7548 80.8082ZM27.5584 82.0001C27.0066 81.928 26.9193 80.9892 27.4505 80.8001C27.8625 80.5827 28.2405 80.9905 28.3008 81.4131C28.2144 81.774 27.9352 82.1045 27.5584 82.0001ZM16.1773 83.6877C16.7675 83.2837 17.6098 83.8854 17.519 84.6274C17.4883 85.3766 16.5689 85.8107 16.0501 85.3042C15.5485 84.9063 15.6245 83.9936 16.1773 83.6877ZM25.1881 84.1164C25.4514 83.382 26.5185 83.3597 26.8182 84.0747C27.1145 84.6312 26.7501 85.3202 26.2222 85.5094C25.523 85.6506 24.8589 84.8326 25.1881 84.1164ZM20.2534 85.4677C20.2477 84.8364 20.779 84.3659 21.3334 84.3229C21.7011 84.4027 22.1019 84.5723 22.2597 84.9739C22.5537 85.5278 22.2926 86.2906 21.7614 86.5449C21.5185 86.6922 21.2313 86.6369 20.9667 86.6198C20.5623 86.4049 20.2218 85.9836 20.2534 85.4677ZM10.9567 86.3876C11.4959 86.0289 12.2234 86.6836 12.0192 87.3175C11.9068 87.8658 11.2258 88.0889 10.8364 87.7388C10.4208 87.4108 10.4867 86.6222 10.9567 86.3876ZM30.9201 86.3864C31.3776 86.002 32.1325 86.443 32.078 87.0681C32.1086 87.6381 31.456 88.068 31.0018 87.7745C30.5017 87.5312 30.4506 86.6984 30.9201 86.3864ZM22.8678 87.5214C23.6227 87.2279 24.5194 87.5791 24.9497 88.3075C25.5173 89.198 25.2153 90.5541 24.3345 91.0651C23.4218 91.6694 22.0891 91.1572 21.7521 90.0541C21.3694 89.0667 21.9269 87.8309 22.8678 87.5214ZM18.4385 87.6185C19.2751 87.1911 20.4011 87.5496 20.8053 88.4759C21.2809 89.3775 20.9131 90.6329 20.0629 91.0984C19.2115 91.6217 18.0105 91.225 17.5985 90.257C17.1365 89.3209 17.5467 88.0495 18.4385 87.6185ZM14.0034 89.2595C14.067 88.6761 14.5755 88.2964 15.0886 88.2572C15.6414 88.3293 16.083 88.794 16.1431 89.3994C16.1069 89.9989 15.6789 90.5847 15.0919 90.5811C14.4462 90.6413 13.88 89.946 14.0034 89.2595ZM27.1032 88.384C27.7661 87.9664 28.6866 88.5743 28.6572 89.3986C28.7026 90.2719 27.6838 90.8873 27.0237 90.3751C26.338 89.9485 26.3914 88.7472 27.1032 88.384ZM16.6359 91.4619C17.4113 91.231 18.2978 91.6266 18.6781 92.3979C19.0946 93.1742 18.9243 94.2527 18.2774 94.8221C17.4477 95.6573 15.9174 95.322 15.4758 94.1821C14.9683 93.1373 15.5847 91.737 16.6359 91.4619ZM25.0371 91.4576C25.7909 91.2243 26.6764 91.5387 27.0816 92.2818C27.6173 93.1318 27.3616 94.3995 26.564 94.9474C25.7285 95.5836 24.4343 95.2495 23.9746 94.2547C23.4173 93.2257 23.9781 91.7714 25.0371 91.4576ZM11.6491 92.4273C12.3188 92.1531 13.0612 92.953 12.7899 93.6716C12.6242 94.3263 11.7716 94.5683 11.3312 94.0856C10.8159 93.6324 11.0067 92.6238 11.6491 92.4273ZM29.8025 93.4702C29.7832 92.8696 30.1892 92.3377 30.7582 92.3045C31.2169 92.3831 31.6629 92.7836 31.6266 93.324C31.6686 94.0377 30.874 94.5228 30.3121 94.1875C30.0488 94.0426 29.9137 93.7502 29.8025 93.4702ZM8.35603 92.7798C8.75896 92.5895 9.25736 92.9674 9.16536 93.4517C9.14376 94 8.39576 94.2109 8.12096 93.7527C7.87816 93.4345 8.02349 92.9439 8.35603 92.7798ZM33.7618 92.7689C34.0456 92.5502 34.5008 92.7074 34.6132 93.0661C34.8038 93.4579 34.4542 93.9947 34.0468 93.9285C33.4748 93.9849 33.2897 93.0414 33.7618 92.7689ZM18.8245 95.401C19.8847 95.1026 21.0245 96.0595 21.0311 97.241C21.1003 98.435 19.9778 99.4937 18.8925 99.2179C18.0535 99.0718 17.3953 98.1972 17.4225 97.2797C17.4202 96.4022 18.0321 95.5866 18.8245 95.401ZM23.0234 95.3986C24.0995 95.073 25.2733 96.0471 25.2562 97.2559C25.313 98.4277 24.2255 99.4508 23.1629 99.2184C22.1629 99.0784 21.425 97.8894 21.7042 96.8391C21.8451 96.1393 22.3854 95.5702 23.0234 95.3986ZM14.9275 96.1259C15.6722 95.9883 16.3703 96.8875 16.0683 97.6527C15.8481 98.4682 14.7515 98.6894 14.2667 98.0233C13.698 97.3836 14.1226 96.2142 14.9275 96.1259ZM27.2416 96.1618C27.9056 95.8608 28.7206 96.4824 28.6696 97.2624C28.6962 98.121 27.69 98.713 27.0406 98.2119C26.3052 97.7619 26.439 96.4378 27.2416 96.1618ZM30.6834 99.898C30.4234 99.3735 30.8957 98.6783 31.4338 98.7754C31.7017 98.7705 31.889 98.9989 32.0605 99.1905C32.0957 99.5013 32.1548 99.8722 31.9164 100.112C31.5926 100.555 30.8593 100.429 30.6834 99.898ZM10.9544 98.9214C11.4574 98.5591 12.1811 99.0995 12.068 99.7358C12.0079 100.299 11.3528 100.62 10.9214 100.301C10.4583 100.011 10.4754 99.1856 10.9544 98.9214ZM20.8905 100.099C21.5489 99.785 22.3877 100.405 22.3253 101.19C22.3741 102.057 21.3366 102.658 20.6929 102.137C19.9778 101.69 20.097 100.375 20.8905 100.099ZM16.2885 101.261C16.8493 100.942 17.6018 101.494 17.5507 102.173C17.5678 102.731 17.0649 103.206 16.5563 103.123C16.1351 103.114 15.8605 102.705 15.7254 102.316C15.7323 101.893 15.8934 101.421 16.2885 101.261ZM25.6103 101.271C26.187 100.885 27.0066 101.439 26.9521 102.166C26.9669 102.925 26.0406 103.411 25.5037 102.913C24.9838 102.522 25.0473 101.582 25.6103 101.271ZM27.2314 105.608C26.9749 105.188 27.2769 104.682 27.6934 104.587C28.0284 104.66 28.3825 104.933 28.3121 105.353C28.2633 105.922 27.4948 106.096 27.2314 105.608ZM14.3632 105.244C14.4654 104.911 14.7128 104.58 15.075 104.666C15.6028 104.707 15.7595 105.568 15.2975 105.833C14.882 106.137 14.4 105.721 14.3632 105.244ZM20.5714 105.626C20.6725 105.133 21.2615 104.894 21.6498 105.155C21.9063 105.274 21.9813 105.585 22.0471 105.849C22.0119 105.987 21.9805 106.124 21.9495 106.262C21.7906 106.466 21.5863 106.67 21.3218 106.662C20.8302 106.725 20.3867 106.123 20.5714 105.626Z" fill="#DD1100"/>
<path d="M42.4202 133.276C28.3579 135.376 14.0623 135.376 0 133.276V128.49C14.0772 130.378 28.343 130.378 42.4202 128.49V133.276Z" fill="#3F3D56"/>
<path d="M42.4202 125.897C28.3579 127.997 14.0623 127.997 0 125.897V121.111C14.0772 122.999 28.343 122.999 42.4202 121.111V125.897Z" fill="#3F3D56"/>
<path d="M42.4202 118.519C28.3579 120.619 14.0623 120.619 0 118.519V113.732C14.0772 115.62 28.343 115.62 42.4202 113.732V118.519Z" fill="#3F3D56"/>
</g>
<defs>
<clipPath id="clip0">
<rect width="179.639" height="140" fill="white"/>
</clipPath>
</defs>
</svg>
