<svg width="365" height="113" viewBox="0 0 365 113" fill="none" xmlns="http://www.w3.org/2000/svg">
<path fill-rule="evenodd" clip-rule="evenodd" d="M90.7592 56.0072L106.125 38.7027L83.5622 33.7655L85.8618 10.6996L64.7151 20.0152L53.0632 0L41.417 20.0132L20.2752 10.6908L22.569 33.7567L0.00290686 38.691L15.3662 56.0004L0 73.304L22.5632 78.2412L20.2646 101.306L41.4093 91.9896L53.0632 112.005L64.7084 91.9916L85.8521 101.313L83.5583 78.2471L106.122 73.3137L90.7592 56.0072ZM98.2128 69.0248L84.9032 64.4549L76.0728 52.9341L87.8177 57.3144L98.2128 69.0248ZM62.554 89.5997L54.594 103.28V88.7746L62.8677 76.6551L62.554 89.5997ZM48.6112 32.8849L34.9142 27.9963L26.7189 16.8895L41.083 23.2234L48.6112 32.8849ZM65.0502 23.2263L79.4132 16.8963L71.2121 27.9954L57.5191 32.884L65.0502 23.2263ZM80.4202 34.4196L73.2774 44.5856L73.6821 29.8138L82.0014 18.5534L80.4202 34.4196ZM53.0632 85.58L43.4794 71.5449L53.0632 58.4924L62.646 71.5449L53.0632 85.58ZM36.019 48.5149L35.5533 31.4864L51.5324 37.1895V53.7622L36.019 48.5149ZM54.594 37.1895L70.5731 31.4864L70.1064 48.5159L54.594 53.7622V37.1895ZM25.711 34.4128L24.1327 18.5505L32.4442 29.8128L32.848 44.5817L25.711 34.4128ZM50.5854 56.6856L41.0055 69.7333L24.7321 64.9175L35.0663 51.4374L50.5854 56.6856ZM43.2557 76.6532L51.5324 88.7746V103.283L43.5646 89.5978L43.2557 76.6532ZM55.54 56.6856L71.0611 51.4374L81.3952 64.9175L65.1199 69.7342L55.54 56.6856ZM100.353 40.5862L88.2631 54.2024L74.0055 48.8852L82.5707 36.6938L100.353 40.5862ZM53.0632 6.09377L62.2354 21.8481L53.0632 33.6119L43.8967 21.8472L53.0632 6.09377ZM5.7766 40.5736L23.5615 36.686L32.1208 48.8833L17.8652 54.1927L5.7766 40.5736ZM18.3068 57.3067L30.0565 52.9312L21.2241 64.453L7.9087 69.017L18.3068 57.3067ZM8.58163 72.0347L22.1895 67.3706L36.3627 71.5643L24.1511 75.4422L8.58163 72.0347ZM25.6461 78.1907L40.1196 73.5936L40.4885 89.037L23.8345 96.3767L25.6461 78.1907ZM65.6301 89.0409L66.0049 73.5946L80.4764 78.1965L82.2851 96.3835L65.6301 89.0409ZM81.9714 75.448L69.7597 71.5653L83.9379 67.3706L97.5476 72.0435L81.9714 75.448Z" fill="#DD1100"/>
<path fill-rule="evenodd" clip-rule="evenodd" d="M120 29.5699H128.445L132.42 51.5362L138.277 29.5699H145.701L152.656 51.9202L156.722 29.5699H164.746L157.881 62.4388H148.617L142.456 41.932L136.154 62.4375H126.434L120 29.5699ZM365 62.4388H356.555L352.587 40.392L346.724 62.4375H339.296L332.373 40.0922L328.28 62.4375H320.253L327.119 29.5687H336.382L342.542 50.0928L348.85 29.5699H358.564L365 62.4388ZM182.432 29C193.116 29 198.691 35.4548 198.691 46.0031C198.691 56.4572 193.024 63 182.432 63C171.843 63 166.176 56.4572 166.176 46.0031C166.176 35.4561 171.749 29 182.432 29ZM182.432 56.5018C187.682 56.5018 189.769 51.416 189.769 46.0031C189.769 40.3003 187.682 35.5007 182.432 35.5007C177.182 35.5007 175.093 40.3003 175.093 46.0031C175.093 51.4172 177.183 56.5018 182.432 56.5018ZM203.523 29.565H212.163V55.9368H225.541V62.4313H203.523V29.565ZM229.118 29.565H250.803V35.7819H237.756V42.9888H250.246V49.2008H237.756V62.4313H229.118V29.565ZM255.32 29.565H270.741C276.502 29.565 281.194 32.2002 281.194 37.8559C281.194 42.2367 279.15 45.1532 274.97 46.1419V46.2385C277.754 46.9918 277.943 49.4882 279.568 53.4912L282.723 62.4313H273.715L271.859 56.5018C270.09 50.8523 268.979 49.4374 265.774 49.4374H263.959V62.4313H255.32V29.565ZM263.957 43.2254H266.239C269.023 43.2254 272.555 43.13 272.555 39.4083C272.555 36.3481 269.535 35.7819 266.239 35.7819H263.959L263.957 43.2254ZM295.812 29.565H306.405L318.899 62.4313H309.423L307.008 55.419H294.841L292.285 62.4313H283.503L295.812 29.565ZM301.109 36.3493H301.019L296.839 49.2008H304.964L301.109 36.3493Z" fill="black"/>
<path d="M125.503 80.626C124.705 80.626 124.088 80.9268 123.65 81.5283C123.213 82.1253 122.994 82.9593 122.994 84.0303C122.994 86.2588 123.83 87.373 125.503 87.373C126.205 87.373 127.055 87.1976 128.053 86.8467V88.624C127.232 88.9658 126.316 89.1367 125.305 89.1367C123.851 89.1367 122.739 88.6969 121.969 87.8174C121.199 86.9333 120.813 85.6663 120.813 84.0166C120.813 82.9775 121.003 82.0684 121.381 81.2891C121.759 80.5052 122.301 79.9059 123.008 79.4912C123.719 79.0719 124.55 78.8623 125.503 78.8623C126.474 78.8623 127.449 79.097 128.429 79.5664L127.745 81.2891C127.371 81.1113 126.995 80.9564 126.617 80.8242C126.239 80.6921 125.868 80.626 125.503 80.626Z" fill="#A3A3A3"/>
<path d="M139.957 83.9893C139.957 85.6436 139.547 86.915 138.726 87.8037C137.906 88.6924 136.73 89.1367 135.199 89.1367C133.668 89.1367 132.492 88.6924 131.672 87.8037C130.851 86.915 130.441 85.639 130.441 83.9756C130.441 82.3122 130.851 81.043 131.672 80.168C132.497 79.2884 133.677 78.8486 135.213 78.8486C136.749 78.8486 137.922 79.2907 138.733 80.1748C139.549 81.0589 139.957 82.3304 139.957 83.9893ZM132.663 83.9893C132.663 85.1058 132.875 85.9466 133.299 86.5117C133.722 87.0768 134.356 87.3594 135.199 87.3594C136.89 87.3594 137.735 86.236 137.735 83.9893C137.735 81.738 136.894 80.6123 135.213 80.6123C134.37 80.6123 133.734 80.8971 133.305 81.4668C132.877 82.0319 132.663 82.8727 132.663 83.9893Z" fill="#A3A3A3"/>
<path d="M146.96 89L144.553 81.1592H144.492C144.578 82.7542 144.622 83.8184 144.622 84.3516V89H142.728V79.0059H145.613L147.978 86.6484H148.019L150.528 79.0059H153.413V89H151.437V84.2695C151.437 84.0462 151.439 83.7887 151.444 83.4971C151.453 83.2054 151.485 82.4307 151.54 81.1729H151.478L148.901 89H146.96Z" fill="#A3A3A3"/>
<path d="M158.754 83.709H159.452C160.103 83.709 160.591 83.5814 160.914 83.3262C161.238 83.0664 161.4 82.6904 161.4 82.1982C161.4 81.7015 161.263 81.3346 160.99 81.0977C160.721 80.8607 160.297 80.7422 159.718 80.7422H158.754V83.709ZM163.539 82.123C163.539 83.1986 163.202 84.0212 162.528 84.5908C161.858 85.1605 160.903 85.4453 159.663 85.4453H158.754V89H156.635V79.0059H159.828C161.04 79.0059 161.96 79.2679 162.589 79.792C163.223 80.3115 163.539 81.0885 163.539 82.123Z" fill="#A3A3A3"/>
<path d="M174.261 79.0059V85.4727C174.261 86.2109 174.095 86.8581 173.762 87.4141C173.434 87.9701 172.958 88.3962 172.333 88.6924C171.709 88.9886 170.971 89.1367 170.118 89.1367C168.833 89.1367 167.835 88.8086 167.124 88.1523C166.413 87.4915 166.058 86.5892 166.058 85.4453V79.0059H168.17V85.124C168.17 85.8942 168.325 86.4593 168.635 86.8193C168.945 87.1794 169.458 87.3594 170.173 87.3594C170.866 87.3594 171.367 87.1794 171.677 86.8193C171.991 86.4548 172.149 85.8851 172.149 85.1104V79.0059H174.261Z" fill="#A3A3A3"/>
<path d="M181.264 89H179.145V80.7695H176.431V79.0059H183.978V80.7695H181.264V89Z" fill="#A3A3A3"/>
<path d="M192.334 89L191.609 86.6211H187.966L187.241 89H184.958L188.485 78.9648H191.076L194.617 89H192.334ZM191.103 84.8438C190.433 82.6882 190.055 81.4691 189.969 81.1865C189.887 80.904 189.827 80.6807 189.791 80.5166C189.64 81.0999 189.21 82.5423 188.499 84.8438H191.103Z" fill="#A3A3A3"/>
<path d="M200.437 89H198.318V80.7695H195.604V79.0059H203.151V80.7695H200.437V89Z" fill="#A3A3A3"/>
<path d="M205.389 89V79.0059H207.508V89H205.389Z" fill="#A3A3A3"/>
<path d="M219.795 83.9893C219.795 85.6436 219.385 86.915 218.565 87.8037C217.744 88.6924 216.569 89.1367 215.037 89.1367C213.506 89.1367 212.33 88.6924 211.51 87.8037C210.69 86.915 210.279 85.639 210.279 83.9756C210.279 82.3122 210.69 81.043 211.51 80.168C212.335 79.2884 213.515 78.8486 215.051 78.8486C216.587 78.8486 217.76 79.2907 218.571 80.1748C219.387 81.0589 219.795 82.3304 219.795 83.9893ZM212.501 83.9893C212.501 85.1058 212.713 85.9466 213.137 86.5117C213.561 87.0768 214.194 87.3594 215.037 87.3594C216.728 87.3594 217.573 86.236 217.573 83.9893C217.573 81.738 216.733 80.6123 215.051 80.6123C214.208 80.6123 213.572 80.8971 213.144 81.4668C212.715 82.0319 212.501 82.8727 212.501 83.9893Z" fill="#A3A3A3"/>
<path d="M231.433 89H228.739L224.392 81.4395H224.33C224.417 82.7747 224.46 83.7272 224.46 84.2969V89H222.566V79.0059H225.239L229.58 86.4912H229.628C229.56 85.1924 229.525 84.2741 229.525 83.7363V79.0059H231.433V89Z" fill="#A3A3A3"/>
<path d="M243.223 89L240.817 81.1592H240.755C240.842 82.7542 240.885 83.8184 240.885 84.3516V89H238.992V79.0059H241.877L244.242 86.6484H244.283L246.792 79.0059H249.676V89H247.701V84.2695C247.701 84.0462 247.703 83.7887 247.708 83.4971C247.717 83.2054 247.749 82.4307 247.803 81.1729H247.742L245.165 89H243.223Z" fill="#A3A3A3"/>
<path d="M258.655 89H252.899V79.0059H258.655V80.7422H255.018V82.9365H258.402V84.6729H255.018V87.25H258.655V89Z" fill="#A3A3A3"/>
<path d="M267.202 89H261.446V79.0059H267.202V80.7422H263.566V82.9365H266.949V84.6729H263.566V87.25H267.202V89Z" fill="#A3A3A3"/>
<path d="M273.85 89H271.73V80.7695H269.017V79.0059H276.563V80.7695H273.85V89Z" fill="#A3A3A3"/>
<path d="M284.701 86.2246C284.701 87.127 284.375 87.8379 283.723 88.3574C283.076 88.877 282.174 89.1367 281.016 89.1367C279.95 89.1367 279.007 88.9362 278.186 88.5352V86.5664C278.861 86.8672 279.43 87.0791 279.895 87.2021C280.365 87.3252 280.793 87.3867 281.18 87.3867C281.645 87.3867 282.001 87.2979 282.247 87.1201C282.498 86.9424 282.623 86.6781 282.623 86.3271C282.623 86.1312 282.568 85.958 282.459 85.8076C282.349 85.6527 282.188 85.5046 281.973 85.3633C281.764 85.222 281.333 84.9964 280.681 84.6865C280.071 84.3994 279.613 84.1237 279.307 83.8594C279.002 83.5951 278.758 83.2874 278.576 82.9365C278.394 82.5856 278.303 82.1755 278.303 81.7061C278.303 80.8219 278.601 80.127 279.198 79.6211C279.8 79.1152 280.629 78.8623 281.686 78.8623C282.206 78.8623 282.7 78.9238 283.17 79.0469C283.644 79.1699 284.138 79.3431 284.653 79.5664L283.97 81.2139C283.436 80.9951 282.994 80.8424 282.643 80.7559C282.297 80.6693 281.955 80.626 281.618 80.626C281.217 80.626 280.909 80.7194 280.695 80.9062C280.481 81.0931 280.374 81.3369 280.374 81.6377C280.374 81.8245 280.417 81.9886 280.504 82.1299C280.59 82.2666 280.727 82.401 280.914 82.5332C281.105 82.6608 281.554 82.8932 282.261 83.2305C283.195 83.6771 283.835 84.126 284.181 84.5771C284.528 85.0238 284.701 85.5729 284.701 86.2246Z" fill="#A3A3A3"/>
<path d="M295.794 80.626C294.997 80.626 294.379 80.9268 293.942 81.5283C293.504 82.1253 293.286 82.9593 293.286 84.0303C293.286 86.2588 294.122 87.373 295.794 87.373C296.496 87.373 297.346 87.1976 298.344 86.8467V88.624C297.524 88.9658 296.608 89.1367 295.596 89.1367C294.142 89.1367 293.03 88.6969 292.26 87.8174C291.49 86.9333 291.105 85.6663 291.105 84.0166C291.105 82.9775 291.294 82.0684 291.672 81.2891C292.051 80.5052 292.593 79.9059 293.299 79.4912C294.01 79.0719 294.842 78.8623 295.794 78.8623C296.765 78.8623 297.74 79.097 298.72 79.5664L298.037 81.2891C297.663 81.1113 297.287 80.9564 296.909 80.8242C296.53 80.6921 296.159 80.626 295.794 80.626Z" fill="#A3A3A3"/>
<path d="M307.295 89L306.571 86.6211H302.927L302.202 89H299.919L303.446 78.9648H306.037L309.578 89H307.295ZM306.065 84.8438C305.395 82.6882 305.016 81.4691 304.93 81.1865C304.848 80.904 304.789 80.6807 304.752 80.5166C304.602 81.0999 304.171 82.5423 303.46 84.8438H306.065Z" fill="#A3A3A3"/>
<path d="M313.662 83.4424H314.346C315.016 83.4424 315.51 83.3307 315.829 83.1074C316.148 82.8841 316.308 82.5332 316.308 82.0547C316.308 81.5807 316.144 81.2435 315.815 81.043C315.492 80.8424 314.988 80.7422 314.305 80.7422H313.662V83.4424ZM313.662 85.165V89H311.543V79.0059H314.455C315.813 79.0059 316.818 79.2542 317.47 79.751C318.121 80.2432 318.447 80.9928 318.447 82C318.447 82.5879 318.285 83.112 317.962 83.5723C317.638 84.028 317.18 84.3857 316.588 84.6455C318.092 86.8923 319.072 88.3438 319.527 89H317.176L314.79 85.165H313.662Z" fill="#A3A3A3"/>
<path d="M329.777 83.9072C329.777 85.5524 329.308 86.8125 328.369 87.6875C327.435 88.5625 326.083 89 324.315 89H321.485V79.0059H324.623C326.254 79.0059 327.521 79.4365 328.424 80.2979C329.326 81.1592 329.777 82.3623 329.777 83.9072ZM327.576 83.9619C327.576 81.8154 326.628 80.7422 324.732 80.7422H323.604V87.25H324.513C326.555 87.25 327.576 86.154 327.576 83.9619Z" fill="#A3A3A3"/>
<path d="M338.667 89L337.942 86.6211H334.298L333.574 89H331.291L334.818 78.9648H337.409L340.95 89H338.667ZM337.436 84.8438C336.766 82.6882 336.388 81.4691 336.301 81.1865C336.219 80.904 336.16 80.6807 336.124 80.5166C335.973 81.0999 335.543 82.5423 334.832 84.8438H337.436Z" fill="#A3A3A3"/>
<path d="M351.781 89H349.087L344.74 81.4395H344.678C344.765 82.7747 344.808 83.7272 344.808 84.2969V89H342.914V79.0059H345.587L349.928 86.4912H349.976C349.908 85.1924 349.873 84.2741 349.873 83.7363V79.0059H351.781V89Z" fill="#A3A3A3"/>
<path d="M364.074 83.9893C364.074 85.6436 363.664 86.915 362.844 87.8037C362.024 88.6924 360.848 89.1367 359.317 89.1367C357.785 89.1367 356.61 88.6924 355.789 87.8037C354.969 86.915 354.559 85.639 354.559 83.9756C354.559 82.3122 354.969 81.043 355.789 80.168C356.614 79.2884 357.794 78.8486 359.33 78.8486C360.866 78.8486 362.04 79.2907 362.851 80.1748C363.667 81.0589 364.074 82.3304 364.074 83.9893ZM356.78 83.9893C356.78 85.1058 356.992 85.9466 357.416 86.5117C357.84 87.0768 358.474 87.3594 359.317 87.3594C361.007 87.3594 361.853 86.236 361.853 83.9893C361.853 81.738 361.012 80.6123 359.33 80.6123C358.487 80.6123 357.851 80.8971 357.423 81.4668C356.995 82.0319 356.78 82.8727 356.78 83.9893Z" fill="#A3A3A3"/>
</svg>
