<svg width="10" height="16" viewBox="0 0 10 16" fill="none" xmlns="http://www.w3.org/2000/svg">
<path d="M10 5C10 3.67392 9.47322 2.40215 8.53553 1.46447C7.59785 0.526784 6.32608 0 5 0C3.67392 0 2.40215 0.526784 1.46447 1.46447C0.526784 2.40215 0 3.67392 0 5C0 5.26522 0.105357 5.51957 0.292893 5.70711C0.48043 5.89464 0.734784 6 1 6C1.26522 6 1.51957 5.89464 1.70711 5.70711C1.89464 5.51957 2 5.26522 2 5C2 4.40666 2.17595 3.82664 2.50559 3.33329C2.83524 2.83994 3.30377 2.45542 3.85195 2.22836C4.40013 2.0013 5.00333 1.94189 5.58527 2.05764C6.16721 2.1734 6.70176 2.45912 7.12132 2.87868C7.54088 3.29824 7.8266 3.83279 7.94236 4.41473C8.05811 4.99667 7.9987 5.59987 7.77164 6.14805C7.54458 6.69623 7.16006 7.16476 6.66671 7.49441C6.17336 7.82405 5.59334 8 5 8C4.73478 8 4.48043 8.10536 4.29289 8.29289C4.10536 8.48043 4 8.73478 4 9V11C4 11.2652 4.10536 11.5196 4.29289 11.7071C4.48043 11.8946 4.73478 12 5 12C5.26522 12 5.51957 11.8946 5.70711 11.7071C5.89464 11.5196 6 11.2652 6 11V9.9C7.12936 9.66947 8.1444 9.05582 8.87331 8.1629C9.60222 7.26999 10.0002 6.15265 10 5V5Z" fill="url(#paint0_linear)"/>
<path d="M5 16C5.55228 16 6 15.5523 6 15C6 14.4477 5.55228 14 5 14C4.44772 14 4 14.4477 4 15C4 15.5523 4.44772 16 5 16Z" fill="url(#paint1_linear)"/>
<defs>
<linearGradient id="paint0_linear" x1="-3.35276e-09" y1="3.66" x2="10.2547" y2="4.41908" gradientUnits="userSpaceOnUse">
<stop stop-color="#FE7B59"/>
<stop offset="1" stop-color="#DD1100"/>
<stop offset="1" stop-color="#FE497A"/>
</linearGradient>
<linearGradient id="paint1_linear" x1="4" y1="14.61" x2="6.04604" y2="14.7917" gradientUnits="userSpaceOnUse">
<stop stop-color="#FE7B59"/>
<stop offset="1" stop-color="#DD1100"/>
<stop offset="1" stop-color="#FE497A"/>
</linearGradient>
</defs>
</svg>
