<svg width="26" height="18" viewBox="0 0 26 18" fill="none" xmlns="http://www.w3.org/2000/svg">
<path d="M9.44386 16.8087C9.65809 16.5948 9.77916 16.3049 9.78072 16.0021C9.78228 15.6993 9.66421 15.4082 9.45219 15.1921L4.10885 9.83872L24.4472 9.83872C24.7426 9.82743 25.0222 9.70213 25.2273 9.4891C25.4323 9.27607 25.5469 8.9919 25.5469 8.69622C25.5469 8.40055 25.4323 8.11637 25.2273 7.90334C25.0222 7.69032 24.7426 7.56501 24.4472 7.55372L4.11386 7.55372L9.46219 2.20206C9.67221 1.98488 9.78892 1.69414 9.78736 1.39203C9.7858 1.08991 9.6661 0.800392 9.45385 0.585388C9.23933 0.373474 8.9495 0.255333 8.64796 0.256895C8.34643 0.258458 8.05783 0.379598 7.84552 0.593724L0.602188 7.88539C0.505632 7.9927 0.427873 8.11554 0.372187 8.24872C0.312541 8.38767 0.28246 8.53752 0.283855 8.68872C0.285854 8.98876 0.405547 9.27603 0.617186 9.48872L7.85886 16.7837C7.96122 16.8895 8.08345 16.9741 8.21855 17.0327C8.35365 17.0912 8.49896 17.1225 8.64617 17.1249C8.79339 17.1272 8.93961 17.1005 9.07649 17.0462C9.21336 16.992 9.3382 16.9113 9.44386 16.8087V16.8087Z" fill="url(#paint0_linear)"/>
<defs>
<linearGradient id="paint0_linear" x1="25.5469" y1="11.9802" x2="-0.0486143" y2="8.57513" gradientUnits="userSpaceOnUse">
<stop stop-color="#E9722E"/>
<stop offset="1" stop-color="#DD1100"/>
</linearGradient>
</defs>
</svg>
