<svg width="26" height="18" viewBox="0 0 26 18" fill="none" xmlns="http://www.w3.org/2000/svg">
<path d="M16.103 16.8087C15.8888 16.5948 15.7677 16.3049 15.7662 16.0021C15.7646 15.6993 15.8827 15.4082 16.0947 15.1921L21.438 9.83872L1.09969 9.83872C0.80423 9.82743 0.524632 9.70213 0.319588 9.4891C0.114544 9.27607 0 8.9919 0 8.69622C0 8.40055 0.114544 8.11637 0.319588 7.90334C0.524632 7.69032 0.80423 7.56501 1.09969 7.55372L21.433 7.55372L16.0847 2.20206C15.8747 1.98488 15.758 1.69414 15.7595 1.39202C15.7611 1.08991 15.8808 0.80039 16.093 0.585386C16.3075 0.373472 16.5974 0.255331 16.8989 0.256893C17.2004 0.258457 17.489 0.379597 17.7014 0.593721L24.9447 7.88539C25.0412 7.9927 25.119 8.11553 25.1747 8.24872C25.2343 8.38767 25.2644 8.53751 25.263 8.68872C25.261 8.98876 25.1413 9.27603 24.9297 9.48872L17.688 16.7837C17.5857 16.8895 17.4634 16.9741 17.3283 17.0327C17.1932 17.0912 17.0479 17.1225 16.9007 17.1249C16.7535 17.1272 16.6073 17.1005 16.4704 17.0462C16.3335 16.992 16.2087 16.9113 16.103 16.8087Z" fill="#DDDDDD"/>
</svg>
