<svg width="26" height="18" viewBox="0 0 26 18" fill="none" xmlns="http://www.w3.org/2000/svg">
<path d="M16.3867 0.573115C16.1725 0.787064 16.0514 1.07696 16.0498 1.37973C16.0483 1.6825 16.1664 1.97364 16.3784 2.18978L21.7217 7.54311H1.38338C1.08792 7.5544 0.808323 7.67971 0.60328 7.89274C0.398236 8.10576 0.283691 8.38994 0.283691 8.68561C0.283691 8.98129 0.398236 9.26547 0.60328 9.47849C0.808323 9.69152 1.08792 9.81683 1.38338 9.82812H21.7167L16.3684 15.1798C16.1584 15.397 16.0416 15.6877 16.0432 15.9898C16.0448 16.2919 16.1645 16.5814 16.3767 16.7964C16.5912 17.0084 16.8811 17.1265 17.1826 17.1249C17.4841 17.1234 17.7727 17.0022 17.985 16.7881L25.2284 9.49645C25.3249 9.38913 25.4027 9.2663 25.4584 9.13312C25.518 8.99416 25.5481 8.84432 25.5467 8.69312C25.5447 8.39307 25.425 8.10581 25.2134 7.89312L17.9717 0.598116C17.8693 0.492295 17.7471 0.407695 17.612 0.349159C17.4769 0.290623 17.3316 0.259297 17.1844 0.256975C17.0372 0.254653 16.891 0.281381 16.7541 0.335628C16.6172 0.389874 16.4924 0.470575 16.3867 0.573115V0.573115Z" fill="url(#paint0_linear)"/>
<defs>
<linearGradient id="paint0_linear" x1="0.283691" y1="5.40161" x2="25.8792" y2="8.80671" gradientUnits="userSpaceOnUse">
<stop stop-color="#E9722E"/>
<stop offset="1" stop-color="#DD1100"/>
</linearGradient>
</defs>
</svg>
