<svg width="26" height="18" viewBox="0 0 26 18" fill="none" xmlns="http://www.w3.org/2000/svg">
<path d="M9.16016 0.573115C9.3744 0.787064 9.49547 1.07696 9.49703 1.37973C9.49859 1.6825 9.38052 1.97364 9.1685 2.18978L3.82516 7.54312H24.1635C24.459 7.5544 24.7386 7.67971 24.9436 7.89274C25.1486 8.10576 25.2632 8.38994 25.2632 8.68561C25.2632 8.98129 25.1486 9.26547 24.9436 9.47849C24.7386 9.69152 24.459 9.81683 24.1635 9.82812H3.83016L9.1785 15.1798C9.38852 15.397 9.50523 15.6877 9.50367 15.9898C9.50211 16.2919 9.38241 16.5814 9.17016 16.7964C8.95564 17.0084 8.66581 17.1265 8.36427 17.1249C8.06274 17.1234 7.77414 17.0022 7.56183 16.7881L0.318497 9.49645C0.221941 9.38913 0.144182 9.2663 0.0884972 9.13312C0.0288506 8.99416 -0.00123024 8.84432 0.000164032 8.69312C0.00216293 8.39307 0.121857 8.10581 0.333496 7.89312L7.57516 0.598116C7.67753 0.492295 7.79976 0.407695 7.93486 0.349159C8.06995 0.290623 8.21527 0.259297 8.36248 0.256975C8.50969 0.254653 8.65592 0.281381 8.7928 0.335628C8.92967 0.389874 9.05451 0.470575 9.16016 0.573115Z" fill="#DDDDDD"/>
</svg>
