<?xml version="1.0" encoding="UTF-8"?>
<svg width="307px" height="37px" viewBox="0 0 307 37" version="1.1" xmlns="http://www.w3.org/2000/svg" xmlns:xlink="http://www.w3.org/1999/xlink">
    <!-- Generator: Sketch 63.1 (92452) - https://sketch.com -->
    <title>Group 11</title>
    <desc>Created with Sketch.</desc>
    <defs>
        <path d="M167.174,36.134926 L167.174,34.0950341 C167.548174,34.1079367 167.860416,34.1143879 168.110725,34.1143879 C168.361034,34.1143879 168.626827,34.069229 168.908102,33.9789112 C169.189377,33.8885935 169.425494,33.7569875 169.616451,33.5840935 C169.998367,33.2357248 170.189324,32.7376867 170.189324,32.0899791 C170.189324,31.4422715 170.006108,30.957136 169.639676,30.6345724 C169.461621,30.4797419 169.245503,30.3655544 168.991323,30.2920099 C168.737143,30.2184654 168.465545,30.1816932 168.176528,30.1816932 C167.887511,30.1816932 167.62817,30.1920152 167.398505,30.2126593 C167.168839,30.2333034 166.941755,30.2436254 166.71725,30.2436254 L166.71725,30.2436254 L166.31082,30.2436254 L166.31082,36.134926 L167.174,36.134926 Z M167.812676,33.4795829 C167.575269,33.4795829 167.362377,33.4666803 167.174,33.4408753 L167.174,33.4408753 L167.174,30.8745597 C167.364958,30.82553 167.652039,30.8010152 168.035245,30.8010152 C168.41845,30.8010152 168.730047,30.8990745 168.970034,31.0951932 C169.210021,31.2913118 169.330015,31.6396804 169.330015,32.140299 C169.330015,32.6409177 169.182926,33.0021888 168.888748,33.2241126 C168.757142,33.3247524 168.604247,33.3924907 168.430063,33.4273276 C168.255878,33.4621644 168.050083,33.4795829 167.812676,33.4795829 Z M174.696318,36.1968582 C175.488534,36.1968582 176.139467,35.9284853 176.649118,35.3917396 C177.158768,34.8549938 177.413593,34.0924536 177.413593,33.1041189 C177.413593,32.2319071 177.186509,31.5312991 176.732339,31.0022949 C176.265267,30.4552271 175.639494,30.1816932 174.855019,30.1816932 C174.075706,30.1816932 173.43703,30.4307123 172.938992,30.9287504 C172.691263,31.1764792 172.491919,31.4925914 172.340959,31.8770872 C172.189999,32.2615829 172.114519,32.7118816 172.114519,33.2279833 C172.114519,34.1001951 172.346765,34.8130606 172.811257,35.3665796 C173.275748,35.9200987 173.904102,36.1968582 174.696318,36.1968582 Z M174.820182,35.5349578 C174.224085,35.5349578 173.762174,35.2988413 173.434449,34.8266082 C173.13511,34.3956633 172.985441,33.8537566 172.985441,33.200888 C172.985441,32.4318965 173.167367,31.8357991 173.531218,31.4125957 C173.864104,31.0306804 174.296339,30.8397228 174.827924,30.8397228 C175.36725,30.8397228 175.794324,31.0693881 176.109146,31.5287186 C176.395583,31.9519219 176.538801,32.4912482 176.538801,33.1466973 C176.538801,33.9105278 176.377519,34.5027544 176.054956,34.9233773 C175.900125,35.124657 175.713683,35.2769069 175.49563,35.3801273 C175.277577,35.4833476 175.052428,35.5349578 174.820182,35.5349578 Z M181.498674,36.1968582 L182.636678,32.3377079 L182.768284,31.6293584 L182.903761,32.3338372 L184.026282,36.1968582 L184.870108,36.1968582 L186.391318,30.2436254 L185.524267,30.2436254 L184.649475,34.0718095 L184.467549,35.1440108 L184.212078,34.0679388 L183.085686,30.2436254 L182.462494,30.2436254 L181.351585,34.0679388 L181.154176,35.1362692 L180.960638,34.0679388 L180.023913,30.2436254 L179.137509,30.2436254 L180.759358,36.1968582 L181.498674,36.1968582 Z M192.152438,36.134926 L192.152438,35.4575425 L189.342265,35.4575425 L189.342265,33.4331337 L191.19636,33.4331337 L191.19636,32.7673626 L189.342265,32.7673626 L189.342265,30.9093966 L191.869873,30.9093966 L191.869873,30.2436254 L188.479085,30.2436254 L188.479085,36.134926 L192.152438,36.134926 Z M195.304665,36.134926 L195.304665,33.6266719 L195.912375,33.6266719 C196.074947,33.6266719 196.214294,33.6240913 196.330417,33.6189303 C196.518794,33.6808625 196.692979,33.8395638 196.85297,34.0950341 C196.925224,34.211157 196.992318,34.338247 197.05425,34.4763042 C197.116182,34.6143614 197.175534,34.7549991 197.232305,34.8982173 C197.289076,35.0414356 197.343267,35.1827184 197.394877,35.3220658 C197.446487,35.4614133 197.492936,35.5749557 197.534224,35.6626929 C197.575513,35.7504302 197.61551,35.8381675 197.654218,35.9259048 C197.692926,36.0136421 197.730343,36.0833158 197.76647,36.134926 L197.76647,36.134926 L198.745773,36.134926 C198.544493,35.7839768 198.340633,35.368515 198.134193,34.8885404 C198.07226,34.7466125 198.007748,34.6046845 197.940654,34.4627566 C197.705828,33.9518159 197.478743,33.6215108 197.2594,33.4718414 C197.589705,33.3557185 197.849692,33.1628255 198.039359,32.8931624 C198.229026,32.6234992 198.32386,32.271905 198.32386,31.8383796 C198.32386,31.2732482 198.139354,30.8500449 197.770341,30.5687695 C197.594866,30.434583 197.38391,30.3365237 197.137471,30.2745915 C196.891033,30.2126593 196.62137,30.1816932 196.328482,30.1816932 C196.035594,30.1816932 195.758835,30.1920152 195.498203,30.2126593 C195.237572,30.2333034 195.010487,30.2436254 194.816949,30.2436254 L194.816949,30.2436254 L194.441485,30.2436254 L194.441485,36.134926 L195.304665,36.134926 Z M196.214294,33.0383159 L195.811735,33.0383159 C195.597553,33.0383159 195.42853,33.0305744 195.304665,33.0150914 L195.304665,33.0150914 L195.304665,30.886172 C195.526589,30.8397228 195.78722,30.8164983 196.086559,30.8164983 C196.602661,30.8164983 196.960061,30.901655 197.15876,31.0719686 C197.347138,31.2371211 197.441326,31.5067842 197.441326,31.880958 C197.441326,32.6525299 197.032316,33.0383159 196.214294,33.0383159 L196.214294,33.0383159 Z M204.657854,36.134926 L204.657854,35.4575425 L201.84768,35.4575425 L201.84768,33.4331337 L203.701775,33.4331337 L203.701775,32.7673626 L201.84768,32.7673626 L201.84768,30.9093966 L204.375288,30.9093966 L204.375288,30.2436254 L200.9845,30.2436254 L200.9845,36.134926 L204.657854,36.134926 Z M208.750676,36.1968582 C209.612565,36.1968582 210.29382,35.9233243 210.794438,35.3762565 C211.31054,34.8085447 211.568591,34.0240701 211.568591,33.0228329 C211.568591,32.1119134 211.338925,31.4151762 210.879595,30.9326211 C210.407362,30.4320025 209.705464,30.1816932 208.7739,30.1816932 L208.7739,30.1816932 L207.380426,30.2436254 L206.9469,30.2436254 L206.9469,36.134926 L207.275915,36.134926 L208.750676,36.1968582 Z M208.816479,35.5581824 C208.351987,35.5581824 208.017811,35.5336675 207.813951,35.4846379 L207.813951,35.4846379 L207.813951,30.8668182 C208.007489,30.82553 208.268766,30.804886 208.59778,30.804886 C208.926795,30.804886 209.222263,30.845529 209.484185,30.926815 C209.746107,31.008101 209.964805,31.1416423 210.140279,31.3274389 C210.315754,31.510655 210.448005,31.7512874 210.537032,32.0493361 C210.62606,32.3473848 210.670574,32.7112365 210.670574,33.1408912 C210.670574,33.5705458 210.624125,33.9363329 210.531226,34.2382523 C210.270595,35.1001421 209.699012,35.5401188 208.816479,35.5581824 Z M219.456186,36.1891167 C220.266466,36.1891167 220.866434,36.0188031 221.256091,35.678176 C221.591557,35.383998 221.75929,34.9478921 221.75929,34.3698583 C221.75929,34.0034261 221.634135,33.6808625 221.383826,33.4021676 C221.128356,33.1157312 220.822565,32.9647715 220.466455,32.9492884 C220.763214,32.8718732 220.991589,32.6899473 221.15158,32.4035109 C221.223834,32.2744855 221.276735,32.1383637 221.310281,31.9951454 C221.343828,31.8519272 221.360601,31.6945162 221.360601,31.5229124 C221.360601,31.3513086 221.321894,31.1803499 221.244478,31.0100364 C221.001911,30.4603881 220.400652,30.185564 219.440703,30.185564 L219.440703,30.185564 L218.085936,30.2436254 L217.683377,30.2397546 L217.683377,36.134926 L218.113032,36.134926 C218.600748,36.1710531 219.048466,36.1891167 219.456186,36.1891167 Z M219.076851,32.8060702 C218.829123,32.8060702 218.651068,32.7970384 218.542686,32.7789749 L218.542686,32.7789749 L218.542686,30.8435936 C218.627843,30.810047 218.874281,30.7932737 219.282002,30.7932737 C220.110345,30.7932737 220.524517,31.0964834 220.524517,31.7029029 C220.524517,32.053852 220.435489,32.3286762 220.257434,32.5273753 C220.092281,32.7080109 219.878099,32.7983287 219.614887,32.7983287 L219.614887,32.7983287 L219.076851,32.8060702 Z M219.247165,35.5620531 C218.872991,35.5620531 218.638165,35.5323773 218.542686,35.4730256 L218.542686,35.4730256 L218.542686,33.4331337 C218.656229,33.4176507 218.853637,33.4099092 219.134913,33.4099092 L219.134913,33.4099092 L219.518118,33.4137799 C219.98519,33.4137799 220.329688,33.4982916 220.551612,33.6673149 C220.773536,33.8363382 220.884497,34.1111623 220.884497,34.4917873 C220.884497,34.8724123 220.759343,35.150462 220.509034,35.3259366 C220.38775,35.4110934 220.240661,35.4717353 220.067767,35.5078624 C219.894873,35.5439896 219.621339,35.5620531 219.247165,35.5620531 Z M226.266283,36.134926 L226.266283,33.8395638 L228.174569,30.2436254 L227.268811,30.2436254 L225.987589,32.7983287 L225.848241,33.2047587 L225.681798,32.7983287 L224.373481,30.2436254 L223.452239,30.2436254 L225.391491,33.8395638 L225.391491,36.134926 L226.266283,36.134926 Z M236.410533,36.1968582 C236.59375,36.1968582 236.792449,36.1826654 237.006631,36.1542798 C237.220813,36.1258942 237.517572,36.0368667 237.896906,35.8871972 L237.896906,35.8871972 L237.893036,35.1556231 C237.841425,35.2020722 237.7653,35.2472311 237.664661,35.2910997 C237.30855,35.4407692 236.90212,35.515604 236.44537,35.515604 C235.854434,35.515604 235.383491,35.2962608 235.032542,34.8575743 C234.691915,34.4266294 234.521601,33.8614981 234.521601,33.1621803 C234.521601,32.4628626 234.694495,31.9080533 235.040284,31.4977525 C235.386072,31.0874516 235.855724,30.8823012 236.449241,30.8823012 C237.006631,30.8823012 237.4608,30.97778 237.81175,31.1687376 L237.81175,31.1687376 L237.935614,30.4023267 C237.884004,30.3894241 237.816265,30.3707154 237.732399,30.3462006 C237.648532,30.3216858 237.544667,30.2971709 237.420802,30.2726561 C237.296938,30.2481413 237.150494,30.2268521 236.981471,30.2087885 C236.812448,30.190725 236.581492,30.1816932 236.288604,30.1816932 C235.995717,30.1816932 235.684765,30.2487864 235.355751,30.3829729 C235.026736,30.5171593 234.737074,30.7132779 234.486764,30.9713288 C233.939697,31.5312991 233.666163,32.2809367 233.666163,33.2202418 C233.666163,34.1130977 233.915182,34.8317693 234.41322,35.3762565 C234.916419,35.9233243 235.58219,36.1968582 236.410533,36.1968582 Z M240.62722,36.134926 L241.153644,34.6446824 L243.561258,34.6446824 L244.064457,36.134926 L244.997311,36.134926 L242.798718,30.1816932 L241.966504,30.1816932 L239.71372,36.134926 L240.62722,36.134926 Z M243.344495,34.0021358 L241.382019,34.0021358 L242.218103,31.6448414 L242.388417,31.0951932 L242.55486,31.6448414 L243.344495,34.0021358 Z M247.944387,36.134926 L247.944387,33.6266719 L248.552097,33.6266719 C248.714669,33.6266719 248.854016,33.6240913 248.970139,33.6189303 C249.158516,33.6808625 249.332701,33.8395638 249.492692,34.0950341 C249.564946,34.211157 249.63204,34.338247 249.693972,34.4763042 C249.755904,34.6143614 249.815256,34.7549991 249.872027,34.8982173 C249.928798,35.0414356 249.982989,35.1827184 250.034599,35.3220658 C250.086209,35.4614133 250.132658,35.5749557 250.173946,35.6626929 C250.215235,35.7504302 250.255232,35.8381675 250.29394,35.9259048 C250.332648,36.0136421 250.370065,36.0833158 250.406192,36.134926 L250.406192,36.134926 L251.385495,36.134926 C251.184215,35.7839768 250.980355,35.368515 250.773915,34.8885404 C250.711982,34.7466125 250.64747,34.6046845 250.580376,34.4627566 C250.34555,33.9518159 250.118465,33.6215108 249.899122,33.4718414 C250.229427,33.3557185 250.489414,33.1628255 250.679081,32.8931624 C250.868748,32.6234992 250.963582,32.271905 250.963582,31.8383796 C250.963582,31.2732482 250.779076,30.8500449 250.410063,30.5687695 C250.234588,30.434583 250.023632,30.3365237 249.777193,30.2745915 C249.530755,30.2126593 249.261092,30.1816932 248.968204,30.1816932 C248.675316,30.1816932 248.398557,30.1920152 248.137925,30.2126593 C247.877294,30.2333034 247.650209,30.2436254 247.456671,30.2436254 L247.456671,30.2436254 L247.081207,30.2436254 L247.081207,36.134926 L247.944387,36.134926 Z M248.854016,33.0383159 L248.451457,33.0383159 C248.237275,33.0383159 248.068252,33.0305744 247.944387,33.0150914 L247.944387,33.0150914 L247.944387,30.886172 C248.166311,30.8397228 248.426942,30.8164983 248.726281,30.8164983 C249.242383,30.8164983 249.599783,30.901655 249.798482,31.0719686 C249.98686,31.2371211 250.081048,31.5067842 250.081048,31.880958 C250.081048,32.6525299 249.672038,33.0383159 248.854016,33.0383159 L248.854016,33.0383159 Z M255.427997,36.1968582 C256.289887,36.1968582 256.971141,35.9233243 257.47176,35.3762565 C257.987862,34.8085447 258.245912,34.0240701 258.245912,33.0228329 C258.245912,32.1119134 258.016247,31.4151762 257.556917,30.9326211 C257.084684,30.4320025 256.382785,30.1816932 255.451222,30.1816932 L255.451222,30.1816932 L254.057747,30.2436254 L253.624222,30.2436254 L253.624222,36.134926 L253.953237,36.134926 L255.427997,36.1968582 Z M255.4938,35.5581824 C255.029309,35.5581824 254.695133,35.5336675 254.491273,35.4846379 L254.491273,35.4846379 L254.491273,30.8668182 C254.684811,30.82553 254.946087,30.804886 255.275102,30.804886 C255.604117,30.804886 255.899585,30.845529 256.161507,30.926815 C256.423428,31.008101 256.642126,31.1416423 256.817601,31.3274389 C256.993076,31.510655 257.125327,31.7512874 257.214354,32.0493361 C257.303382,32.3473848 257.347895,32.7112365 257.347895,33.1408912 C257.347895,33.5705458 257.301446,33.9363329 257.208548,34.2382523 C256.947917,35.1001421 256.376334,35.5401188 255.4938,35.5581824 Z M260.817525,36.134926 L261.343948,34.6446824 L263.751563,34.6446824 L264.254762,36.134926 L265.187616,36.134926 L262.989023,30.1816932 L262.156809,30.1816932 L259.904025,36.134926 L260.817525,36.134926 Z M263.5348,34.0021358 L261.572323,34.0021358 L262.408408,31.6448414 L262.578722,31.0951932 L262.745165,31.6448414 L263.5348,34.0021358 Z M268.061148,36.134926 L268.061148,32.44996 L268.014698,31.4280787 L268.556605,32.3918986 L270.995186,36.134926 L271.796433,36.134926 L271.796433,30.2436254 L271.002927,30.2436254 L271.002927,34.0253604 L271.053247,35.0085341 L270.577143,34.1337417 L268.057277,30.2436254 L267.267641,30.2436254 L267.267641,36.134926 L268.061148,36.134926 Z M276.764048,36.1968582 C277.556264,36.1968582 278.207197,35.9284853 278.716847,35.3917396 C279.226498,34.8549938 279.481323,34.0924536 279.481323,33.1041189 C279.481323,32.2319071 279.254238,31.5312991 278.800069,31.0022949 C278.332997,30.4552271 277.707224,30.1816932 276.922749,30.1816932 C276.143436,30.1816932 275.50476,30.4307123 275.006722,30.9287504 C274.758993,31.1764792 274.559649,31.4925914 274.408689,31.8770872 C274.257729,32.2615829 274.182249,32.7118816 274.182249,33.2279833 C274.182249,34.1001951 274.414495,34.8130606 274.878986,35.3665796 C275.343478,35.9200987 275.971832,36.1968582 276.764048,36.1968582 Z M276.887912,35.5349578 C276.291815,35.5349578 275.829904,35.2988413 275.502179,34.8266082 C275.20284,34.3956633 275.053171,33.8537566 275.053171,33.200888 C275.053171,32.4318965 275.235097,31.8357991 275.598948,31.4125957 C275.931834,31.0306804 276.364069,30.8397228 276.895654,30.8397228 C277.43498,30.8397228 277.862054,31.0693881 278.176876,31.5287186 C278.463313,31.9519219 278.606531,32.4912482 278.606531,33.1466973 C278.606531,33.9105278 278.445249,34.5027544 278.122685,34.9233773 C277.967855,35.124657 277.781413,35.2769069 277.56336,35.3801273 C277.345307,35.4833476 277.120158,35.5349578 276.887912,35.5349578 Z" id="path-1"></path>
    </defs>
    <g id="asdf" stroke="none" stroke-width="1" fill="none" fill-rule="evenodd">
        <g id="Group-11">
            <g id="POWEREDBYCARDANO" fill-rule="nonzero" fill="#868383">
                <use xlink:href="#path-1"></use>
                <use xlink:href="#path-1"></use>
            </g>
            <path d="M169.900242,25.4936608 L169.900242,21.0226514 C169.900242,20.0713728 169.836824,19.0725303 169.709987,18.0261238 C169.583149,16.9797174 169.472167,16.0125841 169.377039,15.1247241 L169.377039,15.1247241 L169.472167,15.1247241 L170.946649,18.573109 L174.371252,25.4936608 L178.556878,25.4936608 L178.556878,10.0353836 L174.656635,10.0353836 L174.656635,14.506393 C174.656635,14.9820323 174.676454,15.4774899 174.71609,15.9927658 C174.755727,16.5080417 174.799327,17.0233176 174.846891,17.5385935 C174.894455,18.0538694 174.949946,18.5572544 175.013365,19.0487483 C175.076783,19.5402423 175.132275,19.9920996 175.179838,20.4043203 L175.179838,20.4043203 L175.084711,20.4043203 L173.610229,16.9321534 L170.185626,10.0353836 L166,10.0353836 L166,25.4936608 L169.900242,25.4936608 Z M186.071978,25.4936608 L186.071978,19.8335532 L191.208883,19.8335532 L191.208883,16.4089502 L186.071978,16.4089502 L186.071978,13.4599865 L192.065034,13.4599865 L192.065034,10.0353836 L181.98148,10.0353836 L181.98148,25.4936608 L186.071978,25.4936608 Z M201.768075,25.4936608 L201.768075,13.4599865 L205.858573,13.4599865 L205.858573,10.0353836 L193.587079,10.0353836 L193.587079,13.4599865 L197.677577,13.4599865 L197.677577,25.4936608 L201.768075,25.4936608 Z M215.371359,25.4936608 L216.132382,22.2117497 L220.4607,22.2117497 L221.221723,25.4936608 L225.55004,25.4936608 L220.841211,10.0353836 L215.894563,10.0353836 L211.185734,25.4936608 L215.371359,25.4936608 Z M219.723459,19.0487483 L216.869623,19.0487483 L217.131225,17.9785599 C217.32148,17.2333917 217.507773,16.4287685 217.690101,15.5646904 C217.872429,14.7006124 218.050794,13.8722073 218.225195,13.0794751 L218.225195,13.0794751 L218.320323,13.0794751 C218.510579,13.8563526 218.700834,14.6807941 218.89109,15.5527995 C219.081346,16.4248048 219.271602,17.2333917 219.461857,17.9785599 L219.461857,17.9785599 L219.723459,19.0487483 Z M233.350525,25.7790444 C235.506756,25.7790444 237.100148,25.1488223 238.1307,23.8883782 C239.161252,22.6279341 239.676528,20.6738493 239.676528,18.0261238 L239.676528,18.0261238 L239.676528,10.0353836 L235.728721,10.0353836 L235.728721,18.5017631 C235.728721,19.8811171 235.534502,20.852214 235.146063,21.4150538 C234.757624,21.9778937 234.159112,22.2593136 233.350525,22.2593136 C232.541938,22.2593136 231.951353,21.9778937 231.578769,21.4150538 C231.206184,20.852214 231.019892,19.8811171 231.019892,18.5017631 L231.019892,18.5017631 L231.019892,10.0353836 L226.929394,10.0353836 L226.929394,18.0261238 C226.929394,20.6738493 227.456561,22.6279341 228.510895,23.8883782 C229.565229,25.1488223 231.178439,25.7790444 233.350525,25.7790444 Z M249.807645,25.7790444 C250.758923,25.7790444 251.662638,25.5887887 252.518789,25.2082773 C253.374939,24.8277658 254.135962,24.2569987 254.801857,23.4959758 L254.801857,23.4959758 L252.566353,21.0226514 C252.233405,21.3873082 251.84893,21.6845828 251.412927,21.9144751 C250.976925,22.1443674 250.457685,22.2593136 249.855209,22.2593136 C248.856366,22.2593136 248.051743,21.8708748 247.441339,21.0939973 C246.830935,20.3171198 246.525734,19.1993674 246.525734,17.7407402 C246.525734,17.0431359 246.616898,16.4168775 246.799226,15.861965 C246.981555,15.3070525 247.227301,14.8393405 247.536467,14.4588291 C247.845633,14.0783176 248.210289,13.7850067 248.630437,13.5788964 C249.050585,13.372786 249.490552,13.2697308 249.950336,13.2697308 C250.457685,13.2697308 250.893688,13.360895 251.258345,13.5432234 C251.623001,13.7255518 251.995585,13.9831898 252.376097,14.3161373 L252.376097,14.3161373 L254.611602,11.795249 C254.056689,11.2403365 253.378903,10.7607335 252.578244,10.3564401 C251.777584,9.9521467 250.88576,9.75 249.902773,9.75 C248.90393,9.75 247.948688,9.9323284 247.037046,10.2969852 C246.125404,10.661642 245.320781,11.1888089 244.623176,11.8784859 C243.925572,12.5681629 243.370659,13.4163863 242.958439,14.4231561 C242.546218,15.429926 242.340108,16.5833513 242.340108,17.883432 C242.340108,19.1993674 242.538291,20.3527927 242.934657,21.3437079 C243.331023,22.3346231 243.870081,23.1590646 244.55183,23.8170323 C245.23358,24.475 246.026312,24.9664939 246.930027,25.2915141 C247.833742,25.6165343 248.792948,25.7790444 249.807645,25.7790444 Z M263.981696,25.4936608 L263.981696,13.4599865 L268.072194,13.4599865 L268.072194,10.0353836 L255.8007,10.0353836 L255.8007,13.4599865 L259.891198,13.4599865 L259.891198,25.4936608 L263.981696,25.4936608 Z M274.44576,25.4936608 L274.44576,10.0353836 L270.355262,10.0353836 L270.355262,25.4936608 L274.44576,25.4936608 Z M284.386622,25.7790444 C285.448883,25.7790444 286.423943,25.596716 287.311803,25.2320592 C288.199664,24.8674024 288.956723,24.3402355 289.582981,23.6505585 C290.20924,22.9608816 290.69677,22.1126581 291.045572,21.1058883 C291.394374,20.0991184 291.568775,18.9615478 291.568775,17.6931763 C291.568775,16.4248048 291.394374,15.2991252 291.045572,14.3161373 C290.69677,13.3331494 290.20924,12.5007806 289.582981,11.819031 C288.956723,11.1372813 288.199664,10.6220054 287.311803,10.2732032 C286.423943,9.92440108 285.448883,9.75 284.386622,9.75 C283.308506,9.75 282.329482,9.92440108 281.449549,10.2732032 C280.569616,10.6220054 279.816521,11.1333176 279.190262,11.80714 C278.564004,12.4809623 278.076474,13.3133311 277.727672,14.3042463 C277.378869,15.2951615 277.204468,16.4248048 277.204468,17.6931763 C277.204468,18.9615478 277.378869,20.0991184 277.727672,21.1058883 C278.076474,22.1126581 278.564004,22.9608816 279.190262,23.6505585 C279.816521,24.3402355 280.569616,24.8674024 281.449549,25.2320592 C282.329482,25.596716 283.308506,25.7790444 284.386622,25.7790444 Z M284.386622,22.2593136 C283.451198,22.2593136 282.717921,21.8510565 282.18679,21.0345424 C281.655659,20.2180283 281.390094,19.1042396 281.390094,17.6931763 C281.390094,16.2821131 281.655659,15.1921063 282.18679,14.4231561 C282.717921,13.6542059 283.451198,13.2697308 284.386622,13.2697308 C285.322046,13.2697308 286.055323,13.6542059 286.586454,14.4231561 C287.117584,15.1921063 287.383149,16.2821131 287.383149,17.6931763 C287.383149,19.1042396 287.117584,20.2180283 286.586454,21.0345424 C286.055323,21.8510565 285.322046,22.2593136 284.386622,22.2593136 Z M298.227725,25.4936608 L298.227725,21.0226514 C298.227725,20.0713728 298.164307,19.0725303 298.03747,18.0261238 C297.910633,16.9797174 297.79965,16.0125841 297.704522,15.1247241 L297.704522,15.1247241 L297.79965,15.1247241 L299.274132,18.573109 L302.698735,25.4936608 L306.884361,25.4936608 L306.884361,10.0353836 L302.984118,10.0353836 L302.984118,14.506393 C302.984118,14.9820323 303.003937,15.4774899 303.043573,15.9927658 C303.08321,16.5080417 303.12681,17.0233176 303.174374,17.5385935 C303.221938,18.0538694 303.277429,18.5572544 303.340848,19.0487483 C303.404266,19.5402423 303.459758,19.9920996 303.507322,20.4043203 L303.507322,20.4043203 L303.412194,20.4043203 L301.937712,16.9321534 L298.513109,10.0353836 L294.327483,10.0353836 L294.327483,25.4936608 L298.227725,25.4936608 Z" id="NFTAUCTION" fill="#DD1100" fill-rule="nonzero"></path>
            <g id="Group-21">
                <g id="Group-20">
                    <polygon id="Fill-1" fill="#231F20" points="37.9644173 10.0128403 41.9635354 10.0128403 43.8463741 20.4027366 46.6201493 10.0128403 50.1366305 10.0128403 53.4292127 20.5844744 55.3553222 10.0128403 59.1553942 10.0128403 55.9043078 25.5592957 51.5166392 25.5592957 48.5995153 15.8597366 45.6147112 25.5592957 41.0117977 25.5592957"></polygon>
                    <polygon id="Fill-2" fill="#231F20" points="153.991989 25.5592069 149.992871 25.5592069 148.113805 15.1318092 145.336701 25.5592069 141.819332 25.5592069 138.540064 14.9900138 136.601972 25.5592069 132.80079 25.5592069 136.052099 10.0127516 140.439546 10.0127516 143.356004 19.7200772 146.343249 10.0127516 150.944831 10.0127516"></polygon>
                    <g id="Group-19" transform="translate(0.000000, 0.108954)">
                        <path d="M67.5309084,22.6426821 C70.0175424,22.6426821 71.0065597,20.2370424 71.0065597,17.6767369 C71.0065597,14.9795179 70.0175424,12.7090164 67.5309084,12.7090164 C65.0447182,12.7090164 64.055479,14.9795179 64.055479,17.6767369 C64.055479,20.2370424 65.0447182,22.6426821 67.5309084,22.6426821 M67.5309084,9.63478588 C72.5913839,9.63478588 75.2311303,12.6879357 75.2311303,17.6767369 C75.2311303,22.6211576 72.5476692,25.7158032 67.5309084,25.7158032 C62.5163666,25.7158032 59.8329055,22.6211576 59.8329055,17.6767369 C59.8329055,12.6879357 62.4722081,9.63478588 67.5309084,9.63478588" id="Fill-3" fill="#231F20"></path>
                        <polygon id="Fill-5" fill="#231F20" points="77.5191176 9.90162305 81.6112127 9.90162305 81.6112127 22.3747354 87.9467372 22.3747354 87.9467372 25.4469689 77.5191176 25.4469689"></polygon>
                        <polygon id="Fill-7" fill="#231F20" points="89.640604 9.90162305 99.9100075 9.90162305 99.9100075 12.8422686 93.7315896 12.8422686 93.7315896 16.2511274 99.6468317 16.2511274 99.6468317 19.189332 93.7315896 19.189332 93.7315896 25.4469689 89.640604 25.4469689"></polygon>
                        <path d="M106.140461,16.3627885 L107.220237,16.3627885 C108.539222,16.3627885 110.211476,16.3175205 110.211476,14.5573937 C110.211476,13.1105925 108.781095,12.842313 107.220237,12.842313 L106.140461,12.842313 L106.140461,16.3627885 Z M102.049476,9.90166744 L109.352937,9.90166744 C112.081222,9.90166744 114.302905,11.1480911 114.302905,13.8231199 C114.302905,15.895019 113.334747,17.2750277 111.355159,17.7425752 L111.355159,17.7878432 C112.673479,18.1444398 112.763571,19.3251804 113.533127,21.2180046 L115.027193,25.4470133 L110.760683,25.4470133 L109.881951,22.6426156 C109.044493,19.9704715 108.518141,19.3014369 106.999888,19.3014369 L106.140461,19.3014369 L106.140461,25.4470133 L102.049476,25.4470133 L102.049476,9.90166744 Z" id="Fill-9" fill="#231F20"></path>
                        <path d="M123.734651,13.1105259 L123.692046,13.1105259 L121.712458,19.1893098 L125.560239,19.1893098 L123.734651,13.1105259 Z M121.225605,9.90160086 L126.243031,9.90160086 L132.160048,25.4469467 L127.67208,25.4469467 L126.528397,22.130621 L120.765824,22.130621 L119.555126,25.4469467 L115.396904,25.4469467 L121.225605,9.90160086 Z" id="Fill-11" fill="#231F20"></path>
                        <path d="M25.6706461,23.4310334 L22.6563291,22.476189 L26.2602398,21.4137222 L29.6344818,22.5676127 L25.6706461,23.4310334 Z M20.8564818,27.6833418 L20.9612196,23.3895378 L24.9951764,24.6672496 L25.4997816,29.7228432 L20.8564818,27.6833418 Z M8.53381902,24.6656963 L12.5691072,23.3895378 L12.6722916,27.6824542 L8.02810432,29.7208461 L8.53381902,24.6656963 Z M3.89739827,22.5653937 L7.27053084,21.4137222 L10.8722225,22.4753014 L7.85790548,23.4290363 L3.89739827,22.5653937 Z M6.1991879,18.2849037 L9.04374986,17.2295378 L6.83382767,20.1013937 L3.59405821,21.2073533 L6.1991879,18.2849037 Z M2.63144726,13.1030478 L7.59228876,12.0230507 L9.97706974,15.4083879 L5.99969798,16.8840363 L2.63144726,13.1030478 Z M19.3220294,7.21021787 L16.7659401,10.4761718 L14.2107383,7.20910836 L16.7652744,2.83519769 L19.3220294,7.21021787 Z M30.9004329,13.1063764 L27.5317383,16.8862553 L23.5539228,15.4088317 L25.940479,12.0248259 L30.9004329,13.1063764 Z M17.8841043,18.0197308 L22.224064,16.5573965 L25.1121187,20.3104254 L20.5613522,21.652045 L17.8841043,18.0197308 Z M13.9859516,24.765996 L16.0738277,27.812045 L16.0738277,31.3771228 L14.0618421,27.934313 L13.9859516,24.765996 Z M15.6466663,18.0197308 L12.9694184,21.652045 L8.41842997,20.3104254 L11.3064847,16.5573965 L15.6466663,18.0197308 Z M8.56333199,11.0007481 L8.16257695,6.99075677 L10.2023003,9.74478271 L10.304819,13.4731804 L8.56333199,11.0007481 Z M17.456721,12.0862928 L21.9236086,10.4979182 L21.7931303,15.2430709 L17.456721,16.7040738 L17.456721,12.0862928 Z M11.7374184,15.2430709 L11.6069401,10.4979182 L16.0738277,12.0862928 L16.0738277,16.7040738 L11.7374184,15.2430709 Z M16.7652744,26.3750075 L14.0864732,22.4666473 L16.7652744,18.8316703 L19.4440755,22.4666473 L16.7652744,26.3750075 Z M24.9694357,11.0018576 L23.2257297,13.4747337 L23.3280265,9.74544841 L25.3708565,6.99075677 L24.9694357,11.0018576 Z M20.5924184,7.8297683 L24.2007671,6.2456098 L22.2123032,8.92751758 L18.7777037,10.1488663 L20.5924184,7.8297683 Z M14.7537326,10.1490882 L11.3180236,8.92751758 L9.33000346,6.24316888 L12.938796,7.82843689 L14.7537326,10.1490882 Z M19.4667095,27.9354225 L17.456721,31.3764571 L17.456721,27.812045 L19.5439314,24.7671055 L19.4667095,27.9354225 Z M29.9344934,21.2086847 L26.6969429,20.1016156 L24.4883522,17.2315349 L27.3313608,18.2873447 L29.9344934,21.2086847 Z M28.6601101,17.6990824 L33.5084473,12.2595983 L26.3891648,10.7071718 L27.1136749,3.45652334 L20.4421908,6.38562997 L16.7652744,0.0935982709 L13.0905769,6.38496427 L6.4197585,3.45430432 L7.14360288,10.7051746 L0.023654755,12.255604 L4.87066052,17.6966415 L0.022767147,23.1356818 L7.14160576,24.6881084 L6.41687378,31.9385349 L13.0885798,29.0103159 L16.7652744,35.3019037 L20.4399718,29.0109816 L27.1110121,31.9411977 L26.3876115,24.6905493 L33.5075597,23.139898 L28.6601101,17.6990824 Z" id="Fill-13" fill="#DD1100"></path>
                        <path d="M27.9004951,25.76187 C27.9936939,25.76187 28.0589331,25.7276971 28.0589331,25.646481 C28.0589331,25.5754723 28.0216536,25.528651 27.909815,25.528651 L27.8104029,25.528651 L27.8104029,25.76187 L27.9004951,25.76187 Z M27.7109908,25.4418873 L27.9253481,25.4418873 C28.0465066,25.4418873 28.1645585,25.4853801 28.1645585,25.6407115 C28.1645585,25.7183772 28.1117458,25.7931582 28.0402934,25.8146827 L28.1925182,26.0820746 L28.0775729,26.0820746 L27.9564144,25.845749 L27.8104029,25.845749 L27.8104029,26.0820746 L27.7109908,26.0820746 L27.7109908,25.4418873 Z M28.3915643,25.7745184 C28.3915643,25.4760602 28.1831983,25.2552677 27.9222415,25.2552677 C27.6610628,25.2552677 27.4529187,25.4760602 27.4529187,25.7745184 C27.4529187,26.0696481 27.6610628,26.2842274 27.9222415,26.2842274 C28.1831983,26.2842274 28.3915643,26.0696481 28.3915643,25.7745184 L28.3915643,25.7745184 Z M27.3563914,25.7745184 C27.3563914,25.4105991 27.6144634,25.1682821 27.9222415,25.1682821 C28.2331262,25.1682821 28.4878697,25.4105991 28.4878697,25.7745184 C28.4878697,26.1348873 28.2331262,26.3743196 27.9222415,26.3743196 C27.6144634,26.3743196 27.3563914,26.1348873 27.3563914,25.7745184 L27.3563914,25.7745184 Z" id="Fill-15" fill="#808285"></path>
                        <path d="M152.382112,10.4368729 C152.477752,10.4368729 152.544545,10.4018124 152.544545,10.3190429 C152.544545,10.2460372 152.506599,10.1981063 152.391876,10.1981063 L152.289801,10.1981063 L152.289801,10.4368729 L152.382112,10.4368729 Z M152.18817,10.1089017 L152.407631,10.1089017 C152.531896,10.1089017 152.653055,10.1537259 152.653055,10.3126078 C152.653055,10.3922706 152.598911,10.4688268 152.525461,10.4907951 L152.681458,10.7646222 L152.563628,10.7646222 L152.439585,10.522749 L152.289801,10.522749 L152.289801,10.7646222 L152.18817,10.7646222 L152.18817,10.1089017 Z M152.885164,10.4495213 C152.885164,10.1441841 152.672138,9.91806599 152.404746,9.91806599 C152.137133,9.91806599 151.924329,10.1441841 151.924329,10.4495213 C151.924329,10.7517519 152.137133,10.9714349 152.404746,10.9714349 C152.672138,10.9714349 152.885164,10.7517519 152.885164,10.4495213 L152.885164,10.4495213 Z M151.825138,10.4495213 C151.825138,10.0771697 152.089646,9.82908329 152.404746,9.82908329 C152.722732,9.82908329 152.984133,10.0771697 152.984133,10.4495213 C152.984133,10.8187663 152.722732,11.0637461 152.404746,11.0637461 C152.089646,11.0637461 151.825138,10.8187663 151.825138,10.4495213 L151.825138,10.4495213 Z" id="Fill-17" fill="#808285"></path>
                    </g>
                </g>
            </g>
        </g>
    </g>
</svg>