<svg width="107" height="113" viewBox="0 0 107 113" fill="none" xmlns="http://www.w3.org/2000/svg">
<path fill-rule="evenodd" clip-rule="evenodd" d="M90.7592 56.0072L106.125 38.7027L83.5622 33.7655L85.8618 10.6996L64.7151 20.0152L53.0632 0L41.417 20.0132L20.2752 10.6908L22.569 33.7567L0.00290686 38.691L15.3662 56.0004L0 73.304L22.5632 78.2412L20.2646 101.306L41.4093 91.9896L53.0632 112.005L64.7084 91.9916L85.8521 101.313L83.5583 78.2471L106.122 73.3137L90.7592 56.0072ZM98.2128 69.0248L84.9032 64.4549L76.0728 52.9341L87.8177 57.3144L98.2128 69.0248ZM62.554 89.5997L54.594 103.28V88.7746L62.8677 76.6551L62.554 89.5997ZM48.6112 32.8849L34.9142 27.9963L26.7189 16.8895L41.083 23.2234L48.6112 32.8849ZM65.0502 23.2263L79.4132 16.8963L71.2121 27.9954L57.5191 32.884L65.0502 23.2263ZM80.4202 34.4196L73.2774 44.5856L73.6821 29.8138L82.0014 18.5534L80.4202 34.4196ZM53.0632 85.58L43.4794 71.5449L53.0632 58.4924L62.646 71.5449L53.0632 85.58ZM36.019 48.5149L35.5533 31.4864L51.5324 37.1895V53.7622L36.019 48.5149ZM54.594 37.1895L70.5731 31.4864L70.1064 48.5159L54.594 53.7622V37.1895ZM25.711 34.4128L24.1327 18.5505L32.4442 29.8128L32.848 44.5817L25.711 34.4128ZM50.5854 56.6856L41.0055 69.7333L24.7321 64.9175L35.0663 51.4374L50.5854 56.6856ZM43.2557 76.6532L51.5324 88.7746V103.283L43.5646 89.5978L43.2557 76.6532ZM55.54 56.6856L71.0611 51.4374L81.3952 64.9175L65.1199 69.7342L55.54 56.6856ZM100.353 40.5862L88.2631 54.2024L74.0055 48.8852L82.5707 36.6938L100.353 40.5862ZM53.0632 6.09377L62.2354 21.8481L53.0632 33.6119L43.8967 21.8472L53.0632 6.09377ZM5.7766 40.5736L23.5615 36.686L32.1208 48.8833L17.8652 54.1927L5.7766 40.5736ZM18.3068 57.3067L30.0565 52.9312L21.2241 64.453L7.9087 69.017L18.3068 57.3067ZM8.58163 72.0347L22.1895 67.3706L36.3627 71.5643L24.1511 75.4422L8.58163 72.0347ZM25.6461 78.1907L40.1196 73.5936L40.4885 89.037L23.8345 96.3767L25.6461 78.1907ZM65.6301 89.0409L66.0049 73.5946L80.4764 78.1965L82.2851 96.3835L65.6301 89.0409ZM81.9714 75.448L69.7597 71.5653L83.9379 67.3706L97.5476 72.0435L81.9714 75.448Z" fill="#DD1100"/>
</svg>
