<svg width="13" height="14" viewBox="0 0 13 14" fill="none" xmlns="http://www.w3.org/2000/svg">
<path d="M11.8333 5.89506C11.6565 5.89506 11.487 5.9705 11.3619 6.10479C11.2369 6.23907 11.1667 6.4212 11.1667 6.61111V10.9074C11.1667 11.0973 11.0964 11.2794 10.9714 11.4137C10.8464 11.548 10.6768 11.6235 10.5 11.6235H2.5C2.32319 11.6235 2.15362 11.548 2.0286 11.4137C1.90357 11.2794 1.83333 11.0973 1.83333 10.9074V2.31482C1.83333 2.12491 1.90357 1.94278 2.0286 1.8085C2.15362 1.67421 2.32319 1.59877 2.5 1.59877H6.5C6.67681 1.59877 6.84638 1.52333 6.9714 1.38904C7.09643 1.25476 7.16667 1.07263 7.16667 0.882721C7.16667 0.692813 7.09643 0.510683 6.9714 0.376398C6.84638 0.242112 6.67681 0.166672 6.5 0.166672H2.5C1.96957 0.166672 1.46086 0.392994 1.08579 0.795849C0.710714 1.19871 0.5 1.74509 0.5 2.31482V10.9074C0.5 11.4771 0.710714 12.0235 1.08579 12.4264C1.46086 12.8292 1.96957 13.0556 2.5 13.0556H10.5C11.0304 13.0556 11.5391 12.8292 11.9142 12.4264C12.2893 12.0235 12.5 11.4771 12.5 10.9074V6.61111C12.5 6.4212 12.4298 6.23907 12.3047 6.10479C12.1797 5.9705 12.0101 5.89506 11.8333 5.89506Z" fill="#A0A3BD"/>
<path d="M9.16673 1.59877H10.2201L6.02673 6.09556C5.96424 6.16212 5.91465 6.24132 5.8808 6.32858C5.84695 6.41583 5.82953 6.50942 5.82953 6.60395C5.82953 6.69848 5.84695 6.79207 5.8808 6.87933C5.91465 6.96658 5.96424 7.04578 6.02673 7.11235C6.0887 7.17946 6.16244 7.23273 6.24368 7.26908C6.32492 7.30544 6.41205 7.32415 6.50006 7.32415C6.58807 7.32415 6.67521 7.30544 6.75645 7.26908C6.83769 7.23273 6.91142 7.17946 6.97339 7.11235L11.1667 2.61556V3.74692C11.1667 3.93682 11.237 4.11895 11.362 4.25324C11.487 4.38752 11.6566 4.46297 11.8334 4.46297C12.0102 4.46297 12.1798 4.38752 12.3048 4.25324C12.4298 4.11895 12.5001 3.93682 12.5001 3.74692V0.882721C12.5001 0.692813 12.4298 0.510683 12.3048 0.376398C12.1798 0.242112 12.0102 0.166672 11.8334 0.166672H9.16673C8.98992 0.166672 8.82035 0.242112 8.69532 0.376398C8.5703 0.510683 8.50006 0.692813 8.50006 0.882721C8.50006 1.07263 8.5703 1.25476 8.69532 1.38904C8.82035 1.52333 8.98992 1.59877 9.16673 1.59877Z" fill="#A0A3BD"/>
</svg>
