<svg width="12" height="13" viewBox="0 0 12 13" fill="none" xmlns="http://www.w3.org/2000/svg">
<path d="M2.71499 5.542L1.34299 6.914C0.780331 7.47666 0.464233 8.23978 0.464233 9.0355C0.464233 9.83122 0.780331 10.5943 1.34299 11.157C1.90564 11.7197 2.66877 12.0358 3.46449 12.0358C4.2602 12.0358 5.02333 11.7197 5.58599 11.157L7.41399 9.328C7.75328 8.98866 8.00622 8.57287 8.15158 8.11555C8.29693 7.65822 8.33046 7.1727 8.24935 6.69974C8.16823 6.22677 7.97485 5.78016 7.68542 5.3974C7.39599 5.01464 7.01896 4.7069 6.58599 4.5L5.99999 5.086C5.9405 5.1456 5.88875 5.21246 5.84599 5.285C6.18051 5.38117 6.48415 5.56298 6.72688 5.81246C6.96961 6.06194 7.14303 6.37044 7.22999 6.70748C7.31695 7.04452 7.31444 7.39842 7.22272 7.73419C7.13099 8.06996 6.95323 8.37598 6.70699 8.622L4.87999 10.45C4.50471 10.8253 3.99572 11.0361 3.46499 11.0361C2.93426 11.0361 2.42527 10.8253 2.04999 10.45C1.67471 10.0747 1.46388 9.56573 1.46388 9.035C1.46388 8.50427 1.67471 7.99528 2.04999 7.62L2.84299 6.828C2.7311 6.40873 2.68788 5.9741 2.71499 5.541V5.542Z" fill="#6E7191"/>
<path d="M4.58599 3.672C4.24669 4.01134 3.99375 4.42713 3.8484 4.88445C3.70304 5.34178 3.66951 5.8273 3.75063 6.30026C3.83174 6.77323 4.02513 7.21983 4.31456 7.60259C4.60399 7.98535 4.98101 8.2931 5.41399 8.5L6.18899 7.724C5.84994 7.63305 5.54079 7.45447 5.29262 7.2062C5.04445 6.95793 4.866 6.64871 4.7752 6.30962C4.6844 5.97053 4.68444 5.61351 4.77533 5.27445C4.86622 4.93538 5.04475 4.62621 5.29299 4.378L7.11999 2.55C7.49527 2.17472 8.00426 1.96389 8.53499 1.96389C9.06572 1.96389 9.57471 2.17472 9.94999 2.55C10.3253 2.92528 10.5361 3.43427 10.5361 3.965C10.5361 4.49573 10.3253 5.00472 9.94999 5.38L9.15699 6.172C9.26899 6.592 9.31199 7.027 9.28499 7.459L10.657 6.087C11.2196 5.52434 11.5357 4.76122 11.5357 3.9655C11.5357 3.16978 11.2196 2.40666 10.657 1.844C10.0943 1.28134 9.3312 0.965244 8.53549 0.965244C7.73977 0.965244 6.97664 1.28134 6.41399 1.844L4.58599 3.672Z" fill="#6E7191"/>
</svg>
