<svg width="151" height="35" viewBox="0 0 151 35" fill="none" xmlns="http://www.w3.org/2000/svg">
<circle cx="17.5" cy="17.5" r="16" stroke="url(#paint0_linear)" stroke-width="3" stroke-dasharray="7 6"/>
<path d="M50.094 23.18C48.81 23.18 47.808 22.82 47.088 22.1C46.368 21.368 45.99 20.348 45.954 19.04L45.936 18.32L45.954 17.6C45.99 16.292 46.368 15.278 47.088 14.558C47.808 13.826 48.81 13.46 50.094 13.46C50.958 13.46 51.684 13.616 52.272 13.928C52.872 14.228 53.316 14.606 53.604 15.062C53.904 15.518 54.066 15.974 54.09 16.43C54.102 16.538 54.06 16.634 53.964 16.718C53.88 16.802 53.784 16.844 53.676 16.844H52.884C52.764 16.844 52.674 16.82 52.614 16.772C52.554 16.712 52.494 16.61 52.434 16.466C52.218 15.878 51.918 15.464 51.534 15.224C51.162 14.972 50.688 14.846 50.112 14.846C49.356 14.846 48.756 15.08 48.312 15.548C47.868 16.016 47.628 16.73 47.592 17.69L47.574 18.32L47.592 18.95C47.628 19.91 47.868 20.624 48.312 21.092C48.756 21.56 49.356 21.794 50.112 21.794C50.7 21.794 51.18 21.674 51.552 21.434C51.924 21.182 52.218 20.762 52.434 20.174C52.494 20.03 52.554 19.934 52.614 19.886C52.674 19.826 52.764 19.796 52.884 19.796H53.676C53.784 19.796 53.88 19.838 53.964 19.922C54.06 20.006 54.102 20.102 54.09 20.21C54.066 20.654 53.904 21.104 53.604 21.56C53.316 22.016 52.872 22.4 52.272 22.712C51.684 23.024 50.958 23.18 50.094 23.18ZM59.8385 23.18C59.2505 23.18 58.7045 23.06 58.2005 22.82C57.7085 22.58 57.3125 22.256 57.0125 21.848C56.7245 21.428 56.5805 20.966 56.5805 20.462C56.5805 19.67 56.9045 19.022 57.5525 18.518C58.2005 18.014 59.0825 17.678 60.1985 17.51L62.8985 17.132V16.61C62.8985 15.374 62.1845 14.756 60.7565 14.756C60.2045 14.756 59.7605 14.87 59.4245 15.098C59.0885 15.314 58.8425 15.572 58.6865 15.872C58.6385 15.992 58.5845 16.076 58.5245 16.124C58.4765 16.16 58.4045 16.178 58.3085 16.178H57.6065C57.4985 16.178 57.4025 16.142 57.3185 16.07C57.2465 15.986 57.2105 15.89 57.2105 15.782C57.2105 15.506 57.3365 15.188 57.5885 14.828C57.8525 14.456 58.2545 14.138 58.7945 13.874C59.3345 13.598 59.9945 13.46 60.7745 13.46C62.1185 13.46 63.0785 13.772 63.6545 14.396C64.2425 15.02 64.5365 15.8 64.5365 16.736V22.586C64.5365 22.706 64.4945 22.808 64.4105 22.892C64.3385 22.964 64.2425 23 64.1225 23H63.3305C63.2105 23 63.1145 22.964 63.0425 22.892C62.9705 22.808 62.9345 22.706 62.9345 22.586V21.794C62.6705 22.19 62.2865 22.52 61.7825 22.784C61.2785 23.048 60.6305 23.18 59.8385 23.18ZM60.1985 21.866C60.9905 21.866 61.6385 21.608 62.1425 21.092C62.6465 20.576 62.8985 19.826 62.8985 18.842V18.338L60.7925 18.644C59.9285 18.764 59.2745 18.968 58.8305 19.256C58.3865 19.544 58.1645 19.904 58.1645 20.336C58.1645 20.828 58.3625 21.206 58.7585 21.47C59.1665 21.734 59.6465 21.866 60.1985 21.866ZM68.557 23C68.437 23 68.335 22.964 68.251 22.892C68.179 22.808 68.143 22.706 68.143 22.586V14.072C68.143 13.952 68.179 13.85 68.251 13.766C68.335 13.682 68.437 13.64 68.557 13.64H69.313C69.445 13.64 69.547 13.682 69.619 13.766C69.703 13.838 69.745 13.94 69.745 14.072V14.864C70.237 14.048 71.071 13.64 72.247 13.64H72.949C73.081 13.64 73.183 13.676 73.255 13.748C73.327 13.82 73.363 13.922 73.363 14.054V14.72C73.363 14.84 73.327 14.942 73.255 15.026C73.183 15.098 73.081 15.134 72.949 15.134H71.923C71.263 15.134 70.741 15.326 70.357 15.71C69.985 16.094 69.799 16.616 69.799 17.276V22.586C69.799 22.706 69.757 22.808 69.673 22.892C69.589 22.964 69.487 23 69.367 23H68.557ZM79.1372 23.18C77.8772 23.18 76.9292 22.772 76.2932 21.956C75.6692 21.14 75.3332 20.108 75.2852 18.86L75.2672 18.32L75.2852 17.78C75.3332 16.544 75.6752 15.518 76.3112 14.702C76.9472 13.874 77.8892 13.46 79.1372 13.46C80.3852 13.46 81.3572 13.904 82.0532 14.792V10.634C82.0532 10.514 82.0892 10.418 82.1612 10.346C82.2452 10.262 82.3472 10.22 82.4672 10.22H83.2772C83.3972 10.22 83.4932 10.262 83.5652 10.346C83.6492 10.418 83.6912 10.514 83.6912 10.634V22.586C83.6912 22.706 83.6492 22.808 83.5652 22.892C83.4932 22.964 83.3972 23 83.2772 23H82.5032C82.3832 23 82.2872 22.964 82.2152 22.892C82.1432 22.808 82.1072 22.706 82.1072 22.586V21.812C81.4232 22.724 80.4332 23.18 79.1372 23.18ZM79.4792 21.776C80.3192 21.776 80.9492 21.5 81.3692 20.948C81.7892 20.384 82.0172 19.718 82.0532 18.95C82.0652 18.818 82.0712 18.59 82.0712 18.266C82.0712 17.93 82.0652 17.696 82.0532 17.564C82.0292 16.832 81.7952 16.202 81.3512 15.674C80.9192 15.134 80.2952 14.864 79.4792 14.864C78.6152 14.864 77.9852 15.134 77.5892 15.674C77.1932 16.214 76.9772 16.922 76.9412 17.798L76.9232 18.32C76.9232 20.624 77.7752 21.776 79.4792 21.776ZM89.9967 23.18C89.4087 23.18 88.8627 23.06 88.3587 22.82C87.8667 22.58 87.4707 22.256 87.1707 21.848C86.8827 21.428 86.7387 20.966 86.7387 20.462C86.7387 19.67 87.0627 19.022 87.7107 18.518C88.3587 18.014 89.2407 17.678 90.3567 17.51L93.0567 17.132V16.61C93.0567 15.374 92.3427 14.756 90.9147 14.756C90.3627 14.756 89.9187 14.87 89.5827 15.098C89.2467 15.314 89.0007 15.572 88.8447 15.872C88.7967 15.992 88.7427 16.076 88.6827 16.124C88.6347 16.16 88.5627 16.178 88.4667 16.178H87.7647C87.6567 16.178 87.5607 16.142 87.4767 16.07C87.4047 15.986 87.3687 15.89 87.3687 15.782C87.3687 15.506 87.4947 15.188 87.7467 14.828C88.0107 14.456 88.4127 14.138 88.9527 13.874C89.4927 13.598 90.1527 13.46 90.9327 13.46C92.2767 13.46 93.2367 13.772 93.8127 14.396C94.4007 15.02 94.6947 15.8 94.6947 16.736V22.586C94.6947 22.706 94.6527 22.808 94.5687 22.892C94.4967 22.964 94.4007 23 94.2807 23H93.4887C93.3687 23 93.2727 22.964 93.2007 22.892C93.1287 22.808 93.0927 22.706 93.0927 22.586V21.794C92.8287 22.19 92.4447 22.52 91.9407 22.784C91.4367 23.048 90.7887 23.18 89.9967 23.18ZM90.3567 21.866C91.1487 21.866 91.7967 21.608 92.3007 21.092C92.8047 20.576 93.0567 19.826 93.0567 18.842V18.338L90.9507 18.644C90.0867 18.764 89.4327 18.968 88.9887 19.256C88.5447 19.544 88.3227 19.904 88.3227 20.336C88.3227 20.828 88.5207 21.206 88.9167 21.47C89.3247 21.734 89.8047 21.866 90.3567 21.866ZM98.7152 23C98.5952 23 98.4932 22.964 98.4092 22.892C98.3372 22.808 98.3012 22.706 98.3012 22.586V14.054C98.3012 13.934 98.3372 13.838 98.4092 13.766C98.4932 13.682 98.5952 13.64 98.7152 13.64H99.4892C99.6212 13.64 99.7232 13.676 99.7952 13.748C99.8672 13.82 99.9032 13.922 99.9032 14.054V14.846C100.263 14.402 100.677 14.06 101.145 13.82C101.625 13.58 102.219 13.46 102.927 13.46C104.079 13.46 104.973 13.832 105.609 14.576C106.245 15.308 106.563 16.28 106.563 17.492V22.586C106.563 22.706 106.521 22.808 106.437 22.892C106.365 22.964 106.269 23 106.149 23H105.321C105.201 23 105.099 22.964 105.015 22.892C104.943 22.808 104.907 22.706 104.907 22.586V17.6C104.907 16.736 104.697 16.064 104.277 15.584C103.857 15.104 103.257 14.864 102.477 14.864C101.709 14.864 101.097 15.11 100.641 15.602C100.185 16.082 99.9572 16.748 99.9572 17.6V22.586C99.9572 22.706 99.9152 22.808 99.8312 22.892C99.7592 22.964 99.6632 23 99.5432 23H98.7152ZM113.962 23.18C112.642 23.18 111.622 22.808 110.902 22.064C110.194 21.32 109.816 20.33 109.768 19.094L109.75 18.32L109.768 17.546C109.816 16.31 110.2 15.32 110.92 14.576C111.652 13.832 112.666 13.46 113.962 13.46C115.258 13.46 116.266 13.832 116.986 14.576C117.718 15.32 118.108 16.31 118.156 17.546C118.18 17.81 118.192 18.068 118.192 18.32C118.192 18.572 118.18 18.83 118.156 19.094C118.108 20.33 117.724 21.32 117.004 22.064C116.296 22.808 115.282 23.18 113.962 23.18ZM113.962 21.83C114.73 21.83 115.336 21.59 115.78 21.11C116.236 20.618 116.482 19.916 116.518 19.004C116.53 18.884 116.536 18.656 116.536 18.32C116.536 17.984 116.53 17.756 116.518 17.636C116.482 16.724 116.236 16.028 115.78 15.548C115.336 15.056 114.73 14.81 113.962 14.81C113.194 14.81 112.582 15.056 112.126 15.548C111.682 16.028 111.442 16.724 111.406 17.636L111.388 18.32L111.406 19.004C111.442 19.916 111.682 20.618 112.126 21.11C112.582 21.59 113.194 21.83 113.962 21.83Z" fill="#14142B"/>
<path d="M121.591 23C121.471 23 121.363 22.958 121.267 22.874C121.183 22.778 121.141 22.67 121.141 22.55V14.09C121.141 13.958 121.183 13.85 121.267 13.766C121.363 13.682 121.471 13.64 121.591 13.64H123.805C123.937 13.64 124.045 13.682 124.129 13.766C124.213 13.85 124.255 13.958 124.255 14.09V14.774C124.579 14.378 124.993 14.06 125.497 13.82C126.013 13.58 126.601 13.46 127.261 13.46C127.945 13.46 128.551 13.616 129.079 13.928C129.619 14.24 130.039 14.702 130.339 15.314C130.651 15.926 130.807 16.664 130.807 17.528V22.55C130.807 22.67 130.765 22.778 130.681 22.874C130.597 22.958 130.489 23 130.357 23H127.963C127.831 23 127.717 22.958 127.621 22.874C127.537 22.79 127.495 22.682 127.495 22.55V17.636C127.495 17.096 127.363 16.682 127.099 16.394C126.847 16.106 126.475 15.962 125.983 15.962C125.503 15.962 125.125 16.112 124.849 16.412C124.573 16.7 124.435 17.108 124.435 17.636V22.55C124.435 22.67 124.393 22.778 124.309 22.874C124.225 22.958 124.117 23 123.985 23H121.591ZM135.22 23C135.088 23 134.974 22.958 134.878 22.874C134.794 22.79 134.752 22.682 134.752 22.55V16.088H133.402C133.27 16.088 133.156 16.046 133.06 15.962C132.976 15.878 132.934 15.77 132.934 15.638V14.09C132.934 13.958 132.976 13.85 133.06 13.766C133.156 13.682 133.27 13.64 133.402 13.64H134.752V13.1C134.752 11.9 135.1 11.03 135.796 10.49C136.492 9.95 137.488 9.68 138.784 9.68H140.206C140.338 9.68 140.446 9.722 140.53 9.806C140.626 9.89 140.674 9.998 140.674 10.13V11.678C140.674 11.81 140.626 11.918 140.53 12.002C140.446 12.086 140.338 12.128 140.206 12.128H138.928C138.544 12.128 138.268 12.218 138.1 12.398C137.944 12.566 137.866 12.83 137.866 13.19V13.64H140.026C140.158 13.64 140.266 13.682 140.35 13.766C140.446 13.85 140.494 13.958 140.494 14.09V15.638C140.494 15.77 140.446 15.878 140.35 15.962C140.266 16.046 140.158 16.088 140.026 16.088H137.866V22.55C137.866 22.67 137.824 22.778 137.74 22.874C137.656 22.958 137.548 23 137.416 23H135.22ZM147.655 23C145.111 23 143.839 21.806 143.839 19.418V16.088H142.417C142.297 16.088 142.189 16.046 142.093 15.962C142.009 15.866 141.967 15.758 141.967 15.638V14.09C141.967 13.958 142.009 13.85 142.093 13.766C142.189 13.682 142.297 13.64 142.417 13.64H143.839V10.67C143.839 10.538 143.881 10.43 143.965 10.346C144.061 10.262 144.169 10.22 144.289 10.22H146.503C146.635 10.22 146.743 10.262 146.827 10.346C146.911 10.43 146.953 10.538 146.953 10.67V13.64H149.203C149.335 13.64 149.443 13.682 149.527 13.766C149.623 13.85 149.671 13.958 149.671 14.09V15.638C149.671 15.77 149.623 15.878 149.527 15.962C149.443 16.046 149.335 16.088 149.203 16.088H146.953V19.148C146.953 19.568 147.031 19.886 147.187 20.102C147.343 20.318 147.595 20.426 147.943 20.426H149.365C149.497 20.426 149.605 20.474 149.689 20.57C149.773 20.654 149.815 20.762 149.815 20.894V22.55C149.815 22.67 149.773 22.778 149.689 22.874C149.605 22.958 149.497 23 149.365 23H147.655Z" fill="url(#paint1_linear)"/>
<defs>
<linearGradient id="paint0_linear" x1="-1.17347e-08" y1="10.675" x2="35.8056" y2="13.8555" gradientUnits="userSpaceOnUse">
<stop stop-color="#FE7B59"/>
<stop offset="0.9999" stop-color="#FE497A"/>
<stop offset="1" stop-color="#FD169C"/>
</linearGradient>
<linearGradient id="paint1_linear" x1="45" y1="11.625" x2="140.718" y2="47.6751" gradientUnits="userSpaceOnUse">
<stop stop-color="#FE7B59"/>
<stop offset="0.9999" stop-color="#FE497A"/>
<stop offset="1" stop-color="#FD169C"/>
</linearGradient>
</defs>
</svg>
